<svg width="28" height="31" viewBox="0 0 28 31" fill="none" xmlns="http://www.w3.org/2000/svg">
<path fill-rule="evenodd" clip-rule="evenodd" d="M26.1274 0.964644C26.4398 0.953455 26.7439 1.06684 26.9727 1.27985C27.2016 1.49286 27.3364 1.78805 27.3476 2.10048L27.8538 16.2367C27.865 16.5492 27.7517 16.8532 27.5386 17.0821C27.3256 17.3109 27.0304 17.4458 26.718 17.4569C26.4056 17.4681 26.1015 17.3547 25.8727 17.1417C25.6438 16.9287 25.509 16.6335 25.4978 16.3211L25.0934 5.0286L2.04512 29.7914C1.93952 29.9049 1.8126 29.9964 1.67162 30.0608C1.53064 30.1252 1.37835 30.1612 1.22345 30.1667C1.06856 30.1723 0.914088 30.1473 0.768861 30.0931C0.623633 30.039 0.490494 29.9567 0.377044 29.8511C0.263594 29.7455 0.172056 29.6186 0.107655 29.4776C0.0432544 29.3367 0.00725272 29.1844 0.00170574 29.0295C-0.00384124 28.8746 0.0211751 28.7201 0.0753263 28.5749C0.129477 28.4297 0.211703 28.2965 0.317308 28.1831L23.368 3.42252L12.0755 3.82692C11.7631 3.83811 11.459 3.72473 11.2302 3.51172C11.0013 3.29871 10.8665 3.00352 10.8553 2.69109C10.8441 2.37866 10.9575 2.07458 11.1705 1.84574C11.3835 1.61691 11.6787 1.48207 11.9911 1.47088L26.1274 0.964644Z" fill="#090B0E"/>
</svg>
