<svg width="18" height="20" viewBox="0 0 18 20" fill="none" xmlns="http://www.w3.org/2000/svg">
<g clip-path="url(#clip0_694_4182)">
<path d="M5.1057 0C5.27279 0 5.43303 0.0737498 5.55118 0.205025C5.66933 0.336301 5.7357 0.514348 5.7357 0.7V2.009H12.501V0.709C12.501 0.523348 12.5674 0.345301 12.6855 0.214025C12.8037 0.0827498 12.9639 0.009 13.131 0.009C13.2981 0.009 13.4583 0.0827498 13.5765 0.214025C13.6946 0.345301 13.761 0.523348 13.761 0.709V2.009H16.2C16.6772 2.009 17.1349 2.21958 17.4725 2.59443C17.81 2.96929 17.9998 3.47774 18 4.008V18.001C17.9998 18.5313 17.81 19.0397 17.4725 19.4146C17.1349 19.7894 16.6772 20 16.2 20H1.8C1.32277 20 0.865065 19.7894 0.527526 19.4146C0.189986 19.0397 0.000238617 18.5313 0 18.001L0 4.008C0.000238617 3.47774 0.189986 2.96929 0.527526 2.59443C0.865065 2.21958 1.32277 2.009 1.8 2.009H4.4757V0.699C4.47594 0.513522 4.54242 0.335731 4.66054 0.204672C4.77866 0.0736123 4.93877 -1.89263e-07 5.1057 0ZM1.26 7.742V18.001C1.26 18.0798 1.27397 18.1578 1.30111 18.2306C1.32824 18.3034 1.36802 18.3695 1.41816 18.4253C1.46831 18.481 1.52784 18.5252 1.59335 18.5553C1.65887 18.5855 1.72909 18.601 1.8 18.601H16.2C16.2709 18.601 16.3411 18.5855 16.4066 18.5553C16.4722 18.5252 16.5317 18.481 16.5818 18.4253C16.632 18.3695 16.6718 18.3034 16.6989 18.2306C16.726 18.1578 16.74 18.0798 16.74 18.001V7.756L1.26 7.742ZM6.0003 14.619V16.285H4.5V14.619H6.0003ZM9.7497 14.619V16.285H8.2503V14.619H9.7497ZM13.5 14.619V16.285H11.9997V14.619H13.5ZM6.0003 10.642V12.308H4.5V10.642H6.0003ZM9.7497 10.642V12.308H8.2503V10.642H9.7497ZM13.5 10.642V12.308H11.9997V10.642H13.5ZM4.4757 3.408H1.8C1.72909 3.408 1.65887 3.42352 1.59335 3.45367C1.52784 3.48382 1.46831 3.52802 1.41816 3.58374C1.36802 3.63945 1.32824 3.70559 1.30111 3.77839C1.27397 3.85119 1.26 3.92921 1.26 4.008V6.343L16.74 6.357V4.008C16.74 3.92921 16.726 3.85119 16.6989 3.77839C16.6718 3.70559 16.632 3.63945 16.5818 3.58374C16.5317 3.52802 16.4722 3.48382 16.4066 3.45367C16.3411 3.42352 16.2709 3.408 16.2 3.408H13.761V4.337C13.761 4.52265 13.6946 4.7007 13.5765 4.83197C13.4583 4.96325 13.2981 5.037 13.131 5.037C12.9639 5.037 12.8037 4.96325 12.6855 4.83197C12.5674 4.7007 12.501 4.52265 12.501 4.337V3.408H5.7357V4.328C5.7357 4.51365 5.66933 4.6917 5.55118 4.82297C5.43303 4.95425 5.27279 5.028 5.1057 5.028C4.93861 5.028 4.77837 4.95425 4.66022 4.82297C4.54207 4.6917 4.4757 4.51365 4.4757 4.328V3.408Z" fill="url(#paint0_linear_694_4182)"/>
</g>
<defs>
<linearGradient id="paint0_linear_694_4182" x1="0" y1="10" x2="18" y2="10" gradientUnits="userSpaceOnUse">
<stop stop-color="#2E0797"/>
<stop offset="1" stop-color="#726EFC"/>
</linearGradient>
<clipPath id="clip0_694_4182">
<rect width="18" height="20" fill="white"/>
</clipPath>
</defs>
</svg>
