<svg width="20" height="20" viewBox="0 0 20 20" fill="none" xmlns="http://www.w3.org/2000/svg">
<path d="M11.1914 8.22266C10.7402 8.22266 10.3906 8.57227 10.3906 9.00391C10.3906 9.43555 10.7402 9.78516 11.1914 9.78516C11.6035 9.78516 11.9531 9.43555 11.9531 9.00391C11.9531 8.57227 11.6035 8.22266 11.1914 8.22266ZM5.72266 8.22266C5.27148 8.22266 4.92188 8.57227 4.92188 9.00391C4.92188 9.43555 5.27148 9.78516 5.72266 9.78516C6.13477 9.78516 6.48438 9.43555 6.48438 9.00391C6.48438 8.57227 6.13477 8.22266 5.72266 8.22266Z" fill="#050734"/>
<path d="M17.4607 6.73915C16.5212 5.45009 15.2087 4.58876 13.7693 4.20009V4.20205C13.4353 3.83095 13.0583 3.48915 12.6365 3.18447C9.43919 0.860249 4.95091 1.56923 2.61693 4.7665C0.736067 7.36415 0.816146 10.8583 2.73411 13.3407L2.74974 15.9306C2.74974 15.9931 2.7595 16.0556 2.77904 16.1142C2.88255 16.4442 3.23411 16.6259 3.56224 16.5224L6.03489 15.7431C6.68919 15.9755 7.36497 16.1083 8.03685 16.1454L8.02708 16.1532C9.76732 17.4208 12.0486 17.8017 14.1404 17.1102L16.6228 17.9188C16.6853 17.9384 16.7497 17.9501 16.8161 17.9501C17.1618 17.9501 17.4411 17.6708 17.4411 17.3251V14.7079C19.1618 12.372 19.2068 9.14345 17.4607 6.73915ZM6.30833 14.3563L6.07396 14.2587L4.14036 14.8642L4.12083 12.8329L3.96458 12.6571C2.31224 10.6415 2.20286 7.7372 3.74974 5.60634C5.63255 3.02431 9.24193 2.454 11.8161 4.31728C14.3982 6.19423 14.9704 9.79775 13.1052 12.3642C11.5408 14.5106 8.73997 15.3036 6.30833 14.3563ZM16.1716 14.0243L16.0154 14.2196L16.0349 16.2509L14.1208 15.6063L13.8865 15.704C12.7927 16.1102 11.6267 16.1435 10.5466 15.8407L10.5427 15.8388C11.9861 15.3954 13.2947 14.497 14.238 13.204C15.7302 11.1474 15.9724 8.56337 15.1052 6.36025L15.1169 6.36806C15.5661 6.69033 15.9783 7.09267 16.3279 7.579C17.7458 9.52431 17.6658 12.1727 16.1716 14.0243Z" fill="#050734"/>
<path d="M8.45703 8.22266C8.00586 8.22266 7.65625 8.57227 7.65625 9.00391C7.65625 9.43555 8.00586 9.78516 8.45703 9.78516C8.86914 9.78516 9.21875 9.43555 9.21875 9.00391C9.21875 8.57227 8.86914 8.22266 8.45703 8.22266Z" fill="#050734"/>
</svg>
