<svg width="32" height="32" viewBox="0 0 32 32" fill="none" xmlns="http://www.w3.org/2000/svg">
<path d="M5.33333 24.0013L12 16.0013M26.6667 24.0013L20 16.0013M4 10.668L13.6333 17.0901C14.4887 17.6604 14.9163 17.9456 15.3785 18.0562C15.7871 18.1542 16.2129 18.1542 16.6215 18.0562C17.0837 17.9456 17.5113 17.6604 18.3667 17.0901L28 10.668M8.26667 25.3346H23.7333C25.2268 25.3346 25.9736 25.3346 26.544 25.044C27.0457 24.7884 27.4537 24.3804 27.7093 23.8786C28 23.3082 28 22.5614 28 21.068V10.9346C28 9.44117 28 8.69442 27.7093 8.124C27.4537 7.62222 27.0457 7.21428 26.544 6.95862C25.9736 6.66797 25.2268 6.66797 23.7333 6.66797H8.26667C6.7732 6.66797 6.02645 6.66797 5.45603 6.95862C4.95425 7.21428 4.54631 7.62222 4.29065 8.124C4 8.69442 4 9.44116 4 10.9346V21.068C4 22.5614 4 23.3082 4.29065 23.8786C4.54631 24.3804 4.95425 24.7884 5.45603 25.044C6.02645 25.3346 6.77319 25.3346 8.26667 25.3346Z" stroke="white" stroke-width="2" stroke-linecap="round" stroke-linejoin="round"/>
</svg>
