<svg width="33" height="32" viewBox="0 0 33 32" fill="none" xmlns="http://www.w3.org/2000/svg">
<path d="M19.2333 7.99935C20.5357 8.25344 21.7325 8.89036 22.6708 9.8286C23.6091 10.7668 24.246 11.9637 24.5 13.266M19.2333 2.66602C21.9391 2.9666 24.4621 4.17824 26.3884 6.10203C28.3145 8.0258 29.5295 10.5474 29.8333 13.2527M25.1667 27.9993C13.7528 27.9993 4.5 18.7465 4.5 7.33268C4.5 6.81772 4.51884 6.30716 4.55585 5.80166C4.59833 5.22151 4.61957 4.93144 4.7716 4.66739C4.89752 4.4487 5.12067 4.2413 5.34797 4.13168C5.62241 3.99935 5.94251 3.99935 6.58268 3.99935H10.3391C10.8774 3.99935 11.1466 3.99935 11.3774 4.08795C11.5812 4.16622 11.7627 4.29334 11.9059 4.45815C12.068 4.64472 12.16 4.8977 12.344 5.40363L13.8988 9.67942C14.1128 10.2681 14.2199 10.5624 14.2017 10.8416C14.1857 11.0878 14.1016 11.3248 13.9589 11.5261C13.7971 11.7544 13.5286 11.9155 12.9915 12.2378L11.1667 13.3327C12.7692 16.8645 15.6335 19.7325 19.1667 21.3327L20.2616 19.5079C20.5839 18.9707 20.7449 18.7021 20.9732 18.5404C21.1745 18.3977 21.4115 18.3136 21.6577 18.2976C21.9369 18.2795 22.2313 18.3865 22.82 18.6005L27.0957 20.1553C27.6016 20.3393 27.8547 20.4313 28.0412 20.5935C28.206 20.7367 28.3332 20.9181 28.4113 21.122C28.5 21.3527 28.5 21.6219 28.5 22.1603V25.9167C28.5 26.5568 28.5 26.877 28.3676 27.1514C28.258 27.3787 28.0507 27.6019 27.832 27.7278C27.5679 27.8798 27.2779 27.9009 26.6977 27.9435C26.1921 27.9805 25.6816 27.9993 25.1667 27.9993Z" stroke="white" stroke-width="2" stroke-linecap="round" stroke-linejoin="round"/>
</svg>
