<svg width="28" height="20" viewBox="0 0 28 20" fill="none" xmlns="http://www.w3.org/2000/svg">
<path d="M21.5015 5.50717e-08C23.032 -0.000210105 24.5013 0.601084 25.5925 1.67423C26.6838 2.74737 27.3095 4.20639 27.3349 5.73667C27.4849 7.17833 27.4632 9.305 26.4882 11.76C25.4915 14.27 23.5482 17.0067 20.0014 19.6667C19.8263 19.798 19.6271 19.8935 19.4151 19.9479C19.203 20.0022 18.9824 20.0142 18.7657 19.9833C18.3281 19.9207 17.9333 19.687 17.6681 19.3333C17.4029 18.9797 17.289 18.5352 17.3515 18.0976C17.414 17.66 17.6478 17.2652 18.0014 17C20.6081 15.045 22.1015 13.145 22.9565 11.4833C22.1549 11.6892 21.3186 11.7221 20.5033 11.5799C19.688 11.4377 18.9123 11.1237 18.2277 10.6587C17.543 10.1936 16.9652 9.58821 16.5326 8.88268C16.1 8.17715 15.8224 7.38763 15.7184 6.56659C15.6143 5.74554 15.6862 4.91175 15.9292 4.12061C16.1722 3.32948 16.5808 2.5991 17.1278 1.97801C17.6747 1.35692 18.3476 0.859322 19.1017 0.518286C19.8558 0.177249 20.6738 0.000574362 21.5015 5.50717e-08ZM6.50125 5.50717e-08C8.03176 -0.000210105 9.50105 0.601084 10.5923 1.67423C11.6835 2.74737 12.3093 4.20639 12.3347 5.73667C12.4847 7.17833 12.463 9.305 11.488 11.76C10.493 14.27 8.54794 17.0067 5.00122 19.6667C4.82613 19.798 4.62688 19.8935 4.41485 19.9479C4.20283 20.0022 3.98218 20.0142 3.7655 19.9833C3.32791 19.9207 2.93308 19.687 2.66786 19.3333C2.40264 18.9797 2.28876 18.5352 2.35127 18.0976C2.41378 17.66 2.64757 17.2652 3.0012 17C5.6079 15.045 7.10126 13.145 7.95627 11.4833C7.15465 11.6892 6.31841 11.7221 5.50309 11.5799C4.68777 11.4377 3.91204 11.1237 3.22743 10.6587C2.54282 10.1936 1.96501 9.58821 1.53237 8.88268C1.09973 8.17715 0.822178 7.38763 0.718145 6.56659C0.614112 5.74554 0.685981 4.91175 0.92898 4.12061C1.17198 3.32948 1.58054 2.5991 2.12753 1.97801C2.67452 1.35692 3.34741 0.859322 4.1015 0.518286C4.85559 0.177249 5.67362 0.000574362 6.50125 5.50717e-08Z" fill="#C0F037"/>
</svg>
