<svg width="40" height="40" viewBox="0 0 40 40" fill="none" xmlns="http://www.w3.org/2000/svg">
<rect width="40" height="40" rx="4" fill="url(#paint0_linear_323_29443)"/>
<path d="M25.42 8.66406H13.9371C10.7647 8.66406 8.18457 11.2442 8.18457 14.4166V24.9219C8.18457 28.0943 10.7647 30.6744 13.9371 30.6744H25.42C28.5924 30.6744 31.1725 28.0943 31.1725 24.9219V14.4166C31.1725 11.2442 28.5924 8.66406 25.42 8.66406ZM10.2136 14.4166C10.2136 12.3632 11.8838 10.6931 13.9371 10.6931H25.42C27.4733 10.6931 29.1434 12.3632 29.1434 14.4166V24.9219C29.1434 26.9752 27.4733 28.6453 25.42 28.6453H13.9371C11.8838 28.6453 10.2136 26.9752 10.2136 24.9219V14.4166Z" fill="white"/>
<path d="M19.6736 25.0191C22.6243 25.0191 25.025 22.6185 25.025 19.6678C25.025 16.7171 22.6243 14.3164 19.6736 14.3164C16.7229 14.3164 14.3223 16.7171 14.3223 19.6678C14.3223 22.6185 16.7229 25.0191 19.6736 25.0191ZM19.6736 16.3465C21.5053 16.3465 22.9949 17.8361 22.9949 19.6678C22.9949 21.4994 21.5053 22.989 19.6736 22.989C17.842 22.989 16.3524 21.4994 16.3524 19.6678C16.3524 17.8361 17.842 16.3465 19.6736 16.3465Z" fill="white"/>
<path d="M25.527 15.185C26.322 15.185 26.9691 14.5378 26.9691 13.7429C26.9691 12.9479 26.322 12.3008 25.527 12.3008C24.7321 12.3008 24.085 12.9479 24.085 13.7429C24.085 14.5378 24.7321 15.185 25.527 15.185Z" fill="white"/>
<defs>
<linearGradient id="paint0_linear_323_29443" x1="5.85742" y1="34.1426" x2="34.1426" y2="5.85742" gradientUnits="userSpaceOnUse">
<stop stop-color="#FAAD4F"/>
<stop offset="0.35" stop-color="#DD2A7B"/>
<stop offset="0.62" stop-color="#9537B0"/>
<stop offset="1" stop-color="#515BD4"/>
</linearGradient>
</defs>
</svg>
