<svg width="40" height="40" viewBox="0 0 40 40" fill="none" xmlns="http://www.w3.org/2000/svg">
<rect width="40" height="40" rx="4" fill="#17AC22"/>
<path d="M37.9948 19.6673C37.9948 28.9269 31.1308 36.5818 22.2146 37.8243C21.3806 37.9405 20.5276 38.0007 19.662 38.0007C18.6623 38.0007 17.6815 37.9204 16.7251 37.7663C7.9947 36.3622 1.32812 28.7928 1.32812 19.6673C1.32812 9.54207 9.53598 1.33398 19.6609 1.33398C29.7859 1.33398 37.9937 9.54207 37.9937 19.6673H37.9948Z" fill="#17AC22"/>
<path d="M23.0675 25.0946C18.318 25.0936 14.4532 21.2286 14.4521 16.4801C14.4543 15.2766 15.4329 14.2969 16.6353 14.2969C16.7588 14.2969 16.8812 14.3074 16.9974 14.3286C17.255 14.3708 17.4988 14.4584 17.7247 14.5893C17.7575 14.6083 17.7796 14.64 17.7849 14.6769L18.2864 17.8409C18.2927 17.8778 18.2811 17.9148 18.2568 17.9422C17.9791 18.2494 17.6255 18.4701 17.2328 18.5809L17.0438 18.6348L17.1156 18.8184C17.7638 20.4664 19.0813 21.785 20.7302 22.4332L20.9139 22.505L20.9667 22.3149C21.0775 21.9212 21.2982 21.5675 21.6054 21.2909C21.6276 21.2708 21.6571 21.2592 21.6877 21.2592C21.6941 21.2592 21.7014 21.2592 21.7078 21.2613L24.8706 21.7628C24.9086 21.7691 24.9392 21.7903 24.9593 21.823C25.0891 22.0489 25.1767 22.2938 25.22 22.5504C25.2401 22.6654 25.2506 22.7858 25.2506 22.9125C25.2506 24.1149 24.271 25.0936 23.0675 25.0957V25.0946Z" fill="#FDFDFD"/>
<path d="M31.4916 18.6263C31.2351 15.7316 29.9092 13.0469 27.7577 11.0675C25.5936 9.07539 22.7845 7.97852 19.8476 7.97852C13.4016 7.97852 8.15707 13.2232 8.15707 19.6694C8.15707 21.8325 8.75352 23.9407 9.88309 25.7766L7.36426 31.3539L15.4317 30.4945C16.8347 31.0689 18.32 31.3602 19.8476 31.3602C20.2498 31.3602 20.6615 31.3391 21.0743 31.2969C21.4385 31.2578 21.8059 31.2008 22.1679 31.128C27.5667 30.0374 31.5075 25.2456 31.5381 19.7317V19.6694C31.5381 19.3178 31.5223 18.9673 31.4906 18.6274L31.4916 18.6263ZM15.741 28.0464L11.2776 28.5214L12.6109 25.5686L12.3449 25.2108C12.3249 25.1844 12.3059 25.158 12.2837 25.1284C11.1267 23.5311 10.5154 21.6435 10.5154 19.6683C10.5154 14.5218 14.7022 10.3359 19.8476 10.3359C24.6688 10.3359 28.7543 14.0974 29.1481 18.8987C29.1692 19.1563 29.1797 19.4149 29.1797 19.6694C29.1797 19.7422 29.1787 19.814 29.1766 19.89C29.0773 24.1952 26.0697 27.8511 21.8629 28.7822C21.5419 28.854 21.2126 28.9078 20.8843 28.9437C20.5433 28.9828 20.1938 29.0018 19.8465 29.0018C18.6103 29.0018 17.409 28.7621 16.2731 28.2892C16.1475 28.2385 16.0239 28.1847 15.9078 28.1287L15.7389 28.0474L15.741 28.0464Z" fill="#FDFDFD"/>
</svg>
