<svg width="40" height="40" viewBox="0 0 40 40" fill="none" xmlns="http://www.w3.org/2000/svg">
<rect width="40" height="40" rx="4" fill="#1ED760"/>
<path d="M28.4858 27.4973C28.1669 28.0033 27.4865 28.145 26.955 27.8414C22.7666 25.4124 17.5152 24.8659 11.307 26.2018C10.7117 26.3233 10.1164 25.9792 9.9888 25.4124C9.86124 24.8457 10.2227 24.2789 10.818 24.1575C17.6002 22.6799 23.4257 23.3074 28.1031 26.0399C28.6346 26.3435 28.8047 26.9912 28.4858 27.4973ZM30.6544 22.8823C30.2504 23.5098 29.4 23.6919 28.7409 23.3276C23.9572 20.5141 16.6647 19.7044 11.0093 21.344C10.2652 21.5464 9.4998 21.1618 9.28719 20.4736C9.07458 19.7652 9.47854 19.0365 10.2227 18.8341C16.686 16.9719 24.7226 17.8625 30.2292 21.0808C30.8458 21.4452 31.0584 22.2548 30.6544 22.8823ZM30.8458 18.0649C25.1053 14.8263 15.6442 14.5227 10.1589 16.1015C9.28719 16.3647 8.35171 15.8991 8.07532 15.049C7.79893 14.2191 8.30919 13.3285 9.18089 13.0654C15.4741 11.2437 25.9345 11.608 32.5254 15.3324C33.312 15.7777 33.5671 16.7492 33.0994 17.4982C32.6529 18.2673 31.6324 18.5305 30.8458 18.0649Z" fill="white"/>
</svg>
