<svg width="40" height="40" viewBox="0 0 40 40" fill="none" xmlns="http://www.w3.org/2000/svg">
<rect width="40" height="40" rx="4" fill="#E84C88"/>
<rect x="8" y="8" width="24" height="24" stroke="white"/>
<path fill-rule="evenodd" clip-rule="evenodd" d="M30.5 20C30.5 25.799 25.799 30.5 20 30.5C14.201 30.5 9.5 25.799 9.5 20C9.5 14.201 14.201 9.5 20 9.5C25.799 9.5 30.5 14.201 30.5 20ZM23.693 28.2099C22.5662 28.7175 21.3161 29 20 29C17.8273 29 15.8344 28.2301 14.2793 26.9482C15.8971 24.2335 18.4991 22.1752 21.5923 21.2646C22.4807 23.4936 23.187 25.8148 23.693 28.2099ZM25.0615 27.4429C24.5631 25.2013 23.8948 23.0238 23.0708 20.9246C23.7567 20.8097 24.4612 20.75 25.1797 20.75C26.4774 20.75 27.7285 20.9447 28.9059 21.3062C28.5355 23.8537 27.0981 26.0553 25.0615 27.4429ZM28.9971 19.77C27.7819 19.431 26.5014 19.25 25.1797 19.25C24.2583 19.25 23.3575 19.3379 22.4852 19.5057C22.2577 18.9806 22.0203 18.4608 21.7732 17.9465C23.7368 17.0749 25.5515 15.9289 27.1683 14.5572C28.2745 16.0118 28.948 17.8133 28.9971 19.77ZM26.164 13.4421C24.6461 14.7244 22.9428 15.7937 21.1 16.604C20.1273 14.7439 19.0263 12.9615 17.8088 11.2686C18.5102 11.0932 19.2442 11 20 11C22.3851 11 24.5535 11.9278 26.164 13.4421ZM16.3269 11.7812C13.6848 12.9638 11.7171 15.383 11.1598 18.3026C11.6718 18.3402 12.1891 18.3594 12.711 18.3594C15.1619 18.3594 17.5138 17.9369 19.6981 17.1606C18.706 15.2804 17.5779 13.4829 16.3269 11.7812ZM11.0023 19.795C11.0008 19.8632 11 19.9315 11 20C11 22.244 11.8213 24.2962 13.1797 25.8724C14.969 23.037 17.7365 20.879 21.009 19.8734C20.8069 19.4145 20.597 18.9598 20.3795 18.5095C17.9876 19.3828 15.4047 19.8594 12.711 19.8594C12.1362 19.8594 11.5664 19.8377 11.0023 19.795Z" fill="white"/>
</svg>
