<svg width="40" height="40" viewBox="0 0 40 40" fill="none" xmlns="http://www.w3.org/2000/svg">
<rect width="40" height="40" rx="4" fill="#FF0000"/>
<path d="M37.9948 20.3319C37.9948 29.5912 31.1306 37.2459 22.2141 38.4884C21.3801 38.6045 20.5271 38.6647 19.6615 38.6647C18.6617 38.6647 17.681 38.5845 16.7245 38.4304C7.99594 37.0253 1.32812 29.4561 1.32812 20.3309C1.32812 10.2059 9.53622 1.99805 19.6615 1.99805C29.7867 1.99805 37.9948 10.2059 37.9948 20.3309V20.3319Z" fill="#FF0000"/>
<path fill-rule="evenodd" clip-rule="evenodd" d="M17.9648 25.1666C17.9427 25.2436 17.9216 25.308 17.9047 25.3724C16.9229 29.2182 16.8141 30.0723 15.8049 31.8585C15.3235 32.7072 14.7819 33.5117 14.1823 34.2812C14.1147 34.3678 14.0513 34.4808 13.9162 34.4533C13.7684 34.4217 13.7568 34.2886 13.741 34.1704C13.5794 33.0018 13.4908 31.83 13.5288 30.6497C13.5794 29.1127 13.7695 28.5848 15.751 20.2535C15.7795 20.1268 15.7479 20.0212 15.7046 19.9062C15.2306 18.6267 15.1366 17.3282 15.5504 16.0128C16.4478 13.171 19.6687 12.9535 20.2325 15.2981C20.5798 16.7486 19.6614 18.6457 18.9561 21.4517C18.3723 23.7668 21.0971 25.4115 23.426 23.7224C25.5733 22.1653 26.4073 18.4303 26.2489 15.7838C25.9364 10.5065 20.1501 9.36633 16.4784 11.066C12.2693 13.0116 11.3128 18.2287 13.2131 20.6124C13.4538 20.9154 13.9078 21.1012 13.8286 21.4084C13.7061 21.8855 13.5984 22.3669 13.4665 22.842C13.3683 23.1956 12.8046 23.3234 12.4477 23.1787C11.7467 22.8958 11.164 22.4493 10.69 21.8623C9.07581 19.8639 8.61447 15.9115 10.748 12.565C13.1118 8.8575 17.5088 7.35844 21.5236 7.81344C26.3186 8.35922 29.3495 11.635 29.9164 15.3509C30.1751 17.0442 29.9893 21.2194 27.6118 24.169C24.8776 27.5598 20.4457 27.7846 18.4008 25.7029C18.2435 25.5435 18.1169 25.3566 17.9627 25.1655L17.9648 25.1666Z" fill="white"/>
</svg>
