<svg width="40" height="40" viewBox="0 0 40 40" fill="none" xmlns="http://www.w3.org/2000/svg">
<path d="M4.16602 19.9993C4.16602 12.5354 4.16602 8.8035 6.48475 6.48475C8.8035 4.16602 12.5354 4.16602 19.9993 4.16602C27.4632 4.16602 31.1952 4.16602 33.514 6.48475C35.8327 8.8035 35.8327 12.5354 35.8327 19.9993C35.8327 27.4632 35.8327 31.1952 33.514 33.514C31.1952 35.8327 27.4632 35.8327 19.9993 35.8327C12.5354 35.8327 8.8035 35.8327 6.48475 33.514C4.16602 31.1952 4.16602 27.4632 4.16602 19.9993Z" stroke="white" stroke-width="2.4"/>
<path d="M4.16602 15H35.8327" stroke="white" stroke-width="2.4" stroke-linejoin="round"/>
<path d="M11.666 10H11.681" stroke="white" stroke-width="2.4" stroke-linecap="round" stroke-linejoin="round"/>
<path d="M18.334 10H18.349" stroke="white" stroke-width="2.4" stroke-linecap="round" stroke-linejoin="round"/>
<path d="M13.334 21.666L15.3782 23.428C16.2376 24.1687 16.6673 24.5392 16.6673 24.9993C16.6673 25.4595 16.2376 25.83 15.3782 26.5707L13.334 28.3327" stroke="white" stroke-width="2.4" stroke-linecap="round" stroke-linejoin="round"/>
<path d="M20 28.334H26.6667" stroke="white" stroke-width="2.4" stroke-linecap="round" stroke-linejoin="round"/>
</svg>
