<svg width="28" height="22" viewBox="0 0 28 22" fill="none" xmlns="http://www.w3.org/2000/svg">
<path d="M3.15 3.78125C3.15 3.14307 3.40812 2.53103 3.86759 2.07977C4.32705 1.62851 4.95022 1.375 5.6 1.375C6.24978 1.375 6.87295 1.62851 7.33241 2.07977C7.79188 2.53103 8.05 3.14307 8.05 3.78125C8.05 4.41943 7.79188 5.03147 7.33241 5.48273C6.87295 5.93398 6.24978 6.1875 5.6 6.1875C4.95022 6.1875 4.32705 5.93398 3.86759 5.48273C3.40812 5.03147 3.15 4.41943 3.15 3.78125ZM2.8 10.5574C2.3625 11.0387 2.1 11.6789 2.1 12.375C2.1 13.0711 2.3625 13.7113 2.8 14.1926V10.5531V10.5574ZM9.1175 8.43906C7.81812 9.56914 7 11.2234 7 13.0625C7 14.5363 7.525 15.8898 8.4 16.9512V17.875C8.4 18.6355 7.77437 19.25 7 19.25H4.2C3.42562 19.25 2.8 18.6355 2.8 17.875V16.7234C1.14625 15.95 0 14.2957 0 12.375C0 9.71523 2.19187 7.5625 4.9 7.5625H6.3C7.35 7.5625 8.32125 7.88477 9.1175 8.43477V8.43906ZM19.6 17.875V16.9512C20.475 15.8898 21 14.5363 21 13.0625C21 11.2234 20.1819 9.56914 18.8825 8.43477C19.6787 7.88477 20.65 7.5625 21.7 7.5625H23.1C25.8081 7.5625 28 9.71523 28 12.375C28 14.2957 26.8538 15.95 25.2 16.7234V17.875C25.2 18.6355 24.5744 19.25 23.8 19.25H21C20.2256 19.25 19.6 18.6355 19.6 17.875ZM19.95 3.78125C19.95 3.14307 20.2081 2.53103 20.6676 2.07977C21.1271 1.62851 21.7502 1.375 22.4 1.375C23.0498 1.375 23.6729 1.62851 24.1324 2.07977C24.5919 2.53103 24.85 3.14307 24.85 3.78125C24.85 4.41943 24.5919 5.03147 24.1324 5.48273C23.6729 5.93398 23.0498 6.1875 22.4 6.1875C21.7502 6.1875 21.1271 5.93398 20.6676 5.48273C20.2081 5.03147 19.95 4.41943 19.95 3.78125ZM25.2 10.5574V14.1969C25.6375 13.7113 25.9 13.0754 25.9 12.3793C25.9 11.6832 25.6375 11.043 25.2 10.5617V10.5574ZM14 1.375C14.7426 1.375 15.4548 1.66473 15.9799 2.18046C16.505 2.69618 16.8 3.39565 16.8 4.125C16.8 4.85435 16.505 5.55382 15.9799 6.06954C15.4548 6.58527 14.7426 6.875 14 6.875C13.2574 6.875 12.5452 6.58527 12.0201 6.06954C11.495 5.55382 11.2 4.85435 11.2 4.125C11.2 3.39565 11.495 2.69618 12.0201 2.18046C12.5452 1.66473 13.2574 1.375 14 1.375ZM10.5 13.0625C10.5 13.7586 10.7625 14.3945 11.2 14.8801V11.2406C10.7625 11.7262 10.5 12.3621 10.5 13.0582V13.0625ZM16.8 11.2449V14.8844C17.2375 14.3988 17.5 13.7629 17.5 13.0668C17.5 12.3707 17.2375 11.7305 16.8 11.2492V11.2449ZM19.6 13.0625C19.6 14.9832 18.4537 16.6375 16.8 17.4109V19.25C16.8 20.0105 16.1744 20.625 15.4 20.625H12.6C11.8256 20.625 11.2 20.0105 11.2 19.25V17.4109C9.54625 16.6375 8.4 14.9832 8.4 13.0625C8.4 10.4027 10.5919 8.25 13.3 8.25H14.7C17.4081 8.25 19.6 10.4027 19.6 13.0625Z" fill="#C0F037"/>
</svg>
