<svg width="28" height="22" viewBox="0 0 28 22" fill="none" xmlns="http://www.w3.org/2000/svg">
<g clip-path="url(#clip0_225_6293)">
<path d="M1.375 6.1875C1.375 9.60352 4.14648 12.375 7.5625 12.375H12.8605C13.8316 13.2301 15.1035 13.75 16.5 13.75C17.8965 13.75 19.1684 13.2301 20.1395 12.375H21.3125C23.9723 12.375 26.125 10.2223 26.125 7.5625C26.125 4.90273 23.9723 2.75 21.3125 2.75C20.8527 2.75 20.4102 2.81445 19.9891 2.93477C19.0695 1.19023 17.2348 0 15.125 0C13.7242 0 12.4437 0.524219 11.4684 1.38789C10.4027 0.519922 9.04492 0 7.5625 0C4.14648 0 1.375 2.77148 1.375 6.1875ZM26.4688 15.8125H12.0312C11.4598 15.8125 11 16.2723 11 16.8438C11 17.4152 11.4598 17.875 12.0312 17.875H26.4688C27.0402 17.875 27.5 17.4152 27.5 16.8438C27.5 16.2723 27.0402 15.8125 26.4688 15.8125ZM23.7188 19.9375H18.9062C18.3348 19.9375 17.875 20.3973 17.875 20.9688C17.875 21.5402 18.3348 22 18.9062 22H23.7188C24.2902 22 24.75 21.5402 24.75 20.9688C24.75 20.3973 24.2902 19.9375 23.7188 19.9375ZM15.4688 19.9375H1.03125C0.459766 19.9375 0 20.3973 0 20.9688C0 21.5402 0.459766 22 1.03125 22H15.4688C16.0402 22 16.5 21.5402 16.5 20.9688C16.5 20.3973 16.0402 19.9375 15.4688 19.9375ZM9.625 16.8438C9.625 16.2723 9.16523 15.8125 8.59375 15.8125H4.125C3.55352 15.8125 3.09375 16.2723 3.09375 16.8438C3.09375 17.4152 3.55352 17.875 4.125 17.875H8.59375C9.16523 17.875 9.625 17.4152 9.625 16.8438Z" fill="#C0F037"/>
</g>
<defs>
<clipPath id="clip0_225_6293">
<rect width="27.5" height="22" fill="white"/>
</clipPath>
</defs>
</svg>
