<svg width="40" height="40" viewBox="0 0 40 40" fill="none" xmlns="http://www.w3.org/2000/svg">
<path d="M11.6673 10.8327H27.9173C31.4285 10.8327 33.184 10.8327 34.4451 11.6753C34.9911 12.0401 35.4598 12.5089 35.8246 13.0548C36.5608 14.1565 36.6538 15.6355 36.6656 18.3327M20.0006 10.8327L18.945 8.72123C18.0703 6.97198 17.271 5.21122 15.3327 4.48437C14.4838 4.16602 13.514 4.16602 11.5744 4.16602C8.54698 4.16602 7.03325 4.16602 5.89742 4.79988C5.08777 5.25172 4.41968 5.9198 3.96785 6.72945C3.33398 7.86528 3.33398 9.37902 3.33398 12.4065V17.4993C3.33398 25.356 3.33398 29.2845 5.77477 31.7252C7.94165 33.8922 11.281 34.1353 17.5006 34.1625H18.334" stroke="white" stroke-width="2.6" stroke-linecap="round"/>
<path d="M30.0007 33.6912V35.834M30.0007 33.6912C28.0727 33.6912 26.3742 32.7442 25.3778 31.3062M30.0007 33.6912C31.9287 33.6912 33.6272 32.7442 34.6235 31.3062M25.3778 31.3062L23.3347 32.6197M25.3778 31.3062C24.7887 30.4557 24.4452 29.4335 24.4452 28.334C24.4452 27.2345 24.7885 26.2125 25.3777 25.3622M34.6235 31.3062L36.6667 32.6197M34.6235 31.3062C35.2127 30.4557 35.5562 29.4335 35.5562 28.334C35.5562 27.2345 35.2128 26.2125 34.6237 25.3622M30.0007 22.9768C31.9288 22.9768 33.6275 23.924 34.6237 25.3622M30.0007 22.9768C28.0725 22.9768 26.3738 23.924 25.3777 25.3622M30.0007 22.9768V20.834M34.6237 25.3622L36.6673 24.0483M25.3777 25.3622L23.334 24.0483" stroke="white" stroke-width="2.6" stroke-linecap="round"/>
</svg>
