<svg width="47" height="48" viewBox="0 0 47 48" fill="none" xmlns="http://www.w3.org/2000/svg">
<path d="M23.1702 0.0815125C23.297 0.0648041 23.4239 0.0480881 23.5514 0.0341606C24.651 -0.0862923 25.7674 0.0968437 26.6385 0.82375C27.6329 1.65301 27.8621 2.68069 27.9665 3.89499C30.6906 4.55366 33.1294 5.52983 35.3615 7.23292C36.0175 6.62507 36.5522 6.19617 37.4436 5.99844C38.3365 5.8 39.2517 5.96152 40.0079 6.47816C41.3205 7.37565 41.6141 8.63172 41.8643 10.0883C41.612 10.8633 41.31 11.4997 40.8278 12.1611C42.0949 14.4721 43.0901 16.6806 43.725 19.2506C44.3081 19.3898 44.9668 19.5486 45.442 19.9301C46.2682 20.593 46.8843 21.5573 46.9845 22.6191C47.0798 23.6336 46.7315 24.5979 46.0608 25.359C45.3971 26.1144 44.6886 26.4312 43.6991 26.5231C42.9934 29.4022 41.9681 31.8426 40.5279 34.4251C41.0311 34.9501 41.4621 35.5259 41.6674 36.2305C41.947 37.1928 41.8622 38.201 41.3689 39.0804C40.8888 39.9375 40.0675 40.5648 39.1158 40.8183C37.8557 41.1532 36.761 40.8475 35.653 40.2376C33.1953 41.8975 30.8665 42.8737 28.0114 43.6674C28.0198 44.074 28.0205 44.4751 27.9266 44.8741C27.6736 45.9442 26.9707 47.0033 25.9979 47.5498C24.9376 48.1458 23.9558 48.0755 22.8232 47.7678C22.4301 47.577 22.0426 47.3361 21.7069 47.0562C20.6928 46.2095 20.4692 45.1644 20.3998 43.9097C17.5581 42.9273 14.9777 41.8355 12.3994 40.2849C11.6481 40.7911 10.8443 41.2305 9.9297 41.3335C8.87358 41.4526 7.84688 41.1783 7.02342 40.5022C6.25393 39.8693 5.76197 38.9307 5.69259 37.9399C5.60358 36.6657 6.13199 35.7773 6.94073 34.8484C5.7942 32.3335 4.61122 29.891 3.91181 27.2055C3.05682 27.0349 2.24458 26.8399 1.53605 26.3052C0.693677 25.6688 0.138633 24.7769 0.0222983 23.7255C-0.0891309 22.711 0.219939 21.684 0.88501 20.9042C1.70286 19.9454 2.83536 19.5082 4.0688 19.4107C4.80885 16.7628 5.77038 14.3948 7.02063 11.9509C6.32822 11.1655 5.83765 10.5444 5.73533 9.45543C5.64283 8.47995 5.97571 7.50656 6.61625 6.76503C7.28553 5.99077 8.27648 5.49502 9.30598 5.45115C10.7819 5.38779 11.6894 6.10009 12.7126 7.02961C15.2636 5.66492 17.6695 4.72773 20.4959 4.07463C20.5905 3.51274 20.6704 2.91605 20.8582 2.37643C21.2808 1.15935 22.0341 0.611378 23.1702 0.0815125Z" fill="#452B90"/>
<path d="M37.7416 7.28093C38.1593 7.28442 38.542 7.30739 38.9435 7.4355C39.5063 7.61444 40.0046 8.01341 40.2751 8.5377C40.5638 9.0982 40.5841 9.72554 40.3522 10.3111C40.0333 11.116 39.4825 11.4885 38.7186 11.8359C38.3766 11.8311 38.0248 11.8269 37.6912 11.7433C37.0443 11.5818 36.4353 11.0777 36.1347 10.4893C35.867 9.96645 35.8368 9.38228 36.0324 8.82944C36.326 8.00088 36.9841 7.63603 37.7416 7.28093Z" fill="#EE8ACB"/>
<path d="M37.4582 35.081C37.8963 35.0489 38.3658 34.996 38.7982 35.0977C39.4317 35.2467 40.0183 35.7014 40.3197 36.2737C40.5769 36.7646 40.6175 37.3369 40.4402 37.8605C40.1627 38.68 39.6098 39.0825 38.8683 39.4696C38.4065 39.5204 37.9544 39.5524 37.4982 39.4369C36.9221 39.2913 36.3755 38.9195 36.0748 38.4043C35.7833 37.9037 35.7483 37.3181 35.9031 36.7674C36.1421 35.9186 36.7343 35.5161 37.4582 35.081Z" fill="#EE8ACB"/>
<path d="M23.9019 1.20462C24.2208 1.23387 24.5537 1.25752 24.8613 1.35152C25.5495 1.56179 26.1193 2.09794 26.4157 2.74548C26.6764 3.31294 26.7003 3.99389 26.455 4.5711C26.1228 5.34883 25.5797 5.70184 24.8137 5.99915C24.4296 6.00193 24.0449 6.00471 23.6749 5.88913C23.0287 5.68721 22.4526 5.21236 22.1674 4.59895C21.9158 4.05864 21.9011 3.43198 22.1092 2.87497C22.4386 1.99349 23.0743 1.57295 23.9019 1.20462Z" fill="#EE8ACB"/>
<path d="M23.7622 41.8677C23.9941 41.8664 24.2331 41.865 24.4616 41.9033C25.1561 42.0195 25.9081 42.4714 26.2795 43.0723C26.6131 43.6126 26.6937 44.2748 26.4995 44.8798C26.2206 45.7522 25.5731 46.255 24.7917 46.6678C24.5022 46.6685 24.2065 46.6685 23.9233 46.601C23.1994 46.429 22.4993 45.9291 22.1496 45.2711C21.8405 44.6904 21.7964 44.0422 22.0361 43.4267C22.3479 42.6253 23.0165 42.2173 23.7622 41.8677Z" fill="#7F53AF"/>
<path d="M42.8357 20.4478C43.1511 20.4443 43.4839 20.4332 43.7937 20.5014C44.4672 20.649 45.1035 21.1259 45.4385 21.7226C45.7567 22.2901 45.8015 22.9397 45.6053 23.5559C45.3369 24.3998 44.7405 24.8197 43.9885 25.2193C43.6108 25.2381 43.0866 25.3126 42.7292 25.172C42.1209 24.9325 41.5918 24.4855 41.3009 23.8992C41.0038 23.2997 40.9785 22.6027 41.2091 21.9768C41.5056 21.174 42.0942 20.8036 42.8357 20.4478Z" fill="#EE8ACB"/>
<path d="M9.40648 35.2346C9.76109 35.2332 10.1339 35.266 10.4682 35.3941C11.127 35.6482 11.7682 36.2261 12.0128 36.8911C12.2286 37.4752 12.1894 38.1109 11.8894 38.6589C11.4613 39.4408 10.6427 39.7597 9.82416 39.9721C9.27472 39.9797 8.81218 39.9143 8.32651 39.6483C7.74204 39.328 7.2802 38.8281 7.1099 38.1778C6.95923 37.6006 7.05244 37.0046 7.35589 36.4907C7.80791 35.7262 8.58723 35.4491 9.40648 35.2346Z" fill="#7F53AF"/>
<path d="M8.74586 6.70412C9.07875 6.68671 9.42215 6.66165 9.75433 6.6895C10.4565 6.74799 11.2358 7.23538 11.6339 7.80563C11.9927 8.31948 12.128 8.94612 11.9871 9.55814C11.7783 10.4696 11.1342 10.9778 10.3724 11.445C9.987 11.4826 9.57422 11.539 9.18737 11.4966C8.54052 11.4248 7.87825 11.005 7.50262 10.4835C7.11437 9.94527 7.00154 9.27197 7.1368 8.62931C7.33723 7.67681 7.95534 7.19847 8.74586 6.70412Z" fill="#CB7CC5"/>
<path d="M3.3679 20.5821C3.66154 20.5954 3.9685 20.6086 4.25654 20.6685C4.88797 20.7994 5.47735 21.2582 5.82075 21.7909C6.23142 22.4307 6.31973 23.2036 6.12 23.9298C5.85229 24.9025 5.24257 25.3405 4.38758 25.7944C4.05119 25.7944 3.69378 25.8042 3.363 25.7366C2.73157 25.6085 2.08963 25.103 1.76375 24.5613C1.38251 23.9284 1.32434 23.1479 1.5507 22.4516C1.86256 21.4957 2.5066 21.0292 3.3679 20.5821Z" fill="#7F53AF"/>
<path d="M20.7964 5.3291C20.8237 5.36391 20.851 5.39802 20.8791 5.43214L21.0192 5.60064C21.3829 6.04486 21.7228 6.43478 22.2064 6.75645C23.0334 7.30651 24.0313 7.6059 25.0202 7.38031C26.2543 7.09832 26.9411 6.23912 27.5711 5.22814C30.1676 5.97106 32.4257 6.76968 34.6914 8.26527C34.65 8.78051 34.5968 9.31316 34.6395 9.8298C34.7208 10.8074 35.1658 11.81 35.9606 12.4164C37.105 13.2896 38.4092 13.1949 39.747 13.0194C40.8585 14.9996 41.7121 17.0028 42.3099 19.1919C40.8557 20.0497 40.1423 20.6812 39.6945 22.3474L38.4561 22.3599C37.8163 22.369 37.3944 22.4483 36.9424 22.919L36.9992 23.1759C37.8562 23.8102 38.6797 23.6759 39.6952 23.6557C40.3056 25.06 40.7793 25.6978 42.223 26.3495C41.8165 28.9216 40.6637 31.3989 39.3343 33.6186C38.6314 33.6924 37.8976 33.7161 37.2178 33.9194C36.175 34.2313 35.17 34.8434 34.6858 35.846C34.1644 36.9266 34.3459 38.0281 34.7061 39.1185C32.4355 40.683 30.0338 41.6369 27.4646 42.5901C26.7266 41.7984 25.7098 41.4057 25.0307 40.6398C24.7076 40.275 24.8169 39.6727 24.8344 39.2166C24.8548 38.7474 24.962 38.1284 24.7111 37.7217C24.2969 37.4948 23.7279 37.6208 23.2681 37.6626L23.3186 40.5583C23.1595 40.7122 23.2296 40.6663 23.0558 40.761C22.1139 41.2748 21.4103 41.8179 20.7256 42.6367C18.0835 41.7476 15.6293 40.4776 13.2094 39.1178C13.3635 38.5517 13.4883 37.9828 13.4147 37.3931C13.2794 36.302 12.6767 35.3321 11.7706 34.709C10.6248 33.9208 9.4509 33.9055 8.13898 34.1199C7.00436 31.802 5.68123 29.4591 5.32031 26.8752C5.66932 26.6155 6.03793 26.3523 6.33928 26.0383C7.11508 25.2299 7.56991 24.1068 7.48091 22.9872C7.37299 21.6323 6.54883 20.7028 5.5712 19.8519C5.87254 17.2785 7.01978 14.9752 8.26232 12.7353C8.63305 12.7841 9.00518 12.8293 9.37942 12.8439C10.3514 12.8808 11.3718 12.5856 12.0782 11.8991C13.079 10.9271 13.2808 9.67662 13.2787 8.36066C15.6117 6.92356 18.1683 6.06157 20.7964 5.3291Z" fill="white"/>
<path d="M10.3242 23.4673C10.3558 23.1115 10.3915 22.7564 10.4392 22.402C10.9199 18.8023 12.988 15.5354 15.8978 13.3596C18.7992 11.1893 22.5492 10.415 26.1121 10.9191C25.2824 11.7748 23.4652 11.403 22.3333 11.6029C20.6262 11.9051 19.4712 12.9766 17.9357 13.574C15.2825 14.9213 13.3608 17.6054 12.4379 20.3717C12.2143 21.0408 12.0349 21.7559 11.9123 22.4508C11.7272 22.5768 11.66 22.5636 11.606 22.7982C11.5345 23.1115 11.5675 23.3775 11.5913 23.695L11.9137 23.7333C11.9256 24.6914 12.379 26.2956 11.8247 27.0462C11.538 27.0859 11.2605 27.1074 10.9711 27.1172C10.6802 25.8966 10.4735 24.7137 10.3242 23.4673Z" fill="#F14C27"/>
<path d="M11.9138 22.4521C12.0365 21.7573 12.2159 21.0422 12.4394 20.3731C13.3624 17.6068 15.284 14.9227 17.9373 13.5754C17.9394 14.6058 18.1693 15.2562 18.6662 16.1488C19.0628 16.538 19.4245 16.8555 19.8989 17.1486C20.4294 17.1396 20.9095 17.1598 21.4337 17.244C20.8751 20.387 19.955 23.8217 21.9179 26.698C22.6776 27.8106 23.9202 28.6761 25.2727 28.8752C25.7087 28.9393 26.1389 28.91 26.5748 28.8731C26.9722 28.9588 27.3177 28.9839 27.6429 29.2394C27.3247 29.4845 26.989 29.6864 26.6456 29.8925C26.7269 30.148 26.6632 30.0422 26.8194 30.2197C28.5666 31.3811 29.9114 33.1441 31.6782 34.2505C29.5281 35.987 25.9021 37.4596 23.1058 37.1706C22.9692 37.1567 22.8332 37.1351 22.6973 37.1121C20.5626 36.9903 18.4826 36.3546 16.706 35.1584C16.1783 34.8033 15.6849 34.341 15.1299 34.0367C14.8152 33.864 14.6071 33.7401 14.3373 33.5054C13.1234 31.3588 11.8438 29.4483 10.9727 27.1185C11.2621 27.1088 11.5396 27.0872 11.8262 27.0475C12.3806 26.2969 11.9272 24.6927 11.9152 23.7347L11.5929 23.6964C11.569 23.3789 11.5361 23.1129 11.6076 22.7996C11.6616 22.5649 11.7288 22.5782 11.9138 22.4521Z" fill="#F37316"/>
<path d="M23.3439 30.6065C23.8808 30.5508 24.5423 30.4262 25.0399 30.6817C25.2684 30.7994 25.2333 30.8732 25.3062 31.0967C25.1646 31.621 24.8423 31.9093 24.4729 32.2943C24.0482 32.412 23.9046 32.4913 23.4883 32.2825C23.1841 32.1307 22.9564 31.77 22.9115 31.4421C22.8534 31.0201 23.0804 30.8822 23.3439 30.6065Z" fill="#E53022"/>
<path d="M18.6682 16.1485C19.0649 16.5377 19.4265 16.8552 19.9009 17.1483C19.8631 17.5716 19.9829 18.0284 19.6907 18.3918C19.4735 18.6613 19.0593 18.9036 18.7082 18.9252C18.3157 18.9496 18.1861 18.7964 17.9247 18.5562C17.5686 17.5835 18.2905 17.2513 18.5834 16.4075C18.6129 16.3211 18.6402 16.2341 18.6682 16.1485Z" fill="#E53022"/>
<path d="M19.5621 28.2453C20.0323 28.3609 20.3302 28.4521 20.7058 28.7606C20.7815 28.982 20.8628 29.0419 20.7528 29.2702C20.4486 29.9018 19.7212 30.103 19.1121 30.3411C18.9362 30.3954 18.7561 30.4024 18.5739 30.4219C18.4688 30.3328 18.3272 30.222 18.2466 30.1127C18.0105 29.7931 17.9922 29.6483 18.0322 29.2821C18.3903 28.7599 19.0112 28.5294 19.5621 28.2453Z" fill="#E53022"/>
<path d="M14.3398 33.5046C14.5242 32.9664 15.0252 32.0898 15.5593 31.8162C15.5985 31.796 15.6427 31.7862 15.684 31.7716L15.902 31.9171C15.909 31.9687 15.9153 32.0209 15.923 32.0724C16.0772 33.0952 16.5138 33.7191 17.3533 34.3276C19.0269 35.5412 21.1686 35.7585 22.3501 36.5634C22.5968 36.7312 22.6235 36.837 22.6998 37.1113C20.5652 36.9895 18.4852 36.3538 16.7086 35.1576C16.1809 34.8025 15.6875 34.3402 15.1325 34.0359C14.8178 33.8632 14.6097 33.7393 14.3398 33.5046Z" fill="#F14C27"/>
<path d="M11.9161 22.45C13.3436 22.489 17.3432 22.0072 18.3117 23.0244C18.5191 23.2423 18.6123 23.4805 18.5885 23.7868C18.5633 24.1092 18.461 24.4782 18.229 24.7143C17.9564 24.9921 17.7539 24.9788 17.3936 25.0039C16.943 24.8062 16.7545 24.5834 16.5814 24.1391C16.5267 24.0013 16.4833 23.8585 16.4363 23.7172C16.3753 23.7235 16.3144 23.7304 16.2527 23.736C14.8343 23.8641 13.3401 23.8091 11.9175 23.7325L11.5951 23.6942C11.5713 23.3767 11.5383 23.1107 11.6098 22.7974C11.6638 22.5628 11.7311 22.576 11.9161 22.45Z" fill="#E53022"/>
<path d="M26.1178 10.92C28.3205 11.046 30.7614 12.3216 32.3256 13.8284L33.182 14.6875C35.1366 16.6225 36.5767 19.5552 36.5921 22.3277C36.5928 22.3709 36.5921 22.4141 36.5914 22.4572L36.602 23.3714C37.061 26.1175 35.967 29.0321 34.3832 31.2463C33.7125 32.1842 32.943 33.0601 32.17 33.9158L31.6823 34.25C29.9155 33.1436 28.5706 31.3807 26.8235 30.2193C26.6672 30.0417 26.731 30.1476 26.6497 29.892C26.9931 29.6859 27.3288 29.484 27.647 29.2389C27.3218 28.9834 26.9763 28.9583 26.5789 28.8727C26.143 28.9096 25.7127 28.9388 25.2768 28.8748C23.9243 28.6756 22.6817 27.8102 21.922 26.6975C19.959 23.8212 20.8792 20.3865 21.4378 17.2436C20.9136 17.1593 20.4335 17.1391 19.903 17.1482C19.4285 16.855 19.0669 16.5375 18.6703 16.1483C18.1734 15.2557 17.9435 14.6054 17.9414 13.5749C19.4769 12.9775 20.6318 11.9059 22.339 11.6038C23.4708 11.4039 25.288 11.7757 26.1178 10.92Z" fill="#F3A815"/>
<path d="M27.0342 22.5014C28.173 22.4402 29.3147 22.3058 30.4542 22.2995L30.4465 22.9443C29.2929 22.9394 28.1016 23.025 26.9648 22.8092L27.0342 22.5014Z" fill="#F14C27"/>
<path d="M23.3805 14.7042C23.6398 14.7662 24.012 14.8762 24.2159 15.06C24.4962 15.3141 24.6175 15.5738 24.6013 15.9554C24.5838 16.3787 24.2607 16.6809 23.9832 16.9629C23.7674 16.9434 23.4324 16.9162 23.2375 16.8069C23.0441 16.6976 22.8598 16.5653 22.7995 16.3453C22.6306 15.7284 23.0638 15.193 23.3805 14.7042Z" fill="#E53022"/>
<path d="M28.2107 18.0493C27.8736 18.0688 27.9956 18.0479 27.6865 18.1148C27.6171 18.1301 27.5492 18.1468 27.4805 18.1621L27.1203 17.9121C27.0306 17.6886 26.9366 17.5661 26.9794 17.3182C27.0586 16.8503 27.4272 16.3093 27.8673 16.0984C28.2381 15.9208 28.3964 15.9925 28.744 16.1269C29.0055 16.6018 28.9319 16.8475 28.9059 17.3802C28.695 17.6448 28.524 17.8975 28.2107 18.0493Z" fill="#F14C27"/>
<path d="M26.5742 28.8722C27.9506 28.6487 27.6724 29.3575 28.4468 29.276C28.5856 28.9982 28.5694 29.1096 28.5722 28.8199C28.5765 28.3966 28.5099 28.0847 28.746 27.7073C29.3733 27.5221 30.0215 27.795 30.6011 28.061C29.9557 28.7322 29.3221 29.5099 28.4475 29.888C28.1518 29.7258 28.0824 29.6596 27.7334 29.7418C27.4075 29.8191 27.0998 30.0433 26.8188 30.2188C26.6625 30.0412 26.7263 30.147 26.645 29.8915C26.9884 29.6854 27.3241 29.4835 27.6423 29.2384C27.3171 28.9829 26.9716 28.9578 26.5742 28.8722Z" fill="#E53022"/>
<path d="M25.6751 21.0133L26.72 21.596L27.0333 22.5005L26.9639 22.8082C26.9344 22.8458 26.9064 22.8855 26.8749 22.9217C26.596 23.2357 26.2217 23.4941 25.7809 23.4502C25.4522 23.4175 25.1432 23.1452 24.9799 22.8758C24.7837 22.552 24.7542 22.1315 24.8488 21.7701C24.9547 21.3642 25.3359 21.1957 25.6751 21.0133Z" fill="#842394"/>
<path d="M30.5989 28.061C31.1441 29.3839 31.0145 31.2102 31.3264 32.6641C30.2927 31.8181 29.3248 30.8907 28.4453 29.888C29.3199 29.51 29.9535 28.7322 30.5989 28.061Z" fill="#F37316"/>
<path d="M26.8164 30.2193C27.0974 30.0438 27.4051 29.8196 27.731 29.7423C28.08 29.6602 28.1494 29.7263 28.4451 29.8886C29.3246 30.8912 30.2924 31.8186 31.3261 32.6646C31.6051 33.0803 31.898 33.4918 32.1629 33.9158L31.6751 34.25C29.9084 33.1436 28.5635 31.3807 26.8164 30.2193Z" fill="#E53022"/>
<path d="M32.323 13.8274L33.1794 14.6866C31.6586 16.4015 27.7299 19.9184 26.7207 21.5957L25.6758 21.0129C26.631 20.1475 27.3472 19.0125 28.2099 18.0489C28.5232 17.8971 28.6942 17.6444 28.9051 17.3798C30.0355 16.1752 31.3019 15.1378 32.323 13.8274Z" fill="#F14C27"/>
<path d="M33.1774 14.6871C35.132 16.622 36.5722 19.5547 36.5876 22.3273C36.5883 22.3704 36.5876 22.4136 36.5869 22.4568L36.5974 23.371C35.4502 23.5492 31.6448 24.0791 30.7393 23.5694C30.5277 23.4504 30.5129 23.16 30.4443 22.9435L30.452 22.2987C29.3125 22.305 28.1708 22.4394 27.032 22.5006L26.7188 21.5962C27.7279 19.9189 31.6567 16.402 33.1774 14.6871Z" fill="#F3A815"/>
<path d="M30.453 22.2987C30.5743 21.8461 30.6591 21.5203 31.0866 21.2501C31.3844 21.0621 31.6157 21.0628 31.9464 21.1199C32.2478 21.4987 32.2079 21.8837 32.1882 22.3544C33.3635 22.8355 35.2844 22.3725 36.5879 22.4568L36.5985 23.371C35.4512 23.5492 31.6458 24.0791 30.7404 23.5694C30.5287 23.4504 30.514 23.16 30.4453 22.9435L30.453 22.2987Z" fill="#F14C27"/>
</svg>
