<svg width="24" height="24" viewBox="0 0 24 24" fill="none" xmlns="http://www.w3.org/2000/svg">
<path d="M11.9994 15.4701C11.4738 15.4724 10.9552 15.3449 10.4861 15.098C10.017 14.8511 9.61068 14.4918 9.30062 14.0497L7.13937 15.3431C7.22162 15.4419 7.31898 15.5257 7.42755 15.5914L11.2734 17.901C11.4982 18.0206 11.747 18.0829 11.9994 18.0829C12.2518 18.0829 12.5005 18.0206 12.7253 17.901L16.5712 15.5914C16.6798 15.5257 16.7771 15.4419 16.8594 15.3431L14.7037 14.0266C14.3954 14.4738 13.9894 14.838 13.519 15.089C13.0488 15.3401 12.5278 15.4707 11.9994 15.4701Z" fill="white"/>
<path d="M8.61555 11.9846C8.61752 11.1635 8.93617 10.3718 9.5106 9.76099C10.085 9.15013 10.875 8.76291 11.7294 8.67335V6.18435C11.5997 6.2101 11.475 6.25477 11.3596 6.31681L7.35038 8.52435C7.13246 8.66361 6.95127 8.84918 6.82099 9.06654C6.69069 9.28388 6.61485 9.52707 6.59937 9.77711V14.1922C6.60116 14.3196 6.62254 14.446 6.66291 14.5675L8.91598 13.3257C8.71896 12.9036 8.61663 12.4468 8.61555 11.9846Z" fill="white"/>
<path d="M16.6879 8.5228L12.8896 6.31672C12.7803 6.25472 12.6622 6.21007 12.5394 6.18435V8.66618C13.0554 8.72511 13.5504 8.90526 13.9847 9.19223C14.419 9.47918 14.7803 9.86488 15.0396 10.3183C15.2989 10.7717 15.4489 11.2801 15.4776 11.8026C15.5063 12.3251 15.4128 12.8471 15.2047 13.3265L17.3392 14.5675C17.3774 14.4461 17.3977 14.3197 17.3994 14.1924V9.78027C17.3856 9.52945 17.3141 9.28532 17.1906 9.06708C17.0671 8.84885 16.895 8.66253 16.6879 8.5228Z" fill="white"/>
<path d="M19.4545 6.31175L13.1843 2.67976C12.8166 2.49476 12.4108 2.39844 11.9994 2.39844C11.5879 2.39844 11.1822 2.49476 10.8145 2.67976L4.54424 6.31175C4.20007 6.53663 3.91352 6.83953 3.70768 7.19598C3.50185 7.55242 3.38254 7.9524 3.35938 8.36361V15.6276C3.38211 16.0397 3.50121 16.4406 3.70703 16.798C3.91285 17.1555 4.19964 17.4593 4.54424 17.6851L10.8145 21.3172C11.1822 21.5022 11.5879 21.5984 11.9994 21.5984C12.4108 21.5984 12.8166 21.5022 13.1843 21.3172L19.4545 17.6851C19.7991 17.4593 20.0859 17.1555 20.2917 16.798C20.4975 16.4406 20.6166 16.0397 20.6394 15.6276V8.36361C20.6162 7.9524 20.4969 7.55242 20.2911 7.19598C20.0852 6.83953 19.7987 6.53663 19.4545 6.31175ZM18.6494 14.792C18.631 15.1086 18.5389 15.4164 18.3804 15.6908C18.2219 15.9653 18.0014 16.1986 17.7367 16.3722L12.9064 19.1686C12.6243 19.3115 12.3126 19.3859 11.9965 19.3859C11.6804 19.3859 11.3688 19.3115 11.0866 19.1686L6.26206 16.3722C5.99733 16.1986 5.77687 15.9653 5.61838 15.6908C5.45987 15.4164 5.36772 15.1086 5.3493 14.792V9.20484C5.36772 8.88825 5.45987 8.58043 5.61838 8.30603C5.77687 8.03161 5.99733 7.79826 6.26206 7.6247L11.0809 4.82826C11.3631 4.6854 11.6748 4.61095 11.9909 4.61095C12.307 4.61095 12.6186 4.6854 12.9008 4.82826L17.731 7.6247C17.9968 7.79764 18.2184 8.03072 18.3779 8.30517C18.5374 8.57959 18.6304 8.88777 18.6494 9.20484V14.792Z" fill="white"/>
<path d="M9.56937 11.9984C9.56937 12.453 9.71188 12.8975 9.97888 13.2755C10.2459 13.6535 10.6254 13.9481 11.0695 14.1221C11.5135 14.296 12.0021 14.3415 12.4735 14.2529C12.9448 14.1642 13.3778 13.9453 13.7176 13.6238C14.0575 13.3023 14.2889 12.8928 14.3827 12.4469C14.4764 12.001 14.4283 11.5388 14.2444 11.1188C14.0605 10.6988 13.7491 10.3398 13.3494 10.0872C12.9498 9.83465 12.48 9.69985 11.9994 9.69985C11.3549 9.69985 10.7368 9.94201 10.2811 10.3731C9.82539 10.8042 9.56937 11.3888 9.56937 11.9984Z" fill="white"/>
</svg>
