<svg width="31" height="30" viewBox="0 0 31 30" fill="none" xmlns="http://www.w3.org/2000/svg">
<g id="Frame 3">
<g id="Vector">
<path d="M15.5002 19.3396C14.8433 19.3425 14.195 19.1831 13.6086 18.8745C13.0222 18.5658 12.5143 18.1168 12.1267 17.5641L9.4252 19.1808C9.528 19.3043 9.6497 19.4091 9.78541 19.4911L14.5928 22.3781C14.8737 22.5277 15.1847 22.6056 15.5002 22.6056C15.8157 22.6056 16.1267 22.5277 16.4076 22.3781L21.215 19.4911C21.3507 19.4091 21.4724 19.3043 21.5752 19.1808L18.8806 17.5352C18.4953 18.0942 17.9877 18.5495 17.3998 18.8633C16.8119 19.177 16.1607 19.3403 15.5002 19.3396Z" fill="url(#paint0_linear_694_4122)"/>
<path d="M11.2704 14.9828C11.2729 13.9563 11.6712 12.9668 12.3892 12.2032C13.1073 11.4396 14.0947 10.9556 15.1627 10.8436V7.73239C15.0007 7.76457 14.8448 7.82042 14.7005 7.89796L9.68895 10.6574C9.41656 10.8315 9.19006 11.0634 9.02722 11.3351C8.86434 11.6068 8.76953 11.9108 8.7502 12.2233V17.7422C8.75242 17.9014 8.77915 18.0595 8.82961 18.2113L11.6459 16.6591C11.3997 16.1315 11.2718 15.5604 11.2704 14.9828Z" fill="url(#paint1_linear_694_4122)"/>
<path d="M21.3608 10.6555L16.613 7.89786C16.4764 7.82035 16.3287 7.76454 16.1752 7.73239V10.8347C16.8202 10.9083 17.439 11.1335 17.9819 11.4922C18.5247 11.8509 18.9764 12.3331 19.3005 12.8998C19.6246 13.4665 19.8122 14.1021 19.848 14.7552C19.8838 15.4083 19.767 16.0608 19.5069 16.6601L22.175 18.2113C22.2228 18.0596 22.2481 17.9016 22.2502 17.7425V12.2273C22.2329 11.9138 22.1436 11.6086 21.9892 11.3358C21.8349 11.063 21.6198 10.8301 21.3608 10.6555Z" fill="url(#paint2_linear_694_4122)"/>
<path d="M24.8191 7.89164L16.9813 3.35165C16.5217 3.12041 16.0145 3 15.5002 3C14.9859 3 14.4788 3.12041 14.0191 3.35165L6.18128 7.89164C5.75107 8.17274 5.39288 8.55137 5.13557 8.99692C4.87829 9.44248 4.72915 9.94246 4.7002 10.4565V19.5364C4.72861 20.0515 4.87748 20.5527 5.13476 20.9995C5.39204 21.4463 5.75053 21.8261 6.18128 22.1084L14.0191 26.6485C14.4788 26.8797 14.9859 27 15.5002 27C16.0145 27 16.5217 26.8797 16.9813 26.6485L24.8191 22.1084C25.2499 21.8261 25.6084 21.4463 25.8656 20.9995C26.1229 20.5527 26.2718 20.0515 26.3002 19.5364V10.4565C26.2712 9.94246 26.1221 9.44248 25.8648 8.99692C25.6075 8.55137 25.2493 8.17274 24.8191 7.89164ZM23.8128 18.492C23.7898 18.8877 23.6746 19.2725 23.4764 19.6155C23.2783 19.9585 23.0028 20.2502 22.6718 20.4672L16.634 23.9627C16.2813 24.1413 15.8918 24.2344 15.4967 24.2344C15.1015 24.2344 14.7119 24.1413 14.3593 23.9627L8.32856 20.4672C7.99764 20.2502 7.72207 19.9585 7.52396 19.6155C7.32581 19.2725 7.21062 18.8877 7.1876 18.492V11.508C7.21062 11.1123 7.32581 10.7275 7.52396 10.3845C7.72207 10.0415 7.99764 9.74978 8.32856 9.53283L14.3522 6.03728C14.7048 5.8587 15.0944 5.76565 15.4896 5.76565C15.8847 5.76565 16.2743 5.8587 16.627 6.03728L22.6647 9.53283C22.9969 9.749 23.2739 10.0403 23.4733 10.3834C23.6727 10.7264 23.789 11.1117 23.8128 11.508V18.492Z" fill="url(#paint3_linear_694_4122)"/>
<path d="M12.4627 15C12.4627 15.5683 12.6408 16.1238 12.9746 16.5963C13.3083 17.0688 13.7828 17.437 14.3378 17.6545C14.8928 17.872 15.5036 17.9289 16.0928 17.818C16.682 17.7072 17.2232 17.4335 17.648 17.0317C18.0728 16.6299 18.3621 16.1179 18.4793 15.5606C18.5965 15.0032 18.5364 14.4255 18.3065 13.9005C18.0766 13.3754 17.6873 12.9267 17.1878 12.611C16.6883 12.2953 16.1009 12.1268 15.5002 12.1268C14.6946 12.1268 13.922 12.4295 13.3524 12.9683C12.7827 13.5072 12.4627 14.238 12.4627 15Z" fill="url(#paint4_linear_694_4122)"/>
</g>
</g>
<defs>
<linearGradient id="paint0_linear_694_4122" x1="4.93843" y1="15" x2="26.3002" y2="15" gradientUnits="userSpaceOnUse">
<stop stop-color="#202CD3"/>
<stop offset="1" stop-color="#0778F9"/>
</linearGradient>
<linearGradient id="paint1_linear_694_4122" x1="4.93843" y1="15" x2="26.3002" y2="15" gradientUnits="userSpaceOnUse">
<stop stop-color="#202CD3"/>
<stop offset="1" stop-color="#0778F9"/>
</linearGradient>
<linearGradient id="paint2_linear_694_4122" x1="4.93843" y1="15" x2="26.3002" y2="15" gradientUnits="userSpaceOnUse">
<stop stop-color="#202CD3"/>
<stop offset="1" stop-color="#0778F9"/>
</linearGradient>
<linearGradient id="paint3_linear_694_4122" x1="4.93843" y1="15" x2="26.3002" y2="15" gradientUnits="userSpaceOnUse">
<stop stop-color="#202CD3"/>
<stop offset="1" stop-color="#0778F9"/>
</linearGradient>
<linearGradient id="paint4_linear_694_4122" x1="4.93843" y1="15" x2="26.3002" y2="15" gradientUnits="userSpaceOnUse">
<stop stop-color="#202CD3"/>
<stop offset="1" stop-color="#0778F9"/>
</linearGradient>
</defs>
</svg>
