<svg width="20" height="20" viewBox="0 0 20 20" fill="none" xmlns="http://www.w3.org/2000/svg">
<path d="M9.99883 12.893C9.56087 12.895 9.12869 12.7887 8.73775 12.583C8.34683 12.3772 8.00825 12.0778 7.74986 11.7094L5.94883 12.7872C6.01736 12.8695 6.0985 12.9394 6.18897 12.9941L9.39387 14.9188C9.58118 15.0185 9.7885 15.0704 9.99883 15.0704C10.2092 15.0704 10.4165 15.0185 10.6038 14.9188L13.8087 12.9941C13.8992 12.9394 13.9803 12.8695 14.0488 12.7872L12.2524 11.6901C11.9955 12.0628 11.6571 12.3663 11.2652 12.5755C10.8733 12.7847 10.4392 12.8936 9.99883 12.893Z" fill="#3A0CA3"/>
<path d="M7.17897 9.98851C7.18061 9.30422 7.44616 8.64451 7.92485 8.13546C8.40353 7.62641 9.06182 7.30373 9.77383 7.22909V5.15493C9.66581 5.17638 9.56188 5.21361 9.46571 5.26531L6.12467 7.10492C5.94307 7.22098 5.79207 7.37562 5.68351 7.55676C5.57492 7.73787 5.51172 7.94053 5.49883 8.14889V11.8281C5.50031 11.9343 5.51813 12.0397 5.55177 12.1408L7.42933 11.1061C7.26515 10.7543 7.17987 10.3736 7.17897 9.98851Z" fill="#3A0CA3"/>
<path d="M13.9059 7.10364L10.7407 5.26524C10.6496 5.21357 10.5512 5.17636 10.4488 5.15493V7.22312C10.8788 7.27223 11.2914 7.42235 11.6533 7.6615C12.0152 7.90062 12.3163 8.22204 12.5324 8.59986C12.7485 8.97769 12.8735 9.40138 12.8974 9.8368C12.9213 10.2722 12.8434 10.7072 12.6699 11.1067L14.4487 12.1408C14.4805 12.0397 14.4974 11.9344 14.4988 11.8283V8.15153C14.4873 7.94251 14.4278 7.73907 14.3249 7.55721C14.2219 7.37535 14.0786 7.22008 13.9059 7.10364Z" fill="#3A0CA3"/>
<path d="M16.2114 5.26109L10.9862 2.23443C10.6798 2.08027 10.3417 2 9.99883 2C9.65597 2 9.31789 2.08027 9.01144 2.23443L3.78622 5.26109C3.49941 5.4485 3.26062 5.70091 3.08908 5.99795C2.91756 6.29499 2.81813 6.6283 2.79883 6.97097V13.0243C2.81777 13.3677 2.91702 13.7018 3.08854 13.9997C3.26006 14.2975 3.49905 14.5508 3.78622 14.7389L9.01144 17.7656C9.31789 17.9198 9.65597 18 9.99883 18C10.3417 18 10.6798 17.9198 10.9862 17.7656L16.2114 14.7389C16.4986 14.5508 16.7376 14.2975 16.9091 13.9997C17.0806 13.7018 17.1799 13.3677 17.1988 13.0243V6.97097C17.1795 6.6283 17.0801 6.29499 16.9086 5.99795C16.737 5.70091 16.4982 5.4485 16.2114 5.26109ZM15.5406 12.328C15.5252 12.5918 15.4484 12.8483 15.3163 13.077C15.1842 13.3057 15.0005 13.5001 14.7799 13.6448L10.7547 15.9751C10.5196 16.0942 10.2599 16.1562 9.99647 16.1562C9.73306 16.1562 9.47332 16.0942 9.23822 15.9751L5.21774 13.6448C4.99712 13.5001 4.81341 13.3057 4.68134 13.077C4.54924 12.8483 4.47245 12.5918 4.4571 12.328V7.672C4.47245 7.40818 4.54924 7.15166 4.68134 6.923C4.81341 6.69431 4.99712 6.49985 5.21774 6.35522L9.23347 4.02486C9.46859 3.9058 9.72831 3.84376 9.99174 3.84376C10.2551 3.84376 10.5149 3.9058 10.75 4.02486L14.7752 6.35522C14.9967 6.49934 15.1813 6.69357 15.3143 6.92228C15.4472 7.15096 15.5247 7.40777 15.5406 7.672V12.328Z" fill="#3A0CA3"/>
<path d="M7.97383 10C7.97383 10.3788 8.09258 10.7492 8.31509 11.0642C8.53759 11.3792 8.85387 11.6247 9.22391 11.7697C9.59392 11.9147 10.0011 11.9526 10.3939 11.8787C10.7867 11.8048 11.1475 11.6224 11.4307 11.3545C11.7139 11.0866 11.9068 10.7453 11.9849 10.3737C12.063 10.0021 12.023 9.61699 11.8697 9.26697C11.7164 8.91696 11.4569 8.6178 11.1239 8.40732C10.7909 8.19685 10.3993 8.08451 9.99883 8.08451C9.46178 8.08451 8.94671 8.28631 8.56695 8.64554C8.18717 9.00478 7.97383 9.49199 7.97383 10Z" fill="#3A0CA3"/>
</svg>
