<svg width="43" height="40" viewBox="0 0 43 40" fill="none" xmlns="http://www.w3.org/2000/svg">
<path d="M23.304 21.3142C23.304 20.9594 23.0907 20.7461 22.8774 20.7461H22.1672V21.8822H22.9485C23.0907 21.8822 23.1618 21.8111 23.2322 21.7407C23.2322 21.6696 23.304 21.5281 23.304 21.3142ZM23.872 22.3088C23.6588 22.5931 23.304 22.7353 22.9485 22.7353H22.0954V24.0847H21.1719V20.0352H22.9478C23.1611 20.0352 23.3033 20.1062 23.5166 20.1773C24.2268 20.4617 24.5119 21.5281 23.872 22.3088Z" fill="#6D4BFB"/>
<path d="M19.6103 14.2812H16.9102V16.9814H19.6103V14.2812Z" fill="#6D4BFB"/>
<path d="M19.3969 20.8165C19.3258 20.8165 19.2547 20.8165 19.2547 20.8165H18.5444V21.9533H19.3258C19.4672 21.9533 19.5391 21.8815 19.6094 21.8111C19.7523 21.5274 19.7523 20.9587 19.3969 20.8165ZM19.3265 22.7353H18.4733V24.0847H17.5498V20.0352H19.3258C19.539 20.0352 19.6805 20.1062 19.8938 20.1773C20.036 20.2477 20.1782 20.3906 20.3197 20.461C21.1017 21.3135 20.4626 22.7353 19.3265 22.7353Z" fill="#6D4BFB"/>
<path d="M15.1331 14.2812H12.4336V16.9814H15.1331V14.2812Z" fill="#6D4BFB"/>
<path d="M15.7738 22.451L15.2761 20.9595L14.7792 22.451H15.7738ZM15.6316 19.9648L17.195 24.0144H16.2003L15.916 23.0902H14.6377L14.354 24.0144H13.3594L14.9221 19.9648H15.6316Z" fill="#6D4BFB"/>
<path d="M41.7767 39.9991H0.924217C0.427261 39.9991 0 39.5733 0 39.0763V31.9711C0 31.4742 0.426557 31.0469 0.924217 31.0469H15.1339C15.6316 31.0469 16.0581 31.4742 16.0581 31.9711V33.7471H25.8628V31.9711C25.8628 31.4742 26.2887 31.0469 26.787 31.0469H41.9202C42.4179 31.0469 42.8445 31.4742 42.8445 31.9711V39.0763C42.6298 39.6444 42.2039 39.9991 41.7767 39.9991ZM1.77664 38.2232H40.8539V32.8953H27.5677V34.6713C27.5677 35.1682 27.1418 35.5948 26.6434 35.5948H15.1332C14.6362 35.5948 14.2097 35.1689 14.2097 34.6713V32.8953H1.77591V38.2232H1.77664Z" fill="#6D4BFB"/>
<path d="M38.2233 32.8959C37.7264 32.8959 37.2998 32.4694 37.2998 31.9717V24.0141C37.2998 23.5171 37.7264 23.0898 38.2233 23.0898C38.721 23.0898 39.1476 23.5164 39.1476 24.0141V32.0421C39.0765 32.5412 38.6506 32.8959 38.2233 32.8959Z" fill="#6D4BFB"/>
<path d="M4.47695 32.8953C3.97929 32.8953 3.55273 32.4688 3.55273 31.9711V3.55173C3.55273 3.05477 3.97859 2.62891 4.47695 2.62891H18.6859C19.1836 2.62891 19.6101 3.05477 19.6101 3.55173C19.6101 4.04939 19.1843 4.47594 18.6859 4.47594H5.32865V32.0422C5.32935 32.5406 4.90281 32.8953 4.47695 32.8953Z" fill="#6D4BFB"/>
<path d="M9.02401 28.4184C8.52635 28.4184 8.1709 27.9926 8.1709 27.4949V8.02773C8.1709 7.53007 8.59815 7.10352 9.02401 7.10352H18.6865C19.1842 7.10352 19.6108 7.52937 19.6108 8.02773C19.6108 8.52469 19.1849 8.95055 18.6865 8.95055H9.87644V26.6418C18.1888 26.7136 29.6273 26.7136 32.754 26.6418V24.0134C32.754 23.5164 33.1799 23.0892 33.6783 23.0892C34.1752 23.0892 34.6018 23.5157 34.6018 24.0134V27.4949C34.6018 27.7082 34.5307 27.9208 34.3181 28.134C34.0337 28.4177 33.8204 28.4177 33.3939 28.4177C30.6937 28.4902 11.6524 28.4184 9.02401 28.4184Z" fill="#6D4BFB"/>
<path d="M31.9725 15.488C29.3441 15.488 27.1416 13.3565 27.1416 10.6571C27.1416 8.02869 29.273 5.82617 31.9725 5.82617C34.6727 5.82617 36.8034 7.95689 36.8034 10.6571C36.8041 13.3565 34.6016 15.488 31.9725 15.488ZM31.9725 7.6725C30.3387 7.6725 28.9176 9.02261 28.9176 10.7275C28.9176 12.3612 30.2676 13.7831 31.9725 13.7831C33.6062 13.7831 35.0274 12.433 35.0274 10.7275C35.0274 9.02261 33.6069 7.6725 31.9725 7.6725Z" fill="#6D4BFB"/>
<path d="M33.251 21.386H30.622C30.125 21.386 29.6984 20.9601 29.6984 20.4618V18.4725C29.0586 18.331 28.4905 18.0467 27.9929 17.7623L26.5717 19.1835C26.2162 19.5389 25.6475 19.5389 25.2927 19.1835L23.4457 17.3364C23.0909 16.981 23.0909 16.4122 23.4457 16.0574L24.8668 14.6363C24.5832 14.0675 24.2981 13.4995 24.1566 12.9307H22.1674C21.6697 12.9307 21.2432 12.5048 21.2432 12.0072V9.37879C21.2432 8.88113 21.6697 8.45458 22.1674 8.45458H24.1566C24.2981 7.81543 24.5824 7.24668 24.8668 6.74902L23.4457 5.32853C23.3042 5.18705 23.162 4.90268 23.162 4.6894C23.162 4.47611 23.2331 4.26354 23.4457 4.05026L25.2927 2.20251C25.6482 1.84775 26.217 1.84775 26.5717 2.20251L27.9929 3.62439C28.5616 3.34001 29.1297 3.05563 29.6984 2.91344V0.924217C29.6984 0.426557 30.125 0 30.622 0H33.251C33.748 0 34.1739 0.425853 34.1739 0.924217V2.91344C34.813 3.05563 35.3818 3.33931 35.8794 3.62439L37.2999 2.20251C37.6554 1.84775 38.2234 1.84775 38.5782 2.20251L40.4259 4.05026C40.5674 4.19174 40.7096 4.47611 40.7096 4.6894C40.7096 4.90268 40.6385 5.11525 40.4259 5.32853L39.0041 6.74902C39.2884 7.31777 39.5728 7.88582 39.715 8.45458H41.7042C42.2019 8.45458 42.6284 8.88043 42.6284 9.37879V12.0072C42.6284 12.5041 42.2026 12.9307 41.7042 12.9307H39.715C39.5728 13.5706 39.2891 14.1386 39.0041 14.6363L40.4259 16.0574C40.7807 16.4129 40.7807 16.9817 40.4259 17.3364L38.5782 19.1835C38.2227 19.5389 37.6547 19.5389 37.2999 19.1835L35.8794 17.7623C35.3107 18.046 34.7426 18.331 34.1739 18.4725V20.4618C34.1739 20.9594 33.748 21.386 33.251 21.386ZM31.5455 19.6093H32.3979V17.7623C32.3979 17.3364 32.6823 16.981 33.1089 16.9092C33.9613 16.7677 34.8137 16.4122 35.5247 15.9145C35.8801 15.7013 36.3771 15.7013 36.6615 15.9864L37.9397 17.2646L38.5085 16.6959L37.2295 15.4176C36.9458 15.1332 36.8747 14.6363 37.1584 14.2808C37.6561 13.5706 38.0108 12.7174 38.153 11.865C38.2241 11.4391 38.5789 11.154 39.0055 11.154H40.8532V10.3016H39.0055C38.5796 10.3016 38.2241 10.0179 38.153 9.59137C38.0108 8.73824 37.6561 7.88583 37.1584 7.17488C36.9451 6.82012 36.9451 6.32245 37.2295 6.03877L38.5085 4.75979L37.9397 4.19103L36.6615 5.47003C36.3771 5.75371 35.8801 5.82549 35.5247 5.54111C34.8137 5.04416 33.9613 4.68869 33.1089 4.5465C32.683 4.47541 32.3979 4.11994 32.3979 3.69408V1.84704H31.5455V3.69408C31.5455 4.11994 31.2611 4.47541 30.8345 4.5465C29.9821 4.68869 29.1297 5.04416 28.4187 5.54111C28.0633 5.7544 27.5663 5.75441 27.2826 5.47003L26.0037 4.19103L25.4349 4.75979L26.7139 6.03877C26.9976 6.32245 27.0687 6.82012 26.785 7.17488C26.2873 7.88583 25.9325 8.73824 25.7904 9.59137C25.7193 10.0172 25.3645 10.3016 24.9379 10.3016H23.0909V11.154H24.9379C25.3645 11.154 25.7193 11.4384 25.7904 11.865C25.9325 12.7174 26.2873 13.5706 26.785 14.2808C26.9983 14.6363 26.9983 15.1332 26.7139 15.4176L25.4349 16.6959L26.0037 17.2646L27.2826 15.9864C27.5663 15.702 28.0633 15.6309 28.4187 15.9145C29.1297 16.4122 29.9821 16.7677 30.8345 16.9092C31.2604 16.981 31.5455 17.3357 31.5455 17.7623V19.6093Z" fill="#6D4BFB"/>
</svg>
