<svg width="40" height="40" viewBox="0 0 40 40" fill="none" xmlns="http://www.w3.org/2000/svg">
<path d="M23.2274 12.5781L23.5601 12.9108L23.2943 13.2436L22.495 15.7727L19.9658 13.2436V12.5781H23.2274Z" fill="#6D4BFB"/>
<path d="M19.9653 12.5781V13.2436L18.3011 15.7727L16.6382 13.2436L16.3711 12.9108L16.7045 12.5781H19.9653Z" fill="#6D4BFB"/>
<path d="M22.4945 15.774L23.2938 13.2448L23.5596 12.9121L26.2214 15.774L25.8223 16.1067H22.3613L22.4945 15.774Z" fill="#6D4BFB"/>
<path d="M19.966 13.2441L22.4951 15.7733L22.3619 16.106H18.3687L18.3018 15.7733L19.966 13.2441Z" fill="#6D4BFB"/>
<path d="M18.3015 15.774L18.3685 16.1067H13.5103L13.4434 16.0404L16.3715 12.9121L16.6386 13.2448L18.3015 15.774Z" fill="#6D4BFB"/>
<path d="M19.966 28.5529C15.3073 28.5529 11.4473 24.7592 11.4473 20.0336C11.4473 19.5676 11.8463 19.168 12.3129 19.168C12.7788 19.168 13.1784 19.5676 13.1784 20.0336C13.1784 23.8273 16.2398 26.8887 20.0336 26.8887C23.8273 26.8887 26.8887 23.8273 26.8887 20.0336C26.8887 19.5676 27.2883 19.168 27.7543 19.168C28.2202 19.168 28.6199 19.5676 28.6199 20.0336C28.4853 24.6922 24.6246 28.5529 19.966 28.5529Z" fill="#6D4BFB"/>
<path d="M22.4947 40H17.3701C16.9042 40 16.5045 39.6003 16.5045 39.1344V34.4757C14.9072 34.0761 13.4432 33.4776 12.046 32.612L8.78448 35.9398C8.65127 36.073 8.38484 36.2056 8.18534 36.2056C7.98584 36.2056 7.78567 36.1393 7.58684 35.9398L4.05952 32.3456C3.9263 32.2124 3.79374 31.9459 3.79374 31.7464C3.79374 31.5469 3.86068 31.3468 4.05952 31.1479L7.38801 27.8864C6.52243 26.4893 5.92328 25.0245 5.52363 23.4272H0.864921C0.399651 23.4272 0 23.0276 0 22.5623V17.4377C0 16.9718 0.399651 16.5728 0.864921 16.5728H5.52363C5.92262 14.9755 6.52243 13.5107 7.38801 12.1136L4.05952 8.85207C3.9263 8.71885 3.79374 8.45241 3.79374 8.25292C3.79374 8.05342 3.86068 7.85326 4.05952 7.65443L7.65379 4.06018C7.78634 3.92696 8.05345 3.79374 8.25229 3.79374C8.45245 3.79374 8.65128 3.86068 8.85143 4.06018L12.1123 7.38799C13.5101 6.5224 14.9742 5.92391 16.5721 5.52426V0.865589C16.5721 0.399655 16.9711 0 17.4377 0H22.5617C23.0276 0 23.4273 0.399655 23.4273 0.865589V5.52426C25.0246 5.92325 26.4886 6.5224 27.8864 7.38799L31.1473 4.06018C31.2805 3.92696 31.5463 3.79374 31.7465 3.79374C31.946 3.79374 32.1461 3.86068 32.3449 4.06018L35.9392 7.65443C36.0724 7.78764 36.205 8.05408 36.205 8.25292C36.205 8.45241 36.138 8.65257 35.9392 8.85207L32.6114 12.1136C33.4763 13.5107 34.0754 14.9755 34.4744 16.5728H39.1331C39.5984 16.5728 39.9987 16.9718 39.9987 17.4377V22.5623C39.9987 23.0282 39.599 23.4272 39.1331 23.4272H34.4744C34.0748 25.0245 33.4756 26.4893 32.6114 27.8864L35.9392 31.1479C36.0724 31.2812 36.205 31.5469 36.205 31.7464C36.205 31.9459 36.138 32.1461 35.9392 32.3456L32.2787 35.9398C32.1461 36.073 31.879 36.2056 31.6802 36.2056C31.48 36.2056 31.2812 36.1393 31.081 35.9398L27.8202 32.612C26.4224 33.4769 24.9583 34.0761 23.3603 34.4757V39.1344C23.3596 39.6003 22.9606 40 22.4947 40ZM18.2357 38.3358H21.6967V33.8097C21.6967 33.41 21.9625 33.0779 22.3622 33.011C24.2253 32.6783 25.8895 31.9459 27.4205 30.8815C27.7532 30.682 28.2191 30.682 28.4849 30.9478L31.6795 34.1424L34.1424 31.6801L30.9478 28.5518C30.682 28.2854 30.6151 27.8201 30.8809 27.4867C31.9453 25.9557 32.6777 24.2259 33.0104 22.4291C33.0773 22.0294 33.41 21.7637 33.809 21.7637H38.2689V18.3026H33.7434C33.3444 18.3026 33.011 18.0362 32.9448 17.6372C32.612 15.7735 31.8797 14.1099 30.8146 12.5789C30.6151 12.2462 30.6151 11.7802 30.8815 11.5144L34.0761 8.31985L31.6132 5.85763L28.4849 9.05223C28.2191 9.31866 27.7532 9.38494 27.4205 9.11917C25.8895 8.05474 24.159 7.32238 22.3622 6.98966C21.9625 6.92272 21.6967 6.59 21.6967 6.19101V1.73184H18.2357V6.25795C18.2357 6.65761 17.9693 6.98966 17.5696 7.0566C15.7059 7.38931 14.0423 8.12103 12.5113 9.18611C12.1786 9.38561 11.7126 9.3856 11.4468 9.11917L8.25229 5.92457L5.79005 8.3868L8.98396 11.5814C9.25039 11.8478 9.31734 12.3138 9.05091 12.6465C7.98648 14.1775 7.25411 15.9073 6.92139 17.7048C6.85511 18.1045 6.52243 18.3702 6.12277 18.3702H1.66293V21.8313H6.18903C6.58803 21.8313 6.92075 22.097 6.98769 22.4967C7.32041 24.3604 8.05279 26.024 9.11721 27.555C9.31737 27.8877 9.31736 28.3537 9.05026 28.6201L5.85566 31.8147L8.31855 34.2769L11.5131 31.0823C11.7789 30.8159 12.2449 30.7496 12.5776 31.016C14.1086 32.0811 15.8391 32.8128 17.6359 33.1455C18.0355 33.2125 18.3013 33.5452 18.3013 33.9442L18.2357 38.3358Z" fill="#6D4BFB"/>
<path d="M19.9662 28.3513C19.7004 28.3513 19.3677 28.2181 19.2345 27.9516L12.7121 16.5041C12.5119 16.1714 12.5789 15.7724 12.8446 15.506L16.1062 11.9787C16.2394 11.7792 16.5052 11.7129 16.7053 11.7129H23.2277C23.4272 11.7129 23.693 11.7792 23.8262 11.9787L27.0877 15.506C27.3535 15.7724 27.3535 16.1714 27.2203 16.5041L20.6979 27.9516C20.5653 28.2187 20.232 28.3513 19.9662 28.3513ZM14.5089 16.1721L19.9662 25.8228L25.4235 16.1721L22.8281 13.3765H17.038L14.5089 16.1721Z" fill="#6D4BFB"/>
<path d="M25.8221 16.972H13.4427C12.9768 16.972 12.5771 16.573 12.5771 16.1071C12.5771 15.6412 12.9761 15.2422 13.4427 15.2422H25.7552C26.2211 15.2422 26.6207 15.6412 26.6207 16.1071C26.6207 16.573 26.2211 16.972 25.8221 16.972Z" fill="#6D4BFB"/>
<path d="M22.4939 16.6375C22.2938 16.6375 22.028 16.5712 21.8948 16.3717L20.098 14.5749L18.9666 16.2385C18.8334 16.5049 18.567 16.6381 18.2349 16.6381C17.9685 16.6381 17.702 16.5049 17.5688 16.2385L15.9052 13.6431C15.6388 13.2434 15.772 12.7112 16.171 12.5117C16.5707 12.2453 17.1022 12.3785 17.3024 12.7775L18.2342 14.2422L19.2324 12.7775C19.3656 12.578 19.5651 12.4447 19.8309 12.3778C20.0973 12.3778 20.3637 12.4447 20.497 12.6442L22.028 14.2415L22.427 12.977C22.5596 12.511 23.0255 12.3115 23.4921 12.4448C23.958 12.578 24.1575 13.0439 24.0249 13.5092L23.1594 16.1046C23.0924 16.371 22.8267 16.5705 22.5602 16.6368L22.4939 16.6375Z" fill="#6D4BFB"/>
<path d="M19.9655 27.6875C19.5658 27.6875 19.2338 27.3548 19.1668 26.9558L17.5026 15.9073C17.4363 15.4413 17.769 15.0417 18.1687 14.9754C18.6346 14.9085 19.0336 15.2418 19.0999 15.6408L20.0987 22.2965L21.6297 15.6408C21.7623 15.1749 22.1626 14.9091 22.6279 15.0417C23.0938 15.1749 23.3596 15.5746 23.227 16.0398L23.1601 16.3725L20.7641 27.0214C20.6979 27.4217 20.3651 27.6875 19.9655 27.6875Z" fill="#6D4BFB"/>
</svg>
