<svg width="40" height="32" viewBox="0 0 40 32" fill="none" xmlns="http://www.w3.org/2000/svg">
<path d="M2 9C2 13.9688 6.03125 18 11 18H18.7062C20.1187 19.2437 21.9688 20 24 20C26.0312 20 27.8813 19.2437 29.2938 18H31C34.8688 18 38 14.8688 38 11C38 7.13125 34.8688 4 31 4C30.3313 4 29.6875 4.09375 29.075 4.26875C27.7375 1.73125 25.0687 0 22 0C19.9625 0 18.1 0.7625 16.6812 2.01875C15.1312 0.75625 13.1562 0 11 0C6.03125 0 2 4.03125 2 9ZM38.5 23H17.5C16.6687 23 16 23.6687 16 24.5C16 25.3313 16.6687 26 17.5 26H38.5C39.3313 26 40 25.3313 40 24.5C40 23.6687 39.3313 23 38.5 23ZM34.5 29H27.5C26.6687 29 26 29.6687 26 30.5C26 31.3313 26.6687 32 27.5 32H34.5C35.3313 32 36 31.3313 36 30.5C36 29.6687 35.3313 29 34.5 29ZM22.5 29H1.5C0.66875 29 0 29.6687 0 30.5C0 31.3313 0.66875 32 1.5 32H22.5C23.3313 32 24 31.3313 24 30.5C24 29.6687 23.3313 29 22.5 29ZM14 24.5C14 23.6687 13.3313 23 12.5 23H6C5.16875 23 4.5 23.6687 4.5 24.5C4.5 25.3313 5.16875 26 6 26H12.5C13.3313 26 14 25.3313 14 24.5Z" fill="#3A0CA3"/>
</svg>
