<svg width="40" height="32" viewBox="0 0 40 32" fill="none" xmlns="http://www.w3.org/2000/svg">
<path d="M4.5 5.5C4.5 4.57174 4.86875 3.6815 5.52513 3.02513C6.1815 2.36875 7.07174 2 8 2C8.92826 2 9.8185 2.36875 10.4749 3.02513C11.1313 3.6815 11.5 4.57174 11.5 5.5C11.5 6.42826 11.1313 7.3185 10.4749 7.97487C9.8185 8.63125 8.92826 9 8 9C7.07174 9 6.1815 8.63125 5.52513 7.97487C4.86875 7.3185 4.5 6.42826 4.5 5.5ZM4 15.3562C3.375 16.0562 3 16.9875 3 18C3 19.0125 3.375 19.9437 4 20.6437V15.35V15.3562ZM13.025 12.275C11.1687 13.9187 10 16.325 10 19C10 21.1437 10.75 23.1125 12 24.6562V26C12 27.1063 11.1062 28 10 28H6C4.89375 28 4 27.1063 4 26V24.325C1.6375 23.2 0 20.7938 0 18C0 14.1313 3.13125 11 7 11H9C10.5 11 11.8875 11.4688 13.025 12.2688V12.275ZM28 26V24.6562C29.25 23.1125 30 21.1437 30 19C30 16.325 28.8313 13.9187 26.975 12.2688C28.1125 11.4688 29.5 11 31 11H33C36.8688 11 40 14.1313 40 18C40 20.7938 38.3625 23.2 36 24.325V26C36 27.1063 35.1063 28 34 28H30C28.8937 28 28 27.1063 28 26ZM28.5 5.5C28.5 4.57174 28.8687 3.6815 29.5251 3.02513C30.1815 2.36875 31.0717 2 32 2C32.9283 2 33.8185 2.36875 34.4749 3.02513C35.1312 3.6815 35.5 4.57174 35.5 5.5C35.5 6.42826 35.1312 7.3185 34.4749 7.97487C33.8185 8.63125 32.9283 9 32 9C31.0717 9 30.1815 8.63125 29.5251 7.97487C28.8687 7.3185 28.5 6.42826 28.5 5.5ZM36 15.3562V20.65C36.625 19.9438 37 19.0188 37 18.0063C37 16.9938 36.625 16.0625 36 15.3625V15.3562ZM20 2C21.0609 2 22.0783 2.42143 22.8284 3.17157C23.5786 3.92172 24 4.93913 24 6C24 7.06087 23.5786 8.07828 22.8284 8.82843C22.0783 9.57857 21.0609 10 20 10C18.9391 10 17.9217 9.57857 17.1716 8.82843C16.4214 8.07828 16 7.06087 16 6C16 4.93913 16.4214 3.92172 17.1716 3.17157C17.9217 2.42143 18.9391 2 20 2ZM15 19C15 20.0125 15.375 20.9375 16 21.6437V16.35C15.375 17.0563 15 17.9812 15 18.9937V19ZM24 16.3563V21.65C24.625 20.9438 25 20.0188 25 19.0063C25 17.9938 24.625 17.0625 24 16.3625V16.3563ZM28 19C28 21.7938 26.3625 24.2 24 25.325V28C24 29.1063 23.1063 30 22 30H18C16.8937 30 16 29.1063 16 28V25.325C13.6375 24.2 12 21.7938 12 19C12 15.1313 15.1313 12 19 12H21C24.8687 12 28 15.1313 28 19Z" fill="#3A0CA3"/>
</svg>
