<svg width="43" height="40" viewBox="0 0 43 40" fill="none" xmlns="http://www.w3.org/2000/svg">
<path d="M24.724 22.5224H26.3577V23.2326H24.724V24.0857H26.6414V24.9381H23.7998V20.8887H26.571V21.7411H24.724V22.5224Z" fill="#6D4BFB"/>
<path d="M23.091 23.7309C23.0192 23.9442 22.8777 24.1568 22.6651 24.3701C22.5229 24.5122 22.3097 24.6537 22.0253 24.7959C21.812 24.8677 21.5277 24.9381 21.1729 24.9381H19.6807V20.8887H21.1729C21.5277 20.8887 21.812 20.9598 22.0253 21.0302C22.2386 21.102 22.4511 21.3145 22.6651 21.456C22.8066 21.6693 22.9488 21.8818 23.0199 22.0958C23.0917 22.3091 23.1621 22.5928 23.1621 22.8771C23.2324 23.2333 23.2324 23.5177 23.091 23.7309ZM22.309 22.8785C22.309 22.6646 22.309 22.5231 22.2379 22.3809C22.1668 22.2387 22.0957 22.0972 22.0246 22.0254C21.9535 21.9544 21.8113 21.8122 21.6691 21.8122C21.5269 21.7411 21.3848 21.7411 21.2433 21.7411H20.6746V24.1568H21.2433C21.3855 24.1568 21.598 24.1568 21.6691 24.0857C21.8113 24.0139 21.8824 23.9435 22.0246 23.8013C22.1668 23.6591 22.1668 23.588 22.2379 23.4459C22.309 23.2333 22.309 23.0918 22.309 22.8785Z" fill="#6D4BFB"/>
<path d="M17.6905 21.8123C17.5483 21.7412 17.4062 21.7412 17.2647 21.7412C17.1225 21.7412 16.9803 21.7412 16.8381 21.8123C16.6959 21.8834 16.6248 21.9545 16.5545 22.0967C16.4834 22.2381 16.4123 22.3099 16.3412 22.4514C16.2701 22.5936 16.2701 22.7358 16.2701 22.8787C16.2701 23.0202 16.2701 23.1623 16.3412 23.3045C16.4123 23.446 16.4123 23.5882 16.5545 23.6593C16.6255 23.8015 16.7677 23.8733 16.8381 23.9436C16.9803 24.0147 17.1225 24.0147 17.2647 24.0147C17.4069 24.0147 17.549 23.9437 17.6905 23.8733C17.8327 23.8015 17.9038 23.7311 17.9749 23.5889C18.046 23.4467 18.1171 23.3756 18.1881 23.2334C18.2592 23.0919 18.2592 22.9498 18.2592 22.8076C18.2592 22.6654 18.2592 22.5239 18.1881 22.3817C18.1171 22.2396 18.046 22.0981 17.9749 22.0263C17.9038 21.9552 17.8327 21.8834 17.6905 21.8123ZM18.046 24.7967C17.8327 24.9389 17.549 24.9389 17.2647 24.9389C16.9803 24.9389 16.6959 24.8678 16.4834 24.7967C16.2701 24.6546 16.0575 24.5131 15.9146 24.2998C15.7725 24.1576 15.7013 24.0154 15.6303 23.8022C15.6303 23.7311 15.5592 23.66 15.5592 23.5889C15.4881 23.3756 15.417 23.092 15.417 22.8076C15.417 22.5239 15.4881 22.3106 15.5592 22.0263C15.5592 21.9552 15.6303 21.8841 15.6303 21.813C15.7013 21.6708 15.8435 21.4575 15.9857 21.3161C16.1279 21.1028 16.3405 20.9606 16.6248 20.8902C16.8381 20.748 17.1225 20.748 17.4061 20.748C17.6898 20.748 17.9749 20.8191 18.1874 20.8902C18.4007 21.0317 18.6133 21.1739 18.7562 21.3872C18.8984 21.6004 19.0398 21.813 19.1109 22.0263C19.182 22.2396 19.2531 22.5239 19.2531 22.8076C19.2531 23.092 19.182 23.3052 19.1109 23.5889C19.0398 23.8022 18.8977 24.0147 18.6851 24.228C18.4718 24.5124 18.3296 24.6546 18.046 24.7967Z" fill="#6D4BFB"/>
<path d="M14.0674 24.8682C13.9252 24.9393 13.7119 24.9393 13.5704 24.9393C13.286 24.9393 13.0017 24.8682 12.7891 24.7261C12.5758 24.5839 12.3633 24.4417 12.2204 24.2284C12.0782 24.0151 11.936 23.8026 11.7945 23.5893C11.7234 23.3056 11.6523 23.0924 11.6523 22.808C11.6523 22.5947 11.7234 22.311 11.7945 22.0978C11.8656 21.8838 12.0078 21.6712 12.1493 21.458C12.2915 21.2447 12.5048 21.1032 12.7891 21.0321C13.0024 20.8906 13.2868 20.8906 13.6415 20.8906C13.997 20.8906 14.2813 20.9617 14.5657 21.1039C14.8494 21.2454 14.9916 21.4587 15.1337 21.743L14.4235 22.24C14.3524 22.1689 14.3524 22.0267 14.2813 21.9563C14.2102 21.8845 14.1392 21.8141 14.0681 21.8141C13.997 21.743 13.9259 21.743 13.8548 21.743C13.7837 21.743 13.7126 21.743 13.6415 21.743C13.4993 21.743 13.3578 21.743 13.2157 21.8845C13.0735 21.9563 13.0024 22.0267 12.9313 22.1689C12.8602 22.311 12.7891 22.3821 12.718 22.5243C12.6469 22.6658 12.6469 22.808 12.6469 22.9502C12.6469 23.0924 12.6469 23.2338 12.718 23.376C12.7891 23.5182 12.8602 23.6597 12.9313 23.7315C13.0024 23.8736 13.1446 23.9447 13.2157 24.0151C13.3578 24.0869 13.5 24.0869 13.6415 24.0869C13.7126 24.0869 13.7837 24.0869 13.8548 24.0869C13.9259 24.0869 13.997 24.0151 14.0681 24.0151C14.1392 23.944 14.2102 23.9441 14.2813 23.8737C14.3524 23.8019 14.4235 23.7315 14.4235 23.5893L15.2048 24.0151C15.1337 24.1573 15.0626 24.2995 14.9205 24.441C14.7783 24.5832 14.7072 24.6543 14.4946 24.7254C14.351 24.7971 14.2088 24.8682 14.0674 24.8682Z" fill="#6D4BFB"/>
<path d="M41.7752 40.0007H0.923497C0.426558 40.0007 0 39.5735 0 39.0766V31.9716C0 31.4747 0.426558 31.0488 0.923497 31.0488H15.1327C15.6303 31.0488 16.0569 31.4747 16.0569 31.9716V33.7475H25.8605V31.9716C25.8605 31.4747 26.287 31.0488 26.7847 31.0488H41.9174C42.415 31.0488 42.8416 31.4747 42.8416 31.9716V39.0766C42.6276 39.6453 42.2017 40.0007 41.7752 40.0007ZM1.7766 38.2249H40.8517V32.8965H27.566V34.6724C27.566 35.1693 27.1401 35.5959 26.6418 35.5959H15.1327C14.635 35.5959 14.2092 35.17 14.2092 34.6724V32.8965H1.77589V38.2249H1.7766Z" fill="#6D4BFB"/>
<path d="M38.223 32.8961C37.7254 32.8961 37.2988 32.4703 37.2988 31.9719V24.0146C37.2988 23.5176 37.7247 23.0918 38.223 23.0918C38.72 23.0918 39.1458 23.5176 39.1458 24.0146V32.043C39.0747 32.5407 38.6489 32.8961 38.223 32.8961Z" fill="#6D4BFB"/>
<path d="M4.47623 32.8962C3.97929 32.8962 3.55273 32.4704 3.55273 31.972V3.55365C3.55273 3.05671 3.97859 2.63086 4.47623 2.63086H18.6854C19.1831 2.63086 19.6089 3.05671 19.6089 3.55365C19.6089 4.05129 19.1831 4.47783 18.6854 4.47783H5.32863V32.0431C5.32933 32.5408 4.90278 32.8962 4.47623 32.8962Z" fill="#6D4BFB"/>
<path d="M27.2098 28.4914C25.505 28.4914 23.5863 28.4914 21.3127 28.4914C15.2031 28.4914 9.09341 28.4196 9.02232 28.4196C8.52538 28.4196 8.16992 27.9938 8.16992 27.4961V8.02967C8.16992 7.53203 8.59646 7.10547 9.09411 7.10547H18.7563C19.2539 7.10547 19.6797 7.53133 19.6797 8.02967C19.6797 8.52661 19.2539 8.95386 18.7563 8.95386H9.87542V26.6437C18.1875 26.7155 29.6255 26.7155 32.7515 26.6437V24.0155C32.7515 23.5185 33.1773 23.0927 33.6756 23.0927C34.1726 23.0927 34.5984 23.5185 34.5984 24.0155V27.4968C34.5984 27.7101 34.5281 27.9227 34.3148 28.136C34.0311 28.4196 33.8178 28.4196 33.3906 28.4196C33.1773 28.4196 32.9647 28.4196 32.6093 28.4196C31.9702 28.4196 31.0467 28.4196 29.7677 28.4196C28.9857 28.4914 28.134 28.4914 27.2098 28.4914Z" fill="#6D4BFB"/>
<path d="M31.9713 15.4896C29.343 15.4896 27.1406 13.3589 27.1406 10.6588C27.1406 8.03057 29.272 5.82812 31.9713 5.82812C34.6714 5.82812 36.8028 7.95877 36.8028 10.6588C36.8028 13.3589 34.5996 15.4896 31.9713 15.4896ZM31.9713 7.67512C30.3376 7.67512 28.9165 9.02515 28.9165 10.7299C28.9165 12.3644 30.2665 13.7855 31.9713 13.7855C33.605 13.7855 35.0269 12.4354 35.0269 10.7299C35.0269 9.02445 33.605 7.67512 31.9713 7.67512Z" fill="#6D4BFB"/>
<path d="M33.2502 21.3859H30.6219C30.1243 21.3859 29.6977 20.9601 29.6977 20.4617V18.4726C29.0586 18.3311 28.4899 18.0467 27.9922 17.7624L26.5718 19.1828C26.2163 19.5382 25.6476 19.5382 25.2935 19.1828L23.4459 17.3358C23.3044 17.1936 23.1622 16.91 23.1622 16.696C23.1622 16.4827 23.2333 16.2702 23.4459 16.0569L24.8677 14.6357C24.5833 14.067 24.299 13.499 24.1568 12.931H22.1676C21.67 12.931 21.2441 12.5044 21.2441 12.0068V9.37848C21.2441 8.88084 21.67 8.45427 22.1676 8.45427H24.1568C24.299 7.81515 24.5826 7.24644 24.8677 6.74879L23.4459 5.32766C23.3044 5.18618 23.1622 4.90182 23.1622 4.68854C23.1622 4.47527 23.2333 4.26268 23.4459 4.04941L25.2935 2.20243C25.6483 1.84698 26.2163 1.84698 26.5718 2.20243L27.9922 3.62286C28.561 3.3385 29.129 3.05412 29.6977 2.91194V0.922788C29.6977 0.42585 30.1236 0 30.6219 0H33.2502C33.7471 0 34.1737 0.42585 34.1737 0.922788V2.91194C34.8135 3.05412 35.3815 3.33779 35.8792 3.62286L37.3003 2.20243C37.6558 1.84698 38.2245 1.84698 38.5786 2.20243L40.4262 4.04941C40.5677 4.19159 40.7099 4.47527 40.7099 4.68854C40.7099 4.90182 40.6388 5.11438 40.4262 5.32766L39.0051 6.74879C39.2888 7.31753 39.5731 7.88554 39.7153 8.45427H41.7045C42.2021 8.45427 42.6287 8.88013 42.6287 9.37848V12.0068C42.6287 12.5037 42.2028 12.931 41.7045 12.931H39.7153C39.5731 13.5701 39.2895 14.1388 39.0051 14.6357L40.4262 16.0569C40.5677 16.1991 40.7099 16.4827 40.7099 16.696C40.7099 16.91 40.6388 17.1232 40.4262 17.3358L38.5786 19.1828C38.2238 19.5382 37.6558 19.5382 37.3003 19.1828L35.8792 17.7624C35.3104 18.046 34.7424 18.3311 34.1737 18.4726V20.4617C34.1737 20.9601 33.7471 21.3859 33.2502 21.3859ZM31.5447 19.6101H32.3971V17.7631C32.3971 17.3372 32.6815 16.9818 33.108 16.9107C33.9604 16.7685 34.8135 16.413 35.5237 15.9161C35.8792 15.7021 36.3761 15.7021 36.6605 15.9865L37.9387 17.2647L38.5075 16.696L37.2292 15.4177C36.9448 15.1341 36.8738 14.6364 37.1574 14.281C37.6551 13.5708 38.0105 12.7177 38.152 11.8653C38.2238 11.4394 38.5778 11.1551 39.0051 11.1551H40.8521V10.302H39.0051C38.5786 10.302 38.2238 10.0183 38.152 9.59176C38.0105 8.73866 37.6551 7.88626 37.1574 7.17604C36.9441 6.82059 36.9441 6.32293 37.2292 6.03927L38.5075 4.76104L37.9387 4.1923L36.6605 5.47054C36.3761 5.75421 35.8792 5.82601 35.5237 5.54165C34.8135 5.04471 33.9604 4.68923 33.108 4.54705C32.6822 4.47596 32.3971 4.1212 32.3971 3.69465V1.84768H31.5447V3.69465C31.5447 4.1205 31.261 4.47596 30.8345 4.54705C29.9814 4.68923 29.129 5.04471 28.4181 5.54165C28.0633 5.75492 27.5657 5.75491 27.282 5.47054L26.0031 4.1923L25.4343 4.76104L26.7133 6.03927C26.9969 6.32293 27.0687 6.82059 26.7844 7.17604C26.2874 7.88626 25.932 8.73866 25.7898 9.59176C25.7187 10.0176 25.3639 10.302 24.9374 10.302H23.0904V11.1551H24.9374C25.3632 11.1551 25.7187 11.4387 25.7898 11.8653C25.932 12.7177 26.2874 13.5708 26.7844 14.281C26.9976 14.6364 26.9976 15.1341 26.7133 15.4177L25.4343 16.696L26.0031 17.2647L27.282 15.9865C27.5657 15.7021 28.0633 15.631 28.4181 15.9161C29.129 16.413 29.9814 16.7685 30.8345 16.9107C31.261 16.9818 31.5447 17.3365 31.5447 17.7631V19.6101Z" fill="#6D4BFB"/>
</svg>
