<svg width="41" height="40" viewBox="0 0 41 40" fill="none" xmlns="http://www.w3.org/2000/svg">
<path d="M39.2001 40H0.866586C0.399611 40 0 39.6004 0 39.1334V0.866586C0 0.399611 0.399611 0 0.866586 0H39.2001C39.6671 0 40.0674 0.399611 40.0674 0.866586V39.1174C40.0674 39.1725 40.0641 39.2278 40.0495 39.2809C39.9468 39.6524 39.5734 40 39.2001 40ZM1.66645 37.3336C1.66645 37.8859 2.11417 38.3336 2.66645 38.3336H37.3336C37.8858 38.3336 38.3336 37.8859 38.3336 37.3336V2.66645C38.3336 2.11417 37.8858 1.66645 37.3336 1.66645H2.66645C2.11417 1.66645 1.66645 2.11417 1.66645 2.66645V37.3336Z" fill="#6D4BFB"/>
<path d="M39.2001 8.33343H0.866586C0.399611 8.33343 0 7.93382 0 7.46619C0 6.99987 0.399611 6.59961 0.866586 6.59961H39.2001C39.6432 6.59961 40.0263 6.96001 40.0643 7.39526C40.0684 7.44234 40.0648 7.48985 40.0549 7.53604C39.9605 7.97293 39.5803 8.33343 39.2001 8.33343Z" fill="#6D4BFB"/>
<path d="M35.8676 4.99878H20.8676C20.4006 4.99878 20.001 4.59918 20.001 4.1322C20.001 3.66523 20.4006 3.26562 20.8676 3.26562H35.8676C36.3107 3.26562 36.6931 3.62543 36.7311 4.06118C36.7352 4.10832 36.7316 4.1559 36.7216 4.20215C36.6271 4.63839 36.2471 4.99878 35.8676 4.99878Z" fill="#6D4BFB"/>
<path d="M5.86669 4.99878H4.20024C3.73326 4.99878 3.33301 4.59918 3.33301 4.1322C3.33301 3.66523 3.7326 3.26562 4.20024 3.26562H5.86669C6.30957 3.26562 6.69243 3.62505 6.73077 4.06049C6.73496 4.10808 6.73132 4.15613 6.72113 4.20282C6.62594 4.63875 6.24662 4.99878 5.86669 4.99878Z" fill="#6D4BFB"/>
<path d="M13.3328 4.99878H11.6664C11.2001 4.99878 10.7998 4.59918 10.7998 4.1322C10.7998 3.66523 11.2001 3.26562 11.6664 3.26562H13.3328C13.7998 3.26562 14.2001 3.66523 14.2001 4.1322C14.1994 4.59918 13.7991 4.99878 13.3328 4.99878Z" fill="#6D4BFB"/>
<path d="M26.6678 27.8655C24.2015 27.8655 22.1348 25.8655 22.1348 23.3325C22.1348 20.7988 24.1347 18.7988 26.6678 18.7988C29.2015 18.7988 31.2015 20.7988 31.2015 23.3325C31.2008 25.8655 29.1341 27.8655 26.6678 27.8655ZM26.6678 20.532C25.1347 20.532 23.8012 21.7988 23.8012 23.3986C23.8012 24.9983 25.068 26.2651 26.6678 26.2651C28.2675 26.2651 29.5344 24.9983 29.5344 23.3986C29.5344 21.7988 28.2008 20.532 26.6678 20.532Z" fill="#6D4BFB"/>
<path d="M27.8674 33.3336H25.4011C24.9341 33.3336 24.5339 32.9334 24.5339 32.4664V31.4018C24.5339 30.9332 24.204 30.5344 23.7715 30.354C23.7179 30.3316 23.6648 30.3085 23.6125 30.2848C23.2015 30.0986 22.7127 30.1548 22.3937 30.4738L21.6006 31.2669C21.4671 31.4003 21.201 31.5331 21.0002 31.5331C20.8 31.5331 20.6006 31.4664 20.4004 31.2669L18.6673 29.5338C18.3337 29.2002 18.3337 28.6672 18.6673 28.3336L19.4909 27.5104C19.7954 27.2061 19.8651 26.7437 19.6855 26.3525C19.6527 26.2811 19.6209 26.2098 19.5904 26.1384C19.4099 25.7162 19.0121 25.401 18.5529 25.401H17.4678C17.0008 25.401 16.6006 25.0007 16.6006 24.5338V22.0674C16.6006 21.6011 17.0008 21.2009 17.4678 21.2009H18.5322C19.0009 21.2009 19.3997 20.8709 19.5803 20.4384C19.6029 20.3842 19.6263 20.3306 19.6503 20.2778C19.8364 19.8675 19.7799 19.3796 19.4614 19.061L18.6673 18.2669C18.3337 17.934 18.3337 17.4003 18.6673 17.0668L20.4004 15.3336C20.734 15.0001 21.267 15.0001 21.6006 15.3336L22.4245 16.1575C22.7288 16.4619 23.1911 16.5315 23.5822 16.3519C23.6536 16.3191 23.725 16.2873 23.7964 16.2568C24.2186 16.0763 24.5339 15.6784 24.5339 15.2193V14.1342C24.5339 13.6678 24.9341 13.2676 25.4005 13.2676H27.8674C28.3344 13.2676 28.734 13.6672 28.734 14.1342V15.1986C28.734 15.6673 29.064 16.066 29.4965 16.2465C29.5502 16.2689 29.6031 16.292 29.6554 16.3157C30.0664 16.5019 30.5551 16.4458 30.8742 16.1268L31.6673 15.3336C32.0002 15.0001 32.5339 15.0001 32.8668 15.3336L34.5999 17.0668C34.7333 17.2002 34.8668 17.467 34.8668 17.6672C34.8668 17.8673 34.8 18.0668 34.5999 18.2669L33.776 19.0908C33.4717 19.3952 33.4021 19.8574 33.5816 20.2486C33.6145 20.3201 33.6463 20.3916 33.6769 20.4631C33.8573 20.8855 34.2552 21.2009 34.7145 21.2009H35.7994C36.2657 21.2009 36.666 21.6005 36.666 22.0674V24.5338C36.666 25.0007 36.2664 25.401 35.7994 25.401H34.7348C34.2662 25.401 33.8675 25.7308 33.687 26.1633C33.6647 26.2169 33.6416 26.2699 33.6179 26.3222C33.4317 26.7333 33.4879 27.2222 33.8071 27.5412L34.5999 28.3336C34.9335 28.6672 34.9335 29.2002 34.5999 29.5338L32.8668 31.2669C32.5339 31.5998 32.0002 31.5998 31.6673 31.2669L30.8437 30.4433C30.5392 30.1388 30.0767 30.0693 29.6853 30.2489C29.6141 30.2816 29.5428 30.3134 29.4715 30.3438C29.0492 30.5243 28.734 30.9221 28.734 31.3813V32.4664C28.7347 32.9334 28.3344 33.3336 27.8674 33.3336ZM26.2677 31.2666C26.2677 31.4875 26.4467 31.6665 26.6676 31.6665C26.8885 31.6665 27.0676 31.4875 27.0676 31.2666V29.9334C27.0676 29.5338 27.3344 29.2002 27.7347 29.1335C28.5345 29.0001 29.3344 28.6665 30.0015 28.2002C30.3344 28.0001 30.8014 28.0001 31.0682 28.2669L32.0018 29.2005C32.149 29.3478 32.3877 29.3478 32.535 29.2007C32.6825 29.0534 32.6825 28.8145 32.5352 28.6672L31.6019 27.7339C31.335 27.467 31.2683 27.0007 31.5352 26.6672C32.0022 26.0007 32.3351 25.2002 32.4685 24.4003C32.5352 24.0001 32.8681 23.7339 33.2683 23.7339H34.6016C34.8224 23.7339 35.0015 23.5548 35.0015 23.334C35.0015 23.1131 34.8224 22.934 34.6016 22.934H33.2683C32.8681 22.934 32.5352 22.6672 32.4685 22.2676C32.3351 21.4671 32.0015 20.6678 31.5352 20.0007C31.3351 19.6672 31.335 19.2009 31.6019 18.934L32.5351 18.0014C32.6825 17.854 32.6825 17.6151 32.5351 17.4677C32.3878 17.3203 32.1489 17.3203 32.0015 17.4677L31.0682 18.401C30.8014 18.6672 30.3351 18.7339 30.0015 18.4677C29.3351 18.0007 28.5345 17.6678 27.7347 17.5344C27.3344 17.4677 27.0676 17.1348 27.0676 16.7345V15.4013C27.0676 15.1805 26.8885 15.0014 26.6676 15.0014C26.4467 15.0014 26.2677 15.1805 26.2677 15.4013V16.7345C26.2677 17.1342 26.0008 17.4677 25.6012 17.5344C24.8014 17.6678 24.0008 18.0014 23.3344 18.4677C23.0015 18.6678 22.5345 18.6678 22.2677 18.401L21.3344 17.4677C21.187 17.3203 20.9481 17.3203 20.8008 17.4677C20.6534 17.6151 20.6534 17.854 20.8008 18.0014L21.734 18.934C22.0008 19.2009 22.0676 19.6672 21.8007 20.0007C21.3337 20.6672 21.0008 21.4671 20.8674 22.2676C20.8007 22.6672 20.4678 22.934 20.0676 22.934H18.7343C18.5135 22.934 18.3344 23.1131 18.3344 23.334C18.3344 23.5548 18.5135 23.7339 18.7343 23.7339H20.0676C20.4678 23.7339 20.8007 24.0007 20.8674 24.4003C21.0008 25.2002 21.3337 26.0001 21.8007 26.6672C22.0008 27.0007 22.0008 27.467 21.734 27.7339L20.8007 28.6672C20.6534 28.8145 20.6534 29.0534 20.8009 29.2007C20.9482 29.3478 21.1869 29.3478 21.3341 29.2005L22.2677 28.2669C22.5345 28.0001 23.0008 27.934 23.3344 28.2002C24.0008 28.6672 24.8014 29.0001 25.6012 29.1335C26.0008 29.2002 26.2677 29.5331 26.2677 29.9334V31.2666Z" fill="#6D4BFB"/>
<path d="M5.86644 17.5325C5.66631 17.5325 5.46682 17.4657 5.26669 17.2656L3.60026 15.5992C3.26736 15.2656 3.26736 14.7319 3.60026 14.399L5.26669 12.7326C5.60024 12.399 6.13328 12.399 6.46683 12.7326C6.79972 13.0655 6.79972 13.5992 6.46683 13.9327L6.08403 14.293C5.67321 14.6796 5.66336 15.3294 6.06227 15.7283L6.40011 16.0661C6.73367 16.399 6.73367 16.9327 6.40011 17.2656C6.26669 17.399 6.06657 17.5325 5.86644 17.5325Z" fill="#6D4BFB"/>
<path d="M12.5337 17.5325C12.3335 17.5325 12.1341 17.4657 11.9333 17.2656C11.6004 16.9327 11.6004 16.399 11.9333 16.0661L12.2929 15.7065C12.6834 15.316 12.6834 14.6829 12.2929 14.2923L11.9333 13.9327C11.6004 13.5992 11.6004 13.0655 11.9333 12.7326C12.2668 12.399 12.8005 12.399 13.1334 12.7326L14.7998 14.399C15.1334 14.7319 15.1334 15.2656 14.7998 15.5992L13.2034 17.1956C13.1568 17.2422 13.1059 17.2843 13.0508 17.3203C12.8782 17.4332 12.7057 17.5325 12.5337 17.5325Z" fill="#6D4BFB"/>
<path d="M8.33304 18.3321C8.32616 18.3321 8.31857 18.3321 8.31042 18.332C8.14049 18.3305 7.9726 18.2525 7.83189 18.1572C7.53603 17.9568 7.42467 17.578 7.53251 17.1987L9.19896 12.1987C9.33238 11.7317 9.79935 11.5322 10.2657 11.6656C10.732 11.7991 10.9328 12.2654 10.7994 12.7324L9.13291 17.7324C8.99948 18.1326 8.66593 18.3321 8.33304 18.3321Z" fill="#6D4BFB"/>
<path d="M10.0001 35.0009C6.333 35.0009 3.33301 32.0009 3.33301 28.3344C3.33301 24.668 6.333 21.668 10.0001 21.668C13.6666 21.668 16.6665 24.668 16.6665 28.3344C16.6665 32.0009 13.6666 35.0009 10.0001 35.0009ZM10.0001 23.3344C7.26629 23.3344 5.00011 25.6013 5.00011 28.3344C5.00011 31.0676 7.26695 33.3344 10.0001 33.3344C12.7333 33.3344 15.0001 31.0676 15.0001 28.3344C15.0001 25.6013 12.7333 23.3344 10.0001 23.3344Z" fill="#6D4BFB"/>
<path d="M9.16647 31.05C8.96634 31.05 8.76687 30.9833 8.56608 30.7832C8.23318 30.4503 8.23318 29.9166 8.56608 29.5837L8.92568 29.2241C9.3162 28.8336 9.3162 28.2004 8.92568 27.8099L8.56608 27.4503C8.23318 27.1167 8.23318 26.5831 8.56608 26.2502C8.89963 25.9166 9.43331 25.9166 9.7662 26.2502L11.4327 27.9166C11.7662 28.2495 11.7662 28.7832 11.4327 29.1168L9.83622 30.7132C9.78965 30.7597 9.73875 30.8018 9.68365 30.8379C9.51104 30.9508 9.33851 31.05 9.16647 31.05Z" fill="#6D4BFB"/>
</svg>
