<svg width="40" height="40" viewBox="0 0 40 40" fill="none" xmlns="http://www.w3.org/2000/svg">
<rect width="40" height="40" rx="4" fill="url(#paint0_linear_323_29478)"/>
<path d="M23.3085 12.0675C23.6867 11.4073 23.4606 10.5641 22.8035 10.1841C22.1463 9.8041 21.307 10.0313 20.9288 10.6915L20.2691 11.843L19.6094 10.6915C19.2311 10.0313 18.3918 9.8041 17.7347 10.1841C17.0775 10.5641 16.8514 11.4073 17.2296 12.0675L18.685 14.608L14.0816 22.6436H10.3729C9.61466 22.6436 9 23.2611 9 24.0229C9 24.7846 9.61466 25.4022 10.3729 25.4022H23.2906C23.4038 25.1032 23.523 24.5902 23.3962 24.1187C23.2055 23.4099 22.5 22.6436 21.3178 22.6436H17.2496L23.3085 12.0675Z" fill="white"/>
<path d="M14.7955 26.9274C14.5613 26.666 14.0365 26.2484 13.5763 26.111C12.8746 25.9014 12.3427 26.0329 12.0743 26.1474L11.0516 27.9325C10.6734 28.5927 10.8995 29.4359 11.5567 29.8159C12.2138 30.1959 13.0532 29.9687 13.4314 29.3085L14.7955 26.9274Z" fill="white"/>
<path d="M28.0369 25.4022H30.1271C30.8853 25.4022 31.5 24.7846 31.5 24.0229C31.5 23.2611 30.8853 22.6436 30.1271 22.6436H26.4566L22.3219 15.4263C22.0148 15.7196 21.4258 16.4687 21.3369 17.3181C21.2225 18.41 21.3941 19.3295 21.9089 20.2299C23.6398 23.257 25.3733 26.2828 27.1067 29.3085C27.485 29.9687 28.3243 30.1959 28.9814 29.8159C29.6386 29.4359 29.8647 28.5927 29.4865 27.9325L28.0369 25.4022Z" fill="white"/>
<defs>
<linearGradient id="paint0_linear_323_29478" x1="20" y1="0" x2="20" y2="40" gradientUnits="userSpaceOnUse">
<stop stop-color="#2AC9FA"/>
<stop offset="1" stop-color="#1F65EB"/>
</linearGradient>
</defs>
</svg>
