<svg width="40" height="40" viewBox="0 0 40 40" fill="none" xmlns="http://www.w3.org/2000/svg">
<rect width="40" height="40" rx="4" fill="#00B0F2"/>
<path d="M37.9948 19.6678C37.9948 28.9271 31.1306 36.5818 22.2141 37.8244C21.3801 37.9405 20.5271 38.0007 19.6615 38.0007C18.6617 38.0007 17.681 37.9204 16.7245 37.7663C7.99594 36.3612 1.32812 28.792 1.32812 19.6668C1.32812 9.54183 9.53622 1.33398 19.6615 1.33398C29.7867 1.33398 37.9948 9.54183 37.9948 19.6668V19.6678Z" fill="#00B0F2"/>
<path d="M7.83035 18.8437C7.88208 18.8173 7.9338 18.7931 7.98553 18.7698C8.86704 18.3613 9.76016 17.9791 10.6522 17.597C10.7008 17.597 10.7821 17.5421 10.8264 17.522C10.895 17.4925 10.9637 17.4629 11.0334 17.4334C11.1653 17.3764 11.2983 17.3204 11.4303 17.2634C11.6953 17.1504 11.9592 17.0364 12.2242 16.9235C12.7531 16.6975 13.283 16.4706 13.812 16.2436C14.8708 15.7907 15.9297 15.3378 16.9886 14.885C18.0474 14.4321 19.1063 13.9792 20.1652 13.5263C21.2241 13.0734 22.2829 12.6205 23.3418 12.1677C24.4007 11.7148 25.4595 11.2619 26.5184 10.809C26.7538 10.7087 27.0093 10.5567 27.2606 10.5124C27.4728 10.4754 27.6797 10.4015 27.8919 10.3614C28.2962 10.2843 28.7428 10.2527 29.1302 10.4205C29.2643 10.4786 29.3867 10.5609 29.4913 10.6633C29.9822 11.15 29.9135 11.9481 29.8101 12.6322C29.0859 17.3996 28.3616 22.1659 27.6364 26.9334C27.5371 27.5868 27.4031 28.3047 26.8858 28.7174C26.4487 29.0669 25.8269 29.107 25.2885 28.9581C24.749 28.8093 24.2729 28.4957 23.8063 28.1864C21.8701 26.9048 19.934 25.6222 17.9978 24.3406C17.5375 24.0355 17.0255 23.6386 17.0308 23.0865C17.034 22.7539 17.2324 22.4573 17.4351 22.1934C19.1169 19.9997 21.546 18.4911 23.3513 16.3977C23.6057 16.1032 23.8063 15.569 23.4569 15.3991C23.2489 15.2977 23.0092 15.435 22.8203 15.5669C20.4333 17.2254 18.0464 18.8838 15.6594 20.5413C14.8803 21.0818 14.0643 21.6392 13.1257 21.7722C12.2865 21.8915 11.4408 21.6582 10.628 21.4185C9.94702 21.2179 9.26716 21.0131 8.5894 20.8009C8.2294 20.689 7.85779 20.5687 7.57909 20.3143C7.30038 20.0609 7.14097 19.6344 7.30883 19.2966C7.41334 19.0844 7.61815 18.9504 7.83245 18.8416L7.83035 18.8437Z" fill="#FEFFFC"/>
</svg>
