<svg width="40" height="40" viewBox="0 0 40 40" fill="none" xmlns="http://www.w3.org/2000/svg">
<rect width="40" height="40" rx="4" fill="#FF4500"/>
<path d="M38.3278 20.0038C38.3278 29.2631 31.4636 36.9178 22.5472 38.1603C21.7132 38.2764 20.8601 38.3366 19.9945 38.3366C18.9947 38.3366 18.014 38.2564 17.0575 38.1022C8.32895 36.6971 1.66113 29.128 1.66113 20.0027C1.66113 9.87777 9.86922 1.66992 19.9945 1.66992C30.1197 1.66992 38.3278 9.87777 38.3278 20.0027V20.0038Z" fill="#FF4500"/>
<path d="M31.4881 19.5381C31.1799 18.1414 29.9035 17.2346 28.6367 17.5144C28.206 17.6094 27.8333 17.8321 27.5387 18.1361C25.8348 16.8978 23.507 16.0807 20.9079 15.9256L22.1526 10.7454L25.8433 11.629C25.9045 12.6382 26.7406 13.4373 27.7647 13.4373C28.7887 13.4373 29.6924 12.5749 29.6924 11.5097C29.6924 10.4445 28.8299 9.58203 27.7647 9.58203C26.993 9.58203 26.33 10.036 26.0217 10.6905L22.0174 9.73194C21.7028 9.65699 21.3861 9.85018 21.3101 10.1658L19.9324 15.8981C17.0335 15.9129 14.4174 16.7522 12.5393 18.095C12.4475 18.0095 12.3482 17.9292 12.2395 17.8606C11.1458 17.1628 9.63509 17.5745 8.86548 18.7801C8.09588 19.9857 8.35769 21.5291 9.4514 22.2279C9.5158 22.2691 9.5823 22.306 9.64987 22.3398C9.60659 22.609 9.58125 22.8824 9.58125 23.1611C9.58125 27.1727 14.2506 30.4242 20.0095 30.4242C25.7683 30.4242 30.4377 27.1727 30.4377 23.1611C30.4377 22.8803 30.4124 22.6038 30.368 22.3314C31.2559 21.8152 31.7404 20.6909 31.486 19.5391L31.4881 19.5381ZM14.6666 21.4784C14.6666 20.5642 15.4077 19.8242 16.3209 19.8242C17.234 19.8242 17.9751 20.5652 17.9751 21.4784C17.9751 22.3916 17.234 23.1326 16.3209 23.1326C15.4077 23.1326 14.6666 22.3916 14.6666 21.4784ZM23.8586 26.7029C23.3508 27.1653 21.9467 28.241 19.8902 28.26C19.8712 28.26 19.8532 28.26 19.8342 28.26C17.7513 28.26 16.3282 27.1727 15.8099 26.7029C15.6441 26.552 15.6315 26.2954 15.7824 26.1286C15.9334 25.9629 16.1899 25.9502 16.3567 26.1012C16.8086 26.5118 18.0543 27.4651 19.8828 27.4472C21.6595 27.4303 22.8725 26.5002 23.3128 26.1012C23.4785 25.9502 23.7361 25.9629 23.8871 26.1286C24.038 26.2944 24.0254 26.552 23.8596 26.7029H23.8586ZM23.659 23.1326C22.7448 23.1326 22.0048 22.3916 22.0048 21.4784C22.0048 20.5652 22.7459 19.8242 23.659 19.8242C24.5722 19.8242 25.3133 20.5652 25.3133 21.4784C25.3133 22.3916 24.5722 23.1326 23.659 23.1326Z" fill="white"/>
</svg>
