<svg width="40" height="40" viewBox="0 0 40 40" fill="none" xmlns="http://www.w3.org/2000/svg">
<rect width="40" height="40" rx="4" fill="#007EBB"/>
<path d="M37.9948 19.6678C37.9948 28.9271 31.1306 36.5818 22.2141 37.8244C21.3801 37.9405 20.5271 38.0007 19.6615 38.0007C18.6617 38.0007 17.681 37.9204 16.7245 37.7663C7.99594 36.3612 1.32812 28.792 1.32812 19.6668C1.32812 9.54183 9.53621 1.33398 19.6615 1.33398C29.7867 1.33398 37.9948 9.54183 37.9948 19.6668V19.6678Z" fill="#007EBB"/>
<path d="M10.2463 13.4781C9.75755 13.0242 9.51367 12.4626 9.51367 11.7943C9.51367 11.1261 9.75755 10.5391 10.2463 10.0852C10.7351 9.63127 11.3643 9.4043 12.136 9.4043C12.9078 9.4043 13.5116 9.63127 13.9994 10.0852C14.4881 10.5391 14.732 11.1092 14.732 11.7943C14.732 12.4795 14.4881 13.0242 13.9994 13.4781C13.5106 13.9321 12.8898 14.159 12.136 14.159C11.3823 14.159 10.7351 13.9321 10.2463 13.4781ZM14.3203 16.0814V29.992H9.9254V16.0814H14.3203Z" fill="#FEFFFC"/>
<path d="M28.9494 17.4547C29.9069 18.4945 30.3862 19.9228 30.3862 21.7407V29.7469H26.2109V22.3055C26.2109 21.3891 25.9734 20.6766 25.4983 20.1688C25.0232 19.661 24.3845 19.4077 23.5822 19.4077C22.7799 19.4077 22.1412 19.6621 21.6661 20.1688C21.191 20.6766 20.9535 21.3891 20.9535 22.3055V29.7469H16.7539V16.0432H20.9535V17.8611C21.3789 17.2551 21.9522 16.7769 22.6732 16.4243C23.3932 16.0728 24.204 15.8965 25.1045 15.8965C26.7092 15.8965 27.9908 16.4169 28.9483 17.4557L28.9494 17.4547Z" fill="#FEFFFC"/>
</svg>
