<svg width="40" height="40" viewBox="0 0 40 40" fill="none" xmlns="http://www.w3.org/2000/svg">
<rect width="40" height="40" rx="4" fill="#1877F7"/>
<path d="M37.9948 20.3309C37.9948 29.5903 31.1308 37.245 22.2146 38.4875C21.3806 38.6036 20.5276 38.6638 19.662 38.6638C18.6623 38.6638 17.6815 38.5836 16.7251 38.4295C7.9947 37.0243 1.32812 29.4562 1.32812 20.3309C1.32812 10.2059 9.53598 1.99805 19.6609 1.99805C29.7859 1.99805 37.9937 10.2059 37.9937 20.3309H37.9948Z" fill="#1877F7"/>
<path d="M21.6495 13.0377V16.6091H26.0676L25.368 21.4208H21.6495V32.5058C20.9037 32.6096 20.1409 32.6634 19.3668 32.6634C18.4728 32.6634 17.5958 32.5917 16.7405 32.4538V21.4208H12.666V16.6091H16.7405V12.24C16.7405 9.52875 18.9382 7.33008 21.6504 7.33008V7.33291C21.658 7.33291 21.6655 7.33008 21.6731 7.33008H26.0685V11.4905H23.1967C22.3424 11.4905 21.6504 12.1824 21.6504 13.0368L21.6495 13.0377Z" fill="white"/>
</svg>
