<svg width="40" height="40" viewBox="0 0 40 40" fill="none" xmlns="http://www.w3.org/2000/svg">
<rect width="40" height="40" rx="4" fill="#1877F7"/>
<path d="M37.9948 19.6678C37.9948 28.9272 31.1306 36.5818 22.2141 37.8244C21.3801 37.9405 20.5271 38.0007 19.6615 38.0007C18.6617 38.0007 17.681 37.9204 16.7245 37.7663C7.99595 36.3612 1.32812 28.792 1.32812 19.6668C1.32812 9.54184 9.53621 1.33398 19.6615 1.33398C29.7867 1.33398 37.9948 9.54184 37.9948 19.6668V19.6678Z" fill="#1877F7"/>
<path d="M18.2226 20.3621C17.9007 19.9578 17.5312 19.6485 17.1173 19.4384C17.4837 19.2167 17.7972 18.9423 18.0569 18.6182C18.495 18.0703 18.7178 17.382 18.7178 16.5723C18.7178 15.8977 18.5394 15.278 18.1868 14.7291C17.8352 14.1822 17.3126 13.742 16.6338 13.4222C15.9677 13.1086 15.1664 12.9492 14.2511 12.9492H9.05176V26.3753H14.4897C15.3807 26.3753 16.1756 26.2127 16.8534 25.8939C17.5438 25.5687 18.0822 25.1137 18.4517 24.5426C18.8223 23.9694 19.0102 23.318 19.0102 22.6065C19.0102 21.7736 18.7452 21.0177 18.2216 20.36L18.2226 20.3621ZM15.4609 17.9162C15.1389 18.1769 14.6713 18.3089 14.0685 18.3089H11.8198V15.334H14.0685C14.6681 15.334 15.1347 15.4712 15.4556 15.7404C15.7629 15.9991 15.9128 16.3559 15.9128 16.8299C15.9128 17.3039 15.765 17.6691 15.4599 17.9162H15.4609ZM11.8198 20.6905H14.2342C14.8666 20.6905 15.3522 20.8435 15.7206 21.1592C16.0732 21.4611 16.2443 21.8633 16.2443 22.389C16.2443 22.9148 16.0849 23.2853 15.7586 23.5619C15.4198 23.8501 14.932 23.9958 14.3081 23.9958H11.8209V20.6905H11.8198Z" fill="white"/>
<path d="M29.6359 18.1145C29.2168 17.3576 28.6245 16.7612 27.8729 16.3431C27.1223 15.9251 26.2556 15.7129 25.298 15.7129C24.3405 15.7129 23.4094 15.9314 22.6408 16.3611C21.8712 16.7918 21.2663 17.4136 20.8408 18.2064C20.4165 18.9992 20.2021 19.9303 20.2021 20.9733C20.2021 22.0163 20.4239 22.9474 20.8599 23.7402C21.2969 24.5341 21.9082 25.158 22.6767 25.594C23.4453 26.031 24.3268 26.2517 25.298 26.2517C26.4899 26.2517 27.5034 25.9487 28.3099 25.3522C29.1154 24.7547 29.6802 23.9788 29.9885 23.0435L30.0107 22.977H27.6522L27.6385 23.0055C27.1846 23.9239 26.3981 24.3895 25.2991 24.3895C24.5326 24.3895 23.8781 24.1467 23.3513 23.6684C22.8372 23.2018 22.5426 22.5779 22.473 21.8115H30.1849L30.1912 21.7682C30.2408 21.46 30.2651 21.1116 30.2651 20.7326C30.2651 19.7498 30.0529 18.8683 29.6349 18.1124L29.6359 18.1145ZM23.3872 18.2507C23.8887 17.8031 24.501 17.5762 25.2062 17.5762C25.9842 17.5762 26.6462 17.8063 27.173 18.2613C27.685 18.7036 27.9563 19.2969 27.9795 20.0253H22.4941C22.5975 19.2853 22.8974 18.6888 23.3872 18.2518V18.2507Z" fill="white"/>
<path d="M27.8011 13.2598H22.6641V14.477H27.8011V13.2598Z" fill="white"/>
</svg>
