<svg width="51" height="48" viewBox="0 0 51 48" fill="none" xmlns="http://www.w3.org/2000/svg">
<path d="M35.772 46.7282C36.2327 47.03 36.6772 47.3275 37.1011 47.6786L37.0637 47.8859L36.9118 47.9727C36.027 47.8577 35.4243 47.6335 34.6943 47.1146L35.772 46.7282Z" fill="#F14C27"/>
<path d="M36.3681 39.6193C36.585 37.9575 36.0254 33.7651 36.5504 32.5566L36.9716 32.4987C37.0535 34.6965 36.6578 37.8348 37.1002 39.8746C37.0458 40.2511 37.0811 40.598 36.7539 40.8518C36.6755 40.9132 36.532 40.9696 36.4388 41.0098C36.1243 40.6163 36.0494 40.5388 35.9717 40.0205C36.1865 39.8929 36.2317 39.8203 36.3681 39.6193Z" fill="#452B90"/>
<path d="M34.6915 47.1133C34.5063 46.8877 34.3184 46.6571 34.1629 46.4089C33.5135 45.3724 33.3256 44.018 33.6527 42.8433C34.0124 41.5537 34.8222 40.6625 35.974 40.0195C36.0518 40.5377 36.1267 40.6152 36.4411 41.0087C35.69 41.4331 35.148 42.3159 34.9197 43.1289C34.7247 43.822 34.6929 44.6864 35.0709 45.328C35.0978 45.3724 35.1317 45.4119 35.1621 45.4535L35.7691 46.7269L34.6915 47.1133Z" fill="#E53022"/>
<path d="M24.5363 47.9043C23.7166 47.8211 22.9167 47.704 22.2482 47.1809C21.3459 46.4744 20.8392 45.3907 20.7481 44.264C20.659 43.1718 20.8993 41.9527 21.6674 41.1306C22.1097 40.6582 22.6673 40.2013 23.3358 40.1829L23.4863 40.7237C22.6079 41.4598 22.0151 42.4928 21.9084 43.6449C21.8179 44.6137 22.1062 45.4901 22.7599 46.2142C22.9294 46.4025 23.1245 46.5689 23.3181 46.7317C23.8184 47.0392 24.3766 47.2986 24.5363 47.9043Z" fill="#F37316"/>
<path d="M10.7853 40.103C10.899 40.4478 10.909 40.5712 11.1719 40.8321C10.2652 41.3884 9.51867 42.1725 9.27396 43.235C9.13553 43.8365 9.2105 44.4583 9.50489 44.9998C9.87594 45.8939 10.9856 46.9628 11.0482 47.8477C10.4166 47.6587 9.81277 47.3703 9.31099 46.9374C8.46769 46.2098 7.9712 45.1155 7.93947 44.0085C7.90803 42.9093 8.25089 41.6676 9.06677 40.8927C9.54015 40.4436 10.121 40.1052 10.7853 40.103Z" fill="#E53022"/>
<path d="M25.9628 40.4191C26.9952 41.4746 27.752 42.6197 27.7498 44.1589C27.7477 45.1784 27.3789 46.1712 26.6107 46.8622C26.0066 47.4051 25.3134 47.7055 24.5346 47.9043C24.3749 47.2986 23.8167 47.0392 23.3164 46.7317C24.0117 46.1409 24.7488 45.5789 25.2851 44.8344C25.3155 43.3875 25.1275 41.6622 25.9628 40.4191Z" fill="#F2BE2A"/>
<path d="M24.9786 40.1032C25.3065 40.2062 25.6386 40.3021 25.9629 40.4198C25.1277 41.6629 25.3157 43.3882 25.2853 44.835C24.7489 45.5796 24.0119 46.1416 23.3166 46.7324C23.123 46.5695 22.9279 46.4031 22.7583 46.2149C22.1047 45.4908 21.8164 44.6144 21.9068 43.6456C22.0135 42.4935 22.6064 41.4605 23.4848 40.7244C23.8678 40.7301 24.2974 40.7801 24.6507 40.6116C24.862 40.5101 24.8889 40.3028 24.9786 40.1032Z" fill="#F2BE2A"/>
<path d="M12.3598 40.2082L12.4909 40.1998C13.4431 40.5706 14.0701 41.2038 14.4709 42.1465C14.9571 43.2901 14.9809 44.639 14.4761 45.7798C14.1162 46.5934 13.5268 47.2886 12.6792 47.608C12.1988 47.7893 11.5601 47.9683 11.0524 47.8471C10.9898 46.9622 9.88006 45.8933 9.50901 44.9992C9.21462 44.4577 9.13965 43.8359 9.27808 43.2344C9.52279 42.1719 10.2693 41.3878 11.176 40.8315C11.6212 40.6764 12.0428 40.5784 12.3598 40.2082Z" fill="#F37316"/>
<path d="M12.3598 40.2078L12.4909 40.1993C12.4797 40.2395 12.4671 40.279 12.4574 40.3192C12.0898 41.8118 13.28 44.4192 11.573 45.4176C11.221 45.6235 10.9724 45.6531 10.5793 45.5488C10.232 45.4564 9.90889 45.1476 9.63712 44.9241L9.50901 44.9988C9.21462 44.4573 9.13965 43.8354 9.27808 43.234C9.52279 42.1714 10.2693 41.3874 11.176 40.8311C11.6212 40.6759 12.0428 40.5779 12.3598 40.2078Z" fill="#F14C27"/>
<path d="M37.1086 39.8745C37.4422 39.9838 37.7686 40.0846 38.088 40.2291C39.0858 40.7354 39.7606 41.566 40.0984 42.6299C40.4948 43.8765 40.3684 45.1781 39.7437 46.3267C39.2844 47.1707 38.6088 47.6945 37.6718 47.9223C37.4302 47.9808 37.1567 48.0344 36.915 47.9723L37.0669 47.8856L37.1044 47.6783C36.6804 47.3272 36.2359 47.0296 35.7752 46.7279L35.1682 45.4545C35.1378 45.4129 35.1039 45.3734 35.0771 45.329C34.699 44.6874 34.7308 43.8229 34.9258 43.1298C35.1541 42.3169 35.6961 41.4341 36.4472 41.0096C36.5405 40.9695 36.684 40.9131 36.7624 40.8517C37.0896 40.5979 37.0542 40.251 37.1086 39.8745Z" fill="#F37316"/>
<path d="M37.1086 39.8737C37.4422 39.983 37.7686 40.0838 38.088 40.2284C37.7637 40.6726 37.5234 40.8587 37.604 41.4369C37.7552 42.5312 38.3848 43.904 37.7672 44.9665C37.5086 45.4114 36.8543 45.63 36.3596 45.6491C35.9434 45.6646 35.6551 45.5426 35.294 45.3691L35.1682 45.4537C35.1378 45.4121 35.1039 45.3727 35.0771 45.3283C34.699 44.6866 34.7308 43.8222 34.9258 43.1291C35.1541 42.3161 35.6961 41.4334 36.4472 41.0089C36.5405 40.9687 36.684 40.9123 36.7624 40.851C37.0896 40.5972 37.0542 40.2502 37.1086 39.8737Z" fill="#F14C27"/>
<path d="M49.6553 24.9243C49.9153 24.3595 50.0135 23.9456 50.4255 23.4394C50.5866 23.242 50.6071 22.8993 50.6142 22.6426C50.6163 22.5827 50.6092 22.5228 50.6071 22.4628L50.6841 22.4685C50.6749 22.6878 50.6792 22.9049 50.682 23.1249L50.93 23.2448C51.1992 25.537 50.7145 27.7403 49.2766 29.5975C48.0068 31.2361 46.1456 32.2803 44.0816 32.5088C41.908 32.7499 39.1572 32.7161 36.9766 32.4982L36.5555 32.556C36.0305 33.7645 36.5901 37.9569 36.3732 39.6188L36.3287 32.5476C32.4091 32.5638 28.4832 32.5384 24.5644 32.6301C24.5559 33.8245 24.305 39.2803 24.7064 39.9833L24.9791 40.1039C24.8894 40.3034 24.8625 40.5107 24.6513 40.6122C24.298 40.7808 23.8683 40.7307 23.4854 40.7251L23.3349 40.1843L23.7242 39.9213C24.2648 38.227 23.903 34.4823 23.874 32.5687L20.5586 32.5349L20.5883 32.2359C21.138 31.8171 21.7139 31.4399 22.2884 31.0563C26.157 31.4032 30.2405 31.1501 34.1375 31.1409C37.3427 31.1332 40.846 31.3941 44.018 30.9915C44.9825 30.8695 45.8834 30.6354 46.6861 30.0643C48.4117 28.836 49.2723 26.938 49.6553 24.9243Z" fill="#4561B6"/>
<path d="M15.4406 8.3856C16.0738 7.37804 16.7178 6.37824 17.484 5.46446C20.1033 2.33883 23.8341 0.369549 27.9069 0.0473251C31.9281 -0.270664 36.0843 1.03232 39.1439 3.6665C42.6182 6.65746 44.2384 10.3859 44.5776 14.8801C45.7661 15.4667 46.8874 16.2057 47.8576 17.1103C49.5619 18.6988 50.8408 20.8761 50.9277 23.2452L50.6797 23.1253C50.6769 22.9053 50.6727 22.6882 50.6819 22.4689L50.6048 22.4633C50.6069 22.5232 50.614 22.5831 50.6119 22.6431C50.6048 22.8997 50.5843 23.2424 50.4232 23.4398C50.0113 23.946 49.9131 24.3599 49.653 24.9247C49.67 22.0162 48.6356 18.7863 46.0501 17.1237C45.3881 16.6978 44.1508 16.2261 43.7318 15.5612C43.3382 14.9372 43.3368 13.7872 43.2238 13.0638C42.7871 10.2703 41.4707 7.85186 39.5692 5.79302C39.1764 5.36786 38.6118 4.65078 38.0359 4.62752C37.6763 4.39978 37.3237 4.16429 36.9669 3.9309C33.3491 1.56536 29.7151 1.41164 25.5794 2.25845C23.9535 2.10474 21.9093 3.39363 20.6968 4.39273C18.8222 5.93686 16.949 8.44201 16.5456 10.8872C14.5713 9.65334 12.7119 8.72051 10.2902 9.28105C8.99663 9.58071 7.94338 10.4437 7.29028 11.5874C7.22301 11.7051 7.1645 11.8278 7.10458 11.9498C6.30663 13.3212 6.35778 14.9062 6.40951 16.4362C4.52509 17.3634 2.59214 18.3632 1.88469 20.4982C1.24325 22.4336 1.66954 25.132 2.6151 26.9137C3.59543 28.761 5.29747 30.0683 7.31261 30.6154C9.97845 31.3388 19.5267 30.5992 20.5753 31.1724L20.5866 32.2364L20.5569 32.5353C17.5345 32.4959 14.5123 32.5043 11.4897 32.5078C11.4671 34.4109 11.1454 38.1845 11.5746 39.8365C11.8317 40.0106 12.0659 40.1065 12.3587 40.2087C12.0418 40.5789 11.6202 40.6769 11.1751 40.832C10.9121 40.5712 10.9022 40.4478 10.7885 40.103C11.1939 37.8524 10.8854 34.8163 10.8687 32.4825C9.34979 32.474 7.73656 32.5643 6.27815 32.077C3.88457 31.2775 2.02255 29.3491 0.964922 27.102C-0.101187 24.8366 -0.350898 22.1721 0.555167 19.8093C1.32034 17.814 2.73275 16.3403 4.66846 15.4378C4.64119 14.4585 4.64938 13.5644 4.93174 12.6112C5.47787 10.7653 6.72211 9.24369 8.42931 8.34472C10.8705 7.06005 12.976 7.61706 15.4406 8.3856Z" fill="#4E83CC"/>
<path d="M16.5458 10.8867C16.9493 8.44145 18.8225 5.9363 20.6973 4.39217C21.9099 3.39307 23.9542 2.10417 25.5802 2.25788C24.41 2.8022 23.2772 3.55523 22.2265 4.30191L24.1111 4.38935C24.1627 4.40979 24.2135 4.43306 24.2665 4.44998C24.8043 4.61849 25.465 4.46056 25.8953 4.85329C25.8982 5.07963 25.9031 5.16917 25.8105 5.3821L26.0692 5.72477C25.9307 6.48838 25.6551 7.20826 25.3957 7.93661C25.318 9.6563 24.764 11.4952 24.3838 13.1754C23.6963 16.2199 22.9628 19.256 22.4109 22.3294C22.7769 22.6376 23.1917 22.9379 23.2907 23.4371C23.3189 23.5774 23.2984 23.6494 23.2794 23.7798C23.0299 24.0167 22.9169 24.1034 22.5452 24.1077C22.4166 24.1091 22.2328 24.0632 22.1042 24.035L21.7304 25.7815C21.493 27.0077 21.2365 30.2369 20.5758 31.1719C19.5271 30.5986 9.9783 31.3383 7.3123 30.6149C5.29705 30.0677 3.5949 28.7605 2.61452 26.9132C1.6689 25.1314 1.24258 22.4331 1.88407 20.4976C2.59155 18.3627 4.52462 17.3628 6.40915 16.4357C6.35742 14.9056 6.30626 13.3206 7.10426 11.9492C7.16419 11.8272 7.2227 11.7046 7.28997 11.5868C7.94311 10.4432 8.99642 9.58015 10.2901 9.28049C12.7119 8.71995 14.5714 9.65278 16.5458 10.8867Z" fill="#58B1E7"/>
<path d="M20.165 22.5188C20.8406 22.9997 21.4935 23.4686 22.1012 24.0348L21.7274 25.7812C21.6475 25.7065 21.5168 25.5909 21.4419 25.4999C20.8794 24.8223 20.0626 23.3713 20.165 22.5188Z" fill="#4E83CC"/>
<path d="M7.10547 11.9484C7.16539 11.8264 7.2239 11.7038 7.29117 11.586C7.94432 10.4424 8.99763 9.57935 10.2913 9.27969C12.7131 8.71915 14.5726 9.65198 16.547 10.8859C16.8438 11.2687 16.7891 11.4253 16.8036 11.8977C16.6137 12.229 16.5588 12.2925 16.161 12.4018C13.5111 13.1308 12.07 9.39391 7.31789 12.0218L7.10547 11.9484Z" fill="#91DBF4"/>
<path d="M25.8126 5.38184L26.0712 5.72451C25.9327 6.48811 25.6571 7.20799 25.3978 7.93634C23.6496 9.33875 17.7328 15.9383 16.4897 17.8808C18.1618 19.5208 20.4245 21.0826 22.4129 22.3292C22.779 22.6373 23.1938 22.9377 23.2927 23.4369C23.321 23.5772 23.3005 23.6491 23.2814 23.7795C23.032 24.0164 22.9189 24.1032 22.5472 24.1074C22.4186 24.1088 22.2349 24.063 22.1063 24.0348C21.4986 23.4686 20.8456 22.9997 20.1701 22.5188C18.1591 20.7068 15.9332 19.0858 13.8789 17.3104C15.3662 15.492 17.0955 13.8329 18.7388 12.1541C21.0046 9.83937 23.2842 7.41036 25.8126 5.38184Z" fill="#F14C27"/>
<path d="M25.3963 7.93724C25.3186 9.65693 24.7646 11.4958 24.3844 13.176C23.6969 16.2205 22.9634 19.2566 22.4115 22.3301C20.423 21.0835 18.1603 19.5217 16.4883 17.8817C17.7314 15.9392 23.6481 9.33965 25.3963 7.93724Z" fill="#F3A815"/>
<path d="M25.5823 2.25852C29.7181 1.41172 33.3522 1.56544 36.97 3.93097C37.3269 4.16436 37.6794 4.39984 38.0391 4.62758C38.615 4.65085 39.1796 5.36792 39.5725 5.79308C41.4739 7.85191 42.7903 10.2703 43.227 13.0638C43.3401 13.7873 43.3415 14.9372 43.7351 15.5612C44.1541 16.2261 45.3914 16.6978 46.0535 17.1237C48.6389 18.7863 49.6734 22.0162 49.6565 24.9247C49.2735 26.9384 48.4128 28.8364 46.6873 30.0647C45.8846 30.6358 44.9837 30.8699 44.0191 30.9919C40.8472 31.3945 37.3438 31.1336 34.1386 31.1413C30.2417 31.1505 26.1582 31.4036 22.2895 31.0567C21.7151 31.4403 21.1392 31.8175 20.5894 32.2363L20.5781 31.1724C21.2388 30.2374 21.4953 27.0082 21.7327 25.782L22.1065 24.0356C22.2351 24.0638 22.4188 24.1096 22.5474 24.1082C22.9191 24.104 23.0322 24.0172 23.2816 23.7803C23.3007 23.6499 23.3212 23.578 23.2929 23.4377C23.194 22.9385 22.7792 22.6381 22.4132 22.33C22.965 19.2565 23.6985 16.2205 24.386 13.176C24.7662 11.4958 25.3202 9.65691 25.3979 7.93722C25.6572 7.20888 25.9328 6.489 26.0713 5.7254L25.8127 5.38273C25.9052 5.1698 25.9003 5.08026 25.8975 4.85393C25.4671 4.4612 24.8065 4.61913 24.2687 4.45061C24.2157 4.43369 24.1649 4.41043 24.1133 4.38998L22.2288 4.30255C23.2795 3.55587 24.4122 2.80284 25.5823 2.25852Z" fill="#91DBF4"/>
<path d="M25.5803 2.25873C29.7162 1.41192 33.3504 1.56564 36.9684 3.93119C37.3252 4.16457 37.6779 4.40006 38.0375 4.6278C38.07 4.67434 38.1004 4.72229 38.1358 4.76671C38.564 5.31033 39.1745 5.72139 39.6331 6.25373C41.4647 8.37814 42.5112 10.7719 43.1112 13.4914C43.1119 13.9187 43.1613 14.2162 42.9444 14.5977C42.4561 14.2317 42.1169 13.129 41.8336 12.5684C40.238 9.41108 38.0849 6.67677 34.8329 5.10725C32.0855 3.7817 28.1227 2.83337 25.1605 3.98759C24.9323 4.07643 24.8305 4.15258 24.5705 4.16809C24.3055 4.1836 24.3154 4.22591 24.1112 4.39019L22.2266 4.30276C23.2773 3.55608 24.4101 2.80305 25.5803 2.25873Z" fill="#C1EAEC"/>
<path d="M38.0387 4.62684C38.6145 4.65011 39.1791 5.36718 39.572 5.79234C41.4735 7.85117 42.7899 10.2696 43.2266 13.0631C43.3396 13.7865 43.341 14.9365 43.7346 15.5605C44.1536 16.2254 45.3909 16.6971 46.053 17.1229C48.6385 18.7855 49.6729 22.0155 49.656 24.9239C49.273 26.9376 48.4124 28.8357 46.6868 30.0639C45.8841 30.6351 44.9832 30.8691 44.0187 30.9911C40.8467 31.3937 37.3433 31.1328 34.1382 31.1406C30.2412 31.1498 26.1577 31.4029 22.2891 31.056C25.8426 28.3816 29.228 25.4965 32.6465 22.6536C33.4309 23.4898 34.4533 24.2245 35.4609 24.7702C38.0818 26.1895 41.4191 26.7176 44.2985 25.8166C45.8332 25.3364 47.5496 24.3169 48.2866 22.8291C48.659 22.0761 48.695 21.2709 48.423 20.4798C47.6323 18.182 45.2355 16.812 43.1976 15.7889C43.1997 15.0155 43.1863 14.2617 43.1121 13.4904C42.5122 10.7709 41.4657 8.37716 39.6342 6.25276C39.1756 5.72043 38.5651 5.30936 38.1369 4.76575C38.1015 4.72133 38.0712 4.67337 38.0387 4.62684Z" fill="#58B1E7"/>
<path d="M26.0715 5.72526C27.8317 7.11145 29.3588 9.15901 30.8597 10.8258C33.0969 13.3119 35.3807 15.7579 37.6526 18.2123C36.0414 19.7557 34.3441 21.2067 32.6475 22.6543C29.2288 25.4972 25.8433 28.3823 22.2896 31.0567C21.7151 31.4403 21.1392 31.8175 20.5894 32.2363L20.5781 31.1724C21.2388 30.2374 21.4953 27.0081 21.7328 25.782L22.1066 24.0355C22.2352 24.0637 22.4189 24.1096 22.5475 24.1081C22.9192 24.1039 23.0323 24.0172 23.2817 23.7803C23.3008 23.6498 23.3213 23.5779 23.293 23.4376C23.1941 22.9384 22.7793 22.6381 22.4133 22.3299C22.9651 19.2565 23.6986 16.2204 24.3862 13.1758C24.7663 11.4956 25.3204 9.65679 25.3981 7.93709C25.6574 7.20874 25.933 6.48886 26.0715 5.72526Z" fill="#F2BE2A"/>
</svg>
