<svg width="40" height="40" viewBox="0 0 40 40" fill="none" xmlns="http://www.w3.org/2000/svg">
<path d="M19.9993 13.334C27.3631 13.334 33.3327 11.0954 33.3327 8.33398C33.3327 5.57256 27.3631 3.33398 19.9993 3.33398C12.6356 3.33398 6.66602 5.57256 6.66602 8.33398C6.66602 11.0954 12.6356 13.334 19.9993 13.334Z" stroke="white" stroke-width="2.5"/>
<path d="M33.3327 20C33.3327 22.7615 27.3632 25 19.9993 25C12.6355 25 6.66602 22.7615 6.66602 20" stroke="white" stroke-width="2.5"/>
<path d="M33.3327 8.33398V31.6673C33.3327 34.4288 27.3632 36.6673 19.9993 36.6673C12.6355 36.6673 6.66602 34.4288 6.66602 31.6673V8.33398" stroke="white" stroke-width="2.5"/>
<path d="M13.334 13.334V17.5007" stroke="white" stroke-width="2.5"/>
<path d="M13.334 25V29.1667" stroke="white" stroke-width="2.5"/>
</svg>
