<svg width="40" height="40" viewBox="0 0 40 40" fill="none" xmlns="http://www.w3.org/2000/svg">
<path d="M31.0455 22.591C32.2163 21.915 33.659 21.915 34.83 22.591C35.266 22.8428 35.7561 23.3338 36.2113 23.7898C36.6675 24.2452 37.1585 24.7352 37.4101 25.1711C38.0861 26.3421 38.0861 27.7848 37.4101 28.9558C37.1585 29.3918 36.7671 29.7823 36.311 30.2375L30.6981 35.8502C29.9226 36.6257 28.9861 36.988 28.1448 37.2028C27.7248 37.31 26.1503 37.5988 25.7675 37.665C25.2575 37.7743 24.7471 37.8835 24.3251 37.9103C23.8601 37.94 23.1861 37.8943 22.6465 37.3546C22.1068 36.8151 22.0613 36.141 22.0908 35.676C22.1176 35.254 22.227 34.7437 22.3361 34.2337C22.4023 33.8508 22.6911 32.2763 22.7983 31.8563C23.0131 31.015 23.3756 30.0785 24.1511 29.303L29.7638 23.6902C30.219 23.234 30.6095 22.8428 31.0455 22.591Z" fill="white"/>
<path opacity="0.4" d="M36.0667 13.8931C36.2125 14.0361 36.2168 14.2635 36.2255 14.7182C36.2506 16.0279 36.2506 17.4745 36.2506 19.0707V19.2618C36.2506 19.6297 36.2506 19.8135 36.2026 19.9152C36.1207 20.0883 35.9966 20.1768 35.8061 20.1982C35.6945 20.2105 35.4958 20.1423 35.0983 20.0058C33.3646 19.4103 31.3748 19.5132 29.7951 20.4252C29.0638 20.8473 28.4618 21.4528 28.069 21.848L27.994 21.9233L22.3832 27.5343C21.158 28.7595 20.6438 30.1873 20.3758 31.237C20.2448 31.7505 19.9587 33.3157 19.8813 33.7557L19.8755 33.783C19.7783 34.2358 19.6345 34.905 19.5957 35.5165C19.581 35.7477 19.5737 35.8632 19.5427 35.939C19.4843 36.0817 19.3852 36.1747 19.2392 36.2237C19.1615 36.2498 19.0622 36.2498 18.8635 36.2497C15.4943 36.2485 12.4023 36.2295 10.314 35.9488C8.0196 35.6403 6.19917 34.9953 4.76883 33.565C3.33852 32.1347 2.69345 30.3142 2.38497 28.0198C2.08395 25.7807 2.08397 22.913 2.08399 19.2618V19.0712C2.08397 17.4747 2.08397 16.028 2.10912 14.7182C2.11785 14.2635 2.12222 14.0361 2.26807 13.8931C2.4139 13.75 2.64332 13.75 3.10215 13.75H35.2325C35.6913 13.75 35.9207 13.75 36.0667 13.8931Z" fill="white"/>
<path d="M19.0733 2.08398H19.2638C22.915 2.08397 25.7828 2.08395 28.0218 2.38497C30.3163 2.69345 32.1366 3.33852 33.567 4.76883C34.9973 6.19917 35.6425 8.0196 35.9508 10.314C35.9981 10.6651 36.0216 10.8406 35.9491 10.9808C35.913 11.0507 35.8566 11.1151 35.7921 11.1603C35.663 11.2509 35.4798 11.2509 35.1138 11.2509H3.22329C2.85721 11.2509 2.67416 11.2509 2.54494 11.1603C2.48048 11.1151 2.42416 11.0507 2.38796 10.9808C2.31539 10.8406 2.33899 10.6651 2.38619 10.314C2.69468 8.0196 3.33974 6.19917 4.77006 4.76883C6.20039 3.33852 8.02083 2.69345 10.3152 2.38497C12.5543 2.08395 15.4221 2.08397 19.0733 2.08398Z" fill="white"/>
<path fill-rule="evenodd" clip-rule="evenodd" d="M8.75 20C8.75 19.3097 9.30965 18.75 10 18.75H11.6667C12.357 18.75 12.9167 19.3097 12.9167 20C12.9167 20.6903 12.357 21.25 11.6667 21.25H10C9.30965 21.25 8.75 20.6903 8.75 20ZM15.4167 20C15.4167 19.3097 15.9763 18.75 16.6667 18.75H25C25.6903 18.75 26.25 19.3097 26.25 20C26.25 20.6903 25.6903 21.25 25 21.25H16.6667C15.9763 21.25 15.4167 20.6903 15.4167 20ZM8.75 26.6667C8.75 25.9763 9.30965 25.4167 10 25.4167H11.6667C12.357 25.4167 12.9167 25.9763 12.9167 26.6667C12.9167 27.357 12.357 27.9167 11.6667 27.9167H10C9.30965 27.9167 8.75 27.357 8.75 26.6667ZM15.4167 26.6667C15.4167 25.9763 15.9763 25.4167 16.6667 25.4167H19.1667C19.857 25.4167 20.4167 25.9763 20.4167 26.6667C20.4167 27.357 19.857 27.9167 19.1667 27.9167H16.6667C15.9763 27.9167 15.4167 27.357 15.4167 26.6667Z" fill="white"/>
</svg>
