<svg width="46" height="48" viewBox="0 0 46 48" fill="none" xmlns="http://www.w3.org/2000/svg">
<path d="M37.3134 22.3379C38.2762 22.6805 39.2403 23.2337 40.0952 23.7921C43.017 25.7027 45.0145 28.4612 45.7191 31.9152C46.4321 35.4137 45.7872 39.2975 43.7916 42.2738C42.1357 44.7434 39.1446 47.0256 36.1958 47.5808C32.6902 48.2407 26.1048 47.9085 22.3268 47.9098C18.7216 47.9111 13.7168 48.2226 10.2697 47.6803C8.59648 47.4179 7.1359 46.8918 5.73506 45.9288C2.83446 43.9342 0.875451 40.8435 0.224808 37.376C-0.393079 34.0829 0.265282 30.5508 2.1684 27.7858C3.8769 25.3026 7.08067 22.5939 10.1046 22.0477L10.1174 22.166C10.095 22.7289 10.1116 23.3242 10.0314 23.8807C6.87769 24.8205 4.4614 26.5177 2.87236 29.4753C1.90443 31.2766 1.32892 33.5594 1.59676 35.6115C1.53959 38.3577 2.69637 41.0225 4.57572 42.9984C6.91688 45.4602 9.8104 46.4032 13.1285 46.4562C17.218 46.5215 21.3165 46.4084 25.4079 46.411C28.4157 46.4135 33.346 46.8349 36.1695 46.1098C38.0289 45.6321 39.7124 44.5806 41.0773 43.2368C42.2083 42.1232 43.0851 40.7937 43.6985 39.3272C44.8135 37.1355 44.974 34.304 44.3729 31.9417C43.3747 28.0223 40.6341 25.6477 37.3263 23.6448L37.1798 23.0308C37.2595 22.8026 37.2787 22.5777 37.3134 22.3379Z" fill="#3DBB7C"/>
<path d="M10.2041 11.1462C12.0121 12.7149 14.1342 13.6417 16.4516 14.1827L16.4748 14.2505L16.3681 14.7456L16.7265 14.9046C17.9996 15.156 19.2675 15.4372 20.5649 15.5257C20.7203 15.5425 20.8745 15.558 21.0306 15.569C26.2839 15.9258 33.1237 15.5399 37.2742 11.8785C37.621 13.1834 37.3814 16.2735 37.3776 17.7795C36.953 18.1963 36.5465 18.6307 36.0506 18.9622L36.2876 19.1917L36.7019 19.1555C32.4268 22.5526 25.815 23.0503 20.5989 22.424C19.2797 22.2656 17.9617 22.0071 16.6861 21.6316C14.2023 21.0033 12.0673 19.9951 10.048 18.4193L10.1726 17.7614L10.1045 17.4414C9.68123 16.3892 9.9208 12.318 10.2041 11.1462Z" fill="#DC202B"/>
<path d="M10.2041 11.1462C12.0121 12.7148 14.1342 13.6417 16.4516 14.1826L16.4748 14.2505L16.3681 14.7456C15.0026 14.6008 13.5735 13.9331 12.323 13.4006C11.5291 12.9572 10.8258 12.5041 10.1366 11.9043C10.1116 13.7347 10.2201 15.6214 10.1045 17.4414C9.68123 16.3892 9.9208 12.318 10.2041 11.1462Z" fill="#EBADBA"/>
<path d="M10.1715 17.7614C13.9809 21.2244 20.5856 22.2708 25.5345 22.0051C29.1647 21.8106 32.9858 21.0305 36.0495 18.9622L36.2865 19.1917L36.7008 19.1555C32.4257 22.5526 25.8139 23.0503 20.5979 22.424C19.2786 22.2656 17.9606 22.0071 16.685 21.6316C14.2012 21.0033 12.0662 19.9951 10.0469 18.4193L10.1715 17.7614Z" fill="#EAC1D5"/>
<path d="M12.3203 13.399C13.5709 13.9316 14.9999 14.5992 16.3655 14.744L16.7239 14.903C16.7431 16.4063 16.7913 17.8134 17.1664 19.2734C16.0045 19.1532 14.26 18.7506 13.3871 17.9317C12.2567 16.871 12.4179 14.8371 12.3203 13.399Z" fill="#E53022"/>
<path d="M37.2742 11.8762C37.621 13.1811 37.3814 16.2712 37.3776 17.7771C36.953 18.194 36.5465 18.6283 36.0506 18.9599C36.0885 18.8888 36.1251 18.8171 36.1636 18.7466C36.2805 18.5314 36.409 18.3814 36.5728 18.2018C36.9485 17.7881 37.244 17.2194 37.2742 16.6538L37.1592 16.363C36.9235 16.4929 37.0481 16.3946 36.8631 16.639C35.2278 18.7964 29.9411 19.837 27.422 20.1026C24.3191 20.4297 20.1005 20.5344 17.1691 19.2727C16.794 17.8127 16.7458 16.4056 16.7266 14.9023C17.9996 15.1537 19.2675 15.4348 20.5649 15.5234C20.7204 15.5402 20.8745 15.5557 21.0306 15.5667C26.2839 15.9235 33.1237 15.5376 37.2742 11.8762Z" fill="#F14C27"/>
<mask id="mask0_694_3235" style="mask-type:luminance" maskUnits="userSpaceOnUse" x="10" y="0" width="28" height="16">
<path d="M10.133 4.97865C10.1516 4.21469 10.3841 3.65691 10.9326 3.11917C13.988 0.124099 21.7707 -0.115032 25.9102 0.0336227C29.1044 0.148023 34.3005 0.65344 36.625 3.19996C37.1382 3.76162 37.4028 4.33879 37.3868 5.09951C37.4079 7.03914 37.6315 9.30774 37.2634 11.2086L36.7464 11.6869C32.3563 14.7937 26.049 15.5086 20.8258 15.0297L20.5651 15.5254C19.2677 15.4368 17.9998 15.1557 16.7267 14.9043L16.3683 14.7453L16.475 14.2502L16.4518 14.1823C14.1344 13.6413 12.0123 12.7145 10.2042 11.1459C10.0083 10.1454 10.0694 9.08088 10.1317 8.06874C9.98007 7.0902 10.1073 5.97334 10.133 4.97865Z" fill="white"/>
</mask>
<g mask="url(#mask0_694_3235)">
<path d="M10.133 4.97865C10.1516 4.21469 10.3841 3.65691 10.9326 3.11917C13.988 0.124099 21.7707 -0.115032 25.9102 0.0336227C29.1044 0.148023 34.3005 0.65344 36.625 3.19996C37.1382 3.76162 37.4028 4.33879 37.3868 5.09951C37.4079 7.03914 37.6315 9.30774 37.2634 11.2086L36.7464 11.6869C32.3563 14.7937 26.049 15.5086 20.8258 15.0297L20.5651 15.5254C19.2677 15.4368 17.9998 15.1557 16.7267 14.9043L16.3683 14.7453L16.475 14.2502L16.4518 14.1823C14.1344 13.6413 12.0123 12.7145 10.2042 11.1459C10.0083 10.1454 10.0694 9.08088 10.1317 8.06874C9.98007 7.0902 10.1073 5.97334 10.133 4.97865Z" fill="url(#paint0_linear_694_3235)"/>
</g>
<path d="M16.9069 2.47621C17.7965 2.43808 18.9725 2.21833 19.742 2.74444C19.9398 3.11672 19.8936 3.26213 19.8685 3.67578C18.9295 3.68677 17.7817 3.97761 16.9242 3.54328C16.6962 3.11864 16.8157 2.93963 16.9069 2.47621Z" fill="white"/>
<path d="M23.5503 2.44376C24.5221 2.38688 25.772 2.12641 26.6263 2.6648C26.8241 3.04548 26.7842 3.20124 26.7656 3.62265C25.7514 3.66983 24.6229 3.91996 23.6666 3.51472C23.4096 3.11593 23.5079 2.90847 23.5503 2.44376Z" fill="white"/>
<path d="M30.2964 2.4987C30.9239 2.46121 31.57 2.40176 32.1969 2.45088C32.7082 2.49031 32.9754 2.57627 33.3158 2.96794C33.3672 3.32213 33.3569 3.46691 33.2034 3.79072C32.4191 3.81463 31.4653 3.93937 30.6978 3.79395C30.351 3.72867 30.2212 3.66079 30.0195 3.37576C30.0324 2.99249 30.0953 2.82315 30.2964 2.4987Z" fill="white"/>
<path d="M30.423 4.37175C31.0993 4.34654 31.9632 4.23602 32.6113 4.44284C32.9614 4.55466 33.0288 4.65871 33.1855 4.98058C33.1232 5.41814 33.0025 5.57132 32.7372 5.90288C32.136 5.95265 31.3723 6.08063 30.793 5.88543C30.4275 5.76263 30.344 5.63336 30.168 5.3018C30.1655 4.90043 30.2483 4.71947 30.423 4.37175Z" fill="white"/>
<path d="M16.8184 4.36914C17.5218 4.34458 18.3548 4.24829 19.044 4.37949C19.4306 4.45317 19.5655 4.55852 19.7948 4.86747C19.7775 5.27142 19.6753 5.38712 19.4698 5.72579C18.9386 5.9449 18.243 6.04765 17.6733 5.97074C17.3066 5.92162 17.0985 5.7607 16.8647 5.48019C16.717 5.05879 16.7433 4.80541 16.8184 4.36914Z" fill="white"/>
<path d="M23.4965 4.33702C24.397 4.3312 25.9179 3.98799 26.6469 4.58649C26.7966 5.00207 26.7304 5.14944 26.6476 5.57472C26.4992 5.65293 26.3816 5.71562 26.2179 5.75505C25.3161 5.9748 24.5074 6.04266 23.6827 5.58765C23.4232 5.13651 23.4907 4.8515 23.4965 4.33702Z" fill="white"/>
<path d="M10.133 4.97796C11.713 7.23623 14.1473 7.79982 16.6676 8.51983C16.6291 9.76918 16.6381 11.0114 16.6599 12.2608L16.5777 12.2356C16.5861 12.8638 16.6786 13.5903 16.4518 14.1816C14.1344 13.6407 12.0123 12.7138 10.2042 11.1452C10.0083 10.1447 10.0694 9.0802 10.1317 8.06806C9.98007 7.08952 10.1073 5.97266 10.133 4.97796Z" fill="#F14C27"/>
<path d="M10.1309 8.06806C10.7436 8.37635 10.8226 8.94835 11.2549 9.43827C12.65 11.0185 14.6456 11.6196 16.577 12.2356C16.5853 12.8638 16.6778 13.5903 16.4511 14.1816C14.1337 13.6407 12.0115 12.7138 10.2035 11.1452C10.0076 10.1447 10.0686 9.0802 10.1309 8.06806Z" fill="#DC202B"/>
<path d="M16.6665 8.52051C20.2704 9.28834 23.7696 9.62832 27.4493 9.24246C30.8381 8.88698 35.1325 7.88647 37.3856 5.09951C37.4068 7.03914 37.6303 9.30773 37.2623 11.2086L36.7453 11.6869C32.3552 14.7937 26.0478 15.5086 20.8247 15.0297L20.5639 15.5254C19.2665 15.4368 17.9986 15.1557 16.7256 14.9043L16.3672 14.7453L16.4738 14.2502L16.4507 14.1823C16.6774 13.5909 16.5849 12.8645 16.5766 12.2362L16.6588 12.2614C16.637 11.0121 16.628 9.76986 16.6665 8.52051Z" fill="#F06019"/>
<path d="M16.6588 12.2614C22.0759 14.1552 28.689 13.5405 33.993 11.6041C34.4837 11.4251 35.0573 11.2655 35.4986 10.9895C35.9822 10.6863 36.4376 10.0614 37.0028 9.9657C37.2604 10.3425 37.2244 10.7594 37.2623 11.2086L36.7453 11.6869C32.3552 14.7937 26.0478 15.5086 20.8247 15.0297L20.5639 15.5254C19.2665 15.4368 17.9986 15.1557 16.7256 14.9043L16.3672 14.7453L16.4738 14.2502L16.4507 14.1823C16.6774 13.5909 16.5849 12.8645 16.5766 12.2362L16.6588 12.2614Z" fill="#E53022"/>
<path d="M16.4738 14.2502C17.9164 14.5591 19.3577 14.859 20.8247 15.0297L20.5639 15.5254C19.2665 15.4368 17.9986 15.1557 16.7256 14.9043L16.3672 14.7453L16.4738 14.2502Z" fill="#EAC1D5"/>
<path d="M10.0496 18.4187C12.069 19.9945 14.204 21.0027 16.6877 21.631C17.9633 22.0065 19.2813 22.265 20.6006 22.4234C25.8166 23.0496 32.4284 22.552 36.7035 19.1549L37.1383 18.758C37.3445 18.864 37.2912 18.7884 37.358 19.0224C37.6348 19.9964 37.2495 21.3136 37.3176 22.338C37.2829 22.5778 37.2636 22.8027 37.1839 23.0309L37.3304 23.6449C40.6382 25.6479 43.3789 28.0225 44.377 31.9418C44.9782 34.3041 44.8176 37.1357 43.7026 39.3273C43.0892 40.7939 42.2125 42.1234 41.0814 43.237C39.7165 44.5807 38.0331 45.6323 36.1736 46.1099C33.3501 46.8351 28.4198 46.4137 25.412 46.4111C21.3206 46.4085 17.2221 46.5216 13.1326 46.4563C9.81452 46.4033 6.92101 45.4603 4.57985 42.9985C2.7005 41.0227 1.54372 38.3579 1.60088 35.6116C1.33305 33.5595 1.90855 31.2767 2.87649 29.4754C4.46552 26.5178 6.88182 24.8206 10.0355 23.8808C10.1158 23.3243 10.0991 22.7291 10.1216 22.1661L10.1087 22.0478C10.049 20.8353 9.98088 19.6332 10.0496 18.4187Z" fill="white"/>
<path d="M21.745 40.4691C22.14 40.5479 22.6178 40.6636 22.8979 40.9816C23.1368 41.2524 23.2582 41.5103 23.2184 41.8806C23.1522 42.4979 22.7521 42.8282 22.298 43.1895C21.7771 43.1319 21.3564 43.0363 21.0301 42.5851C20.8162 42.2898 20.7366 41.9265 20.8053 41.5685C20.9177 40.9829 21.2722 40.7483 21.745 40.4691Z" fill="#34988D"/>
<path d="M29.5156 41.415C29.7546 41.0925 30.0751 40.7254 30.4675 40.5935C31.0147 40.4093 31.4836 40.6717 31.964 40.9044C32.133 41.4512 32.2685 41.9017 31.9833 42.4466C31.826 42.7471 31.5524 42.983 31.2171 43.0534C30.7925 43.142 30.3358 42.9636 30.0353 42.6605C29.7006 42.3225 29.619 41.8623 29.5156 41.415Z" fill="#34988D"/>
<path d="M26.1547 40.4602C26.5966 40.5248 27.0918 40.6502 27.3994 41.0063C27.6448 41.2901 27.77 41.577 27.7283 41.9603C27.6634 42.5575 27.2832 42.858 26.8522 43.209C26.813 43.2083 26.7732 43.2083 26.734 43.2058C26.208 43.1721 25.8245 43.0752 25.4905 42.648C25.2388 42.3255 25.145 41.9157 25.2388 41.515C25.3679 40.9656 25.707 40.7323 26.1547 40.4602Z" fill="#34988D"/>
<path d="M10.0355 23.8805C10.7632 25.7743 13.193 26.3546 14.7942 27.2621L14.6105 27.3914C14.2907 27.2524 14.2509 27.1697 13.8989 27.2511L14.308 27.5019L14.2592 27.635C12.746 27.0792 11.3323 26.2945 10.0811 25.2688C10.0984 26.2099 10.2474 27.4256 10.0233 28.3298C9.90446 27.3758 9.77601 26.1995 9.97383 25.2578L10.1517 25.0555C10.3939 25.1803 10.4478 25.199 10.7182 25.1919L10.6193 25.2591C10.3104 24.8946 10.0021 24.5766 9.63663 24.269C6.68914 25.2824 4.28631 27.0979 2.90923 29.9695C2.54505 30.729 2.25925 31.5414 2.08326 32.3661C1.97278 32.8871 1.83725 35.369 1.60088 35.6113C1.33305 33.5592 1.90855 31.2764 2.87649 29.4751C4.46552 26.5175 6.88182 24.8203 10.0355 23.8805Z" fill="#EAC1D5"/>
<path d="M10.0773 25.2692C11.3285 26.2949 12.7422 27.0795 14.2555 27.6354C15.0269 28.0593 15.8862 28.3043 16.7161 28.5848C16.745 30.1101 16.718 31.6568 17.0179 33.1582C14.1193 32.3529 12.037 31.3718 10.0831 29.0372L10.0195 28.3302C10.2437 27.4259 10.0947 26.2102 10.0773 25.2692Z" fill="#DC202B"/>
<path d="M10.0836 29.0381C12.0375 31.3727 14.1198 32.3538 17.0184 33.1591C19.3872 33.7957 21.819 34.2391 24.2745 34.3057C28.5136 34.4207 33.896 33.4803 37.0587 30.4051L37.1858 30.2791L37.3959 30.3844C37.3528 31.5801 37.0208 32.3118 36.1447 33.1384C33.5614 35.5744 28.4731 36.456 25.0638 36.4941C21.0649 36.489 14.1705 36.0249 11.1415 33.0266C9.95835 31.8555 10.09 30.5919 10.0836 29.0381Z" fill="#A41A29"/>
<path d="M36.9966 25.7175L37.159 25.6781C37.2156 27.2021 37.0145 28.9045 37.3941 30.384L37.1841 30.2786L37.0569 30.4046C33.8943 33.4799 28.5119 34.4203 24.2727 34.3052C21.8172 34.2386 19.3855 33.7953 17.0167 33.1586C16.7168 31.6572 16.7437 30.1106 16.7148 28.5852C17.5286 28.783 18.345 28.9834 19.1684 29.1385C25.3139 30.2928 31.8062 29.2923 36.9966 25.7175Z" fill="#F14C27"/>
<path d="M10.0484 18.4184C12.0677 19.9942 14.2027 21.0024 16.6865 21.6307C17.9621 22.0062 19.2801 22.2647 20.5993 22.4231C25.8154 23.0494 32.4272 22.5517 36.7023 19.1546L37.1371 18.7577C37.3433 18.8637 37.29 18.7881 37.3568 19.0221C37.6336 19.9961 37.2482 21.3133 37.3163 22.3377C37.2816 22.5775 37.2624 22.8025 37.1827 23.0306L37.3292 23.6446C37.1217 24.4234 36.9284 24.8319 36.3349 25.3651C36.5597 25.4963 36.7601 25.6185 37.0003 25.7167C31.8099 29.2916 25.3176 30.2921 19.1721 29.1377C18.3487 28.9826 17.5324 28.7823 16.7186 28.5845C15.8887 28.304 15.0294 28.059 14.258 27.635L14.3068 27.5019L13.8976 27.2511C14.2496 27.1697 14.2894 27.2524 14.6093 27.3914L14.793 27.2621C13.1918 26.3547 10.762 25.7743 10.0342 23.8805C10.1145 23.324 10.0978 22.7288 10.1203 22.1658L10.1075 22.0475C10.0477 20.835 9.97964 19.6329 10.0484 18.4184Z" fill="#F14C27"/>
<path d="M10.0484 18.4184C12.0677 19.9942 14.2027 21.0024 16.6865 21.6307C16.6935 23.0526 16.6447 24.4991 16.8381 25.91C18.7791 26.5453 20.6989 26.9667 22.7401 27.0999C27.759 27.4269 33.327 26.4632 37.1827 23.0306L37.3292 23.6446C37.1217 24.4234 36.9284 24.8319 36.3349 25.3651C36.5597 25.4963 36.7601 25.6185 37.0003 25.7167C31.8099 29.2916 25.3176 30.2921 19.1721 29.1377C18.3487 28.9826 17.5324 28.7823 16.7186 28.5845C15.8887 28.304 15.0294 28.059 14.258 27.635L14.3068 27.5019L13.8976 27.2511C14.2496 27.1697 14.2894 27.2524 14.6093 27.3914L14.793 27.2621C13.1918 26.3547 10.762 25.7743 10.0342 23.8805C10.1145 23.324 10.0978 22.7288 10.1203 22.1658L10.1075 22.0475C10.0477 20.835 9.97964 19.6329 10.0484 18.4184Z" fill="#DC202B"/>
<path d="M14.7938 27.2621C16.2287 27.7378 17.6649 28.1896 19.1531 28.4701C24.9266 29.5598 31.4337 28.7661 36.3357 25.3651C36.5605 25.4963 36.7609 25.6185 37.0011 25.7167C31.8107 29.2916 25.3184 30.2921 19.1729 29.1377C18.3495 28.9826 17.5332 28.7823 16.7194 28.5845C15.8895 28.304 15.0302 28.059 14.2588 27.635L14.3076 27.5019L13.8984 27.2511C14.2504 27.1697 14.2902 27.2524 14.6101 27.3914L14.7938 27.2621Z" fill="#EBADBA"/>
<path d="M10.0484 18.4186C12.0677 19.9943 14.2027 21.0026 16.6865 21.6308C16.6935 23.0527 16.6447 24.4992 16.8381 25.9102C15.4758 25.6516 14.0955 25.0745 12.9278 24.3241C12.2187 23.8684 10.7221 22.2726 10.1203 22.166L10.1075 22.0477C10.0477 20.8352 9.97964 19.633 10.0484 18.4186Z" fill="#E53022"/>
<defs>
<linearGradient id="paint0_linear_694_3235" x1="24.3289" y1="0.0420241" x2="23.6384" y2="9.21636" gradientUnits="userSpaceOnUse">
<stop stop-color="#F19813"/>
<stop offset="1" stop-color="#F1BA27"/>
</linearGradient>
</defs>
</svg>
