<svg width="50" height="48" viewBox="0 0 50 48" fill="none" xmlns="http://www.w3.org/2000/svg">
<path d="M9.18408 39.5087C13.1959 42.1669 16.0427 43.0658 20.9044 43.464C21.6928 43.5287 23.2835 43.3017 23.9178 43.506C24.0339 43.5431 24.0318 43.5569 24.1099 43.6339L23.3574 43.6772C23.0755 44.0245 23.0319 44.3636 23.0624 44.8154C23.1349 45.8801 23.6269 46.953 23.8701 47.9922C19.8334 47.7872 15.8257 47.2329 12.2043 45.3333C10.9198 44.66 9.61662 43.7467 9.17578 42.3045C9.24488 41.387 9.18823 40.431 9.18408 39.5087Z" fill="#DC202B"/>
<path d="M41.3815 38.6544C41.3808 40.0629 41.4464 41.5044 41.3635 42.9095C39.9228 45.2988 37.4588 46.2692 34.8545 46.9301C31.3063 47.8304 27.5219 48.047 23.8707 47.992C23.6275 46.9528 23.1355 45.8799 23.063 44.8153C23.0326 44.3634 23.0761 44.0244 23.358 43.6771L24.1105 43.6337C29.0517 43.7513 35.3085 43.3738 39.54 40.6372C40.2179 40.1984 41.2004 39.4735 41.3815 38.6544Z" fill="#EF5974"/>
<path d="M17.247 5.63622C19.3635 2.71739 22.278 0.755915 25.889 0.168573C29.2665 -0.380943 32.5418 0.424429 35.287 2.44574C38.3149 4.67475 40.2897 7.8563 40.819 11.5757C40.9447 12.4629 41.0014 13.3631 41.0387 14.2572C43.5919 14.1403 45.7484 14.6238 47.661 16.3934C49.157 17.7772 49.9302 19.7221 49.9959 21.7338C50.0684 23.9683 49.1853 26.0591 47.6237 27.6485C45.9446 29.3562 43.7936 30.1884 41.4146 30.2695L41.4167 28.7001C42.6577 28.6251 43.7992 28.4594 44.9234 27.8961C46.6349 27.0392 47.7315 25.6011 48.2719 23.7943C48.7818 22.0908 48.5814 20.2042 47.697 18.6568C46.57 16.6857 44.7617 15.716 42.5395 15.7297C41.7352 15.7345 40.8846 15.8542 40.1052 15.63C39.3783 14.9883 39.5296 13.0406 39.4709 12.1107C39.2339 10.2401 38.6763 8.51035 37.6343 6.92576C35.7762 4.10184 33.0994 2.31575 29.8021 1.61424C27.2199 1.0324 24.0324 1.68714 21.7999 3.06953C19.9439 4.21877 18.6538 5.81711 17.4322 7.58807C15.4429 6.65135 13.9179 6.17267 11.7434 6.96015C11.1954 7.15891 10.6482 7.40307 10.1293 7.66579C11.7973 10.456 13.4757 13.2407 15.0974 16.0585C13.2414 16.6891 10.4796 17.4422 9.52119 19.3108C9.10039 20.132 9.1605 20.9429 9.20334 21.8315C9.18261 24.5405 9.2365 27.2716 9.10936 29.9772C7.2762 30.2819 5.15214 29.6141 3.6548 28.5625C1.73043 27.2125 0.512223 25.1574 0.123203 22.8638C-0.255452 20.6382 0.240669 18.4477 1.58462 16.621C2.7344 15.0592 4.25664 14.0248 6.02554 13.2648C6.17755 10.9835 7.13386 8.80058 8.86337 7.25864C10.5431 5.76002 12.7633 5.09703 14.9917 5.25934C15.7566 5.31505 16.4994 5.47254 17.247 5.63622Z" fill="#58B1E7"/>
<path d="M17.4318 7.58722C18.6535 5.81626 19.9435 4.21791 21.7995 3.06868C24.0321 1.68629 27.2195 1.03155 29.8017 1.61339C33.0991 2.3149 35.7759 4.10099 37.6339 6.92491C38.6759 8.5095 39.2335 10.2392 39.4705 12.1099C39.5293 13.0397 39.378 14.9875 40.1049 15.6291C40.8843 15.8534 41.7349 15.7337 42.5392 15.7289C44.7614 15.7151 46.5696 16.6848 47.6966 18.6559C48.5811 20.2034 48.7815 22.0899 48.2715 23.7935C47.7312 25.6002 46.6346 27.0383 44.9231 27.8952C43.7988 28.4585 42.6573 28.6243 41.4163 28.6992L41.3735 21.0321C41.3707 20.691 41.368 20.3616 41.2823 20.0294C40.9907 18.9015 39.9169 18.0328 38.9413 17.4888C32.9947 14.1732 21.5632 14.2887 15.097 16.0576C13.4753 13.2399 11.7969 10.4552 10.1289 7.66495C10.6478 7.40222 11.1951 7.15806 11.743 6.9593C13.9175 6.17182 15.4425 6.6505 17.4318 7.58722Z" fill="#91DBF4"/>
<path d="M29.8008 1.61499C33.0981 2.31649 35.775 4.10259 37.633 6.92651C38.675 8.51109 39.2326 10.2408 39.4696 12.1115C39.4323 12.2965 39.3653 12.4547 39.2969 12.6301L39.0564 12.7305C38.9127 12.6706 38.9182 12.6796 38.7641 12.5792C37.6434 11.8508 37.0947 9.68784 36.4618 8.51453C35.9906 7.64177 35.4433 6.80684 34.8 6.04962C34.0088 5.1184 33.0601 4.2477 32.0534 3.55307C31.4584 3.14179 30.7156 2.80617 30.1877 2.31443C29.9258 2.06959 29.8872 1.94717 29.8008 1.61499Z" fill="#C1EAEC"/>
<path d="M15.0969 16.0583C21.5631 14.2894 32.9946 14.1738 38.9411 17.4895C39.9168 18.0335 40.9906 18.9021 41.2822 20.03C41.3679 20.3622 41.3706 20.6917 41.3734 21.0328L41.4162 28.6999L41.4142 30.2693C41.372 32.9523 41.3768 35.6338 41.3865 38.3168L41.3796 38.6544C41.1986 39.4736 40.216 40.1985 39.5382 40.6372C35.3066 43.3738 29.0498 43.7514 24.1086 43.6338C24.0306 43.5568 24.0326 43.543 23.9165 43.5059C23.2822 43.3016 21.6916 43.5286 20.9032 43.4639C16.0415 43.0657 13.1947 42.1668 9.18285 39.5086C9.187 40.4309 9.24365 41.3869 9.17455 42.3044C8.77586 40.4034 9.10822 38.0588 9.14968 36.1166C9.19459 34.0692 9.15659 32.0238 9.10891 29.977C9.23605 27.2714 9.18216 24.5403 9.20289 21.8313C9.16005 20.9427 9.09994 20.1318 9.52074 19.3107C10.4791 17.442 13.241 16.6889 15.0969 16.0583Z" fill="#EE8ACB"/>
<path d="M9.22091 37.4192C10.9124 40.0712 14.4412 41.2246 17.3813 41.869C19.2131 42.2713 21.0477 42.4075 22.8933 42.6785C29.4423 43.0788 36.0163 42.3112 41.3873 38.3168L41.3804 38.6544C41.1993 39.4736 40.2167 40.1985 39.5389 40.6372C35.3074 43.3738 29.0506 43.7514 24.1094 43.6338C24.0313 43.5568 24.0334 43.543 23.9173 43.5059C23.283 43.3016 21.6923 43.5286 20.9039 43.4639C16.0422 43.0657 13.1954 42.1668 9.18359 39.5086L9.22091 37.4192Z" fill="#CF1358"/>
<path d="M9.20289 21.8315C12.1299 24.381 15.7312 25.2655 19.5185 25.7359C20.4644 25.8535 21.4657 25.8666 22.395 26.0378C22.4123 31.491 22.0267 37.2915 22.8925 42.6787C21.0469 42.4077 19.2124 42.2716 17.3806 41.8692C14.4405 41.2248 10.9117 40.0714 9.22017 37.4195L9.18285 39.5089C9.187 40.4311 9.24365 41.3871 9.17455 42.3046C8.77586 40.4036 9.10822 38.0591 9.14968 36.1168C9.19459 34.0694 9.15659 32.024 9.10891 29.9773C9.23605 27.2716 9.18216 24.5406 9.20289 21.8315Z" fill="#EF5974"/>
<path d="M15.0961 16.0577C21.5622 14.2888 32.9937 14.1733 38.9403 17.4889C39.9159 18.033 40.9897 18.9016 41.2813 20.0295C41.367 20.3617 41.3698 20.6911 41.3725 21.0323C37.5673 25.0405 31.3851 25.9084 26.0881 26.0756C24.8665 26.1141 23.613 26.1285 22.3942 26.037C21.4648 25.8658 20.4636 25.8527 19.5176 25.7351C15.7304 25.2647 12.129 24.3802 9.20203 21.8307C9.15919 20.9422 9.09907 20.1313 9.51988 19.3101C10.4783 17.4415 13.2401 16.6884 15.0961 16.0577Z" fill="#D60C86"/>
<path d="M23.8531 15.7228C27.9112 15.6169 35.1063 16.2441 38.4458 18.5948C39.0048 18.9882 39.5465 19.5652 39.5811 20.2846C39.6074 20.839 39.3151 21.3569 38.933 21.7386C36.3563 24.308 29.6317 24.8967 26.0994 24.9689C21.9715 25.0157 15.1544 24.6498 11.6767 22.1636C11.1467 21.7846 10.6209 21.2502 10.5407 20.5735C10.4827 20.0893 10.6982 19.6492 11.0085 19.2915C13.2708 16.6822 20.5364 15.8851 23.8531 15.7228Z" fill="white"/>
<path d="M23.5379 17.2912C25.7878 17.076 28.7203 17.2747 30.8305 18.1441C31.6286 18.4728 32.8578 19.1076 33.1439 20.0003C33.2517 20.3359 33.2192 20.7135 33.0126 21.0072C32.0978 22.3036 28.8198 22.752 27.3466 22.935C24.486 23.0326 20.5336 23.1488 18.0385 21.5354C17.5375 21.2114 17.013 20.7678 16.897 20.1544C16.8272 19.7878 16.926 19.5141 17.1609 19.2238C18.3052 17.8071 21.8444 17.3951 23.5379 17.2912Z" fill="#E133A2"/>
<path d="M23.4407 17.9999C25.5972 17.7592 28.3135 17.9683 30.3097 18.8823C30.906 19.1554 31.4298 19.4587 31.6536 20.1017C31.6115 20.3472 31.6239 20.4621 31.465 20.6664C30.5578 21.8252 27.8077 22.0708 26.4437 22.2076C24.7466 22.2399 22.9757 22.2276 21.3194 21.808C20.2608 21.5405 19.0751 21.0769 18.485 20.1107C18.4885 19.8913 18.4422 19.742 18.5845 19.5584C19.4171 18.4848 22.1617 18.143 23.4407 17.9999Z" fill="white"/>
</svg>
