<svg width="38" height="38" viewBox="0 0 38 38" fill="none" xmlns="http://www.w3.org/2000/svg">
<path d="M11.0827 30.8743C11.0827 33.0605 9.31047 34.8327 7.12435 34.8327C4.93822 34.8327 3.16602 33.0605 3.16602 30.8743C3.16602 28.6882 4.93822 26.916 7.12435 26.916C9.31047 26.916 11.0827 28.6882 11.0827 30.8743Z" stroke="white" stroke-width="2.4"/>
<path d="M34.8327 30.8743C34.8327 33.0605 33.0605 34.8327 30.8743 34.8327C28.6882 34.8327 26.916 33.0605 26.916 30.8743C26.916 28.6882 28.6882 26.916 30.8743 26.916C33.0605 26.916 34.8327 28.6882 34.8327 30.8743Z" stroke="white" stroke-width="2.4"/>
<path d="M30.875 26.916C30.6092 23.0321 29.1256 22.166 24.1094 22.166H13.8905C8.87447 22.166 7.39081 23.0321 7.125 26.916" stroke="white" stroke-width="2.4" stroke-linecap="round" stroke-linejoin="round"/>
<path d="M19 10.291L20.5833 7.91602M26.125 10.291C26.125 14.226 22.9351 17.416 19 17.416C15.065 17.416 11.875 14.226 11.875 10.291C11.875 6.35599 15.065 3.16602 19 3.16602C22.9351 3.16602 26.125 6.35599 26.125 10.291Z" stroke="white" stroke-width="2.4" stroke-linecap="round"/>
</svg>
