<svg width="46" height="48" viewBox="0 0 46 48" fill="none" xmlns="http://www.w3.org/2000/svg">
<path d="M31.6194 13.5471C34.2729 14.0947 37.2504 13.5797 39.9622 13.7457C39.8755 13.7679 39.7889 13.7915 39.7016 13.8111C38.4058 14.1012 35.3333 13.5471 34.4546 13.9169L34.454 14.0587C36.3219 14.5991 38.5371 13.7745 40.4581 14.3253C38.464 14.5188 32.3526 13.93 31.02 14.7246L30.9023 14.5344C31.2024 14.3489 31.5269 14.2116 31.6524 13.8594L31.5767 13.7117L31.6194 13.5471Z" fill="#B1A6DA"/>
<path d="M33.8932 0.106796L40.4094 0.0930634C41.4678 0.0865288 42.6854 0.159068 43.7315 0.000276566C44.4007 0.280612 44.9361 0.498868 45.2316 1.20918C45.9978 3.05521 45.4922 8.08819 45.5639 10.3407C45.5885 11.2738 45.635 12.1468 44.9471 12.878C43.8977 13.9915 41.3728 13.7086 39.9594 13.7465C37.2477 13.5805 34.2702 14.0954 31.6166 13.5478C31.5203 13.5008 31.4233 13.4544 31.3289 13.4028C30.6771 13.0512 30.553 12.6735 30.3364 11.9795C30.8465 9.93551 30.7062 3.85179 30.4334 1.63133L30.3086 1.47057C30.4276 1.25231 30.5433 1.03732 30.6991 0.843243C31.177 0.247939 31.6781 0.166251 32.4042 0.102865L33.8932 0.106796Z" fill="#F06019"/>
<path d="M34.1304 3.15427C34.5674 3.55027 34.8869 3.77049 35.0065 4.37494C33.8103 6.25691 34.3554 6.89338 33.9073 8.78711C33.8401 7.48084 33.5853 4.23444 34.1304 3.15427Z" fill="#CF1358"/>
<path d="M43.6241 2.09093C43.8433 3.64617 43.9694 8.88563 43.1657 10.0632C42.9556 10.3703 42.7235 10.52 42.3672 10.582C42.5618 8.27727 42.5864 5.80521 42.4545 3.49784C42.7461 3.49588 43.0306 3.47367 43.3203 3.44949C43.6351 3.07702 43.5821 2.57253 43.6241 2.09093Z" fill="#EF5974"/>
<path d="M30.4368 1.63133C30.8164 2.10051 30.8726 2.60564 30.9845 3.1833C30.8364 4.55492 30.484 10.3812 31.3194 11.2751C32.35 12.3769 41.4306 11.8691 43.3813 11.8377C44.0414 11.296 44.7397 10.574 45.5674 10.3407C45.5919 11.2738 45.6385 12.1468 44.9505 12.878C43.9011 13.9915 41.3763 13.7086 39.9628 13.7465C37.2511 13.5805 34.2736 14.0954 31.6201 13.5478C31.5237 13.5008 31.4267 13.4544 31.3323 13.4028C30.6806 13.0512 30.5564 12.6735 30.3398 11.9795C30.85 9.93551 30.7097 3.85179 30.4368 1.63133Z" fill="#DC202B"/>
<path d="M33.8947 0.107243L40.4109 0.0935097C41.4693 0.0869751 42.6869 0.159514 43.733 0.000723362C43.5559 0.109851 43.3276 0.162777 43.2946 0.387568C43.239 0.763309 43.4207 1.09855 43.4802 1.46187L43.627 2.0918C43.585 2.5734 43.638 3.07789 43.3231 3.45036C43.0334 3.47454 42.7489 3.49675 42.4573 3.49871C42.0687 3.23798 41.6491 3.03932 41.2321 2.83021L40.01 3.04325C39.0757 3.09553 38.0878 3.21839 37.1554 3.17591C37.1101 3.49415 37.0953 3.66076 36.953 3.9522C36.6375 3.72284 36.2942 3.4412 35.8778 3.49674C35.5765 3.53726 35.2971 3.76272 35.1614 4.03521C35.0948 4.16852 35.087 4.24103 35.0586 4.37695L35.0042 4.37501C34.8846 3.77056 34.5652 3.55034 34.1281 3.15434L34.4424 2.60673C33.6781 2.47539 32.9061 2.4878 32.1328 2.47604C32.6714 1.92321 33.8456 1.10115 34.0758 0.382999L33.8947 0.107243Z" fill="#F14C27"/>
<path d="M34.4432 2.60673C35.4408 2.63614 36.2406 2.7211 37.1562 3.17591C37.1109 3.49415 37.0961 3.66076 36.9538 3.9522C36.6383 3.72284 36.2949 3.4412 35.8786 3.49674C35.5772 3.53726 35.2979 3.76272 35.1621 4.03521C35.0955 4.16852 35.0878 4.24103 35.0593 4.37695L35.005 4.37501C34.8854 3.77056 34.566 3.55034 34.1289 3.15434L34.4432 2.60673Z" fill="#D60C86"/>
<path d="M41.2344 2.82955C41.3643 2.30025 41.515 1.70428 42.0219 1.41611C42.512 1.13839 42.9937 1.29262 43.4825 1.46121L43.6293 2.09114C43.5873 2.57274 43.6403 3.07723 43.3254 3.4497C43.0358 3.47388 42.7512 3.49609 42.4596 3.49805C42.071 3.23732 41.6514 3.03866 41.2344 2.82955Z" fill="#EE8ACB"/>
<path d="M41.2363 2.82934C41.6534 3.03845 42.073 3.23711 42.4616 3.49784C42.5935 5.80521 42.5689 8.27727 42.3743 10.582C42.0161 10.5317 41.6547 10.5376 41.2939 10.5291C39.993 10.7532 38.811 10.0213 37.591 10.2148L36.0954 10.4644C35.4437 10.4272 34.5837 10.45 34.1285 9.8887C33.8647 9.56262 33.8996 9.17904 33.9093 8.78631C34.3574 6.89258 33.8124 6.25611 35.0085 4.37414L35.0628 4.37608C35.0913 4.24016 35.099 4.16765 35.1656 4.03434C35.3014 3.76185 35.5807 3.53639 35.8821 3.49587C36.2984 3.44033 36.6418 3.72197 36.9573 3.95133C37.0996 3.65989 37.1144 3.49328 37.1597 3.17504C38.092 3.21751 39.08 3.09466 40.0143 3.04238L41.2363 2.82934Z" fill="white"/>
<path d="M37.1555 3.17573C38.0878 3.21821 39.0758 3.09535 40.0101 3.04308L39.981 3.67757C39.6474 4.48786 38.7952 5.10017 38.2986 5.82812C37.8337 5.29294 37.1865 4.6264 36.9531 3.95203C37.0954 3.66058 37.1102 3.49397 37.1555 3.17573Z" fill="#EF5974"/>
<path d="M36.4067 9.89984C36.4422 9.86978 36.4785 9.83907 36.514 9.80836C37.1173 9.2784 37.6565 8.32697 38.3238 7.96953C39.0292 8.44067 39.3253 9.3137 40.043 9.83843C40.0605 9.85019 40.0766 9.86325 40.0935 9.87567C40.4323 10.0234 40.5829 10.1429 40.817 10.4318L41.2922 10.5291C39.9913 10.7533 38.8094 10.0214 37.5893 10.2148L36.0938 10.4644L36.4067 9.89984Z" fill="#D60C86"/>
<path d="M35.0085 4.37458L35.0628 4.37652C35.5323 5.41356 36.3909 5.98208 37.32 6.57085C36.7071 7.10211 35.4637 7.93856 35.3758 8.78218C35.3525 9.00632 35.4475 9.22587 35.5853 9.4023C35.7799 9.65323 36.1258 9.78653 36.4084 9.90024L36.0954 10.4648C35.4437 10.4276 34.5837 10.4505 34.1285 9.88913C33.8647 9.56306 33.8996 9.17948 33.9093 8.78675C34.3574 6.89302 33.8124 6.25655 35.0085 4.37458Z" fill="#D60C86"/>
<path d="M41.2361 2.82934C41.6531 3.03845 42.0727 3.23711 42.4613 3.49784C42.5932 5.80521 42.5687 8.27727 42.3741 10.582C42.0158 10.5317 41.6544 10.5376 41.2936 10.5291L40.8184 10.4317C40.5843 10.1429 40.4337 10.0233 40.0949 9.87563C40.3011 9.84949 40.5346 9.83054 40.7311 9.76127C41.0531 9.64757 41.176 9.47376 41.3273 9.18362C41.2322 8.26159 40.0574 7.39705 39.4102 6.77692C40.0884 6.0555 41.1391 5.4275 41.4158 4.43489C41.3214 4.08987 41.2865 4.01211 40.9768 3.79843C40.6109 3.54489 40.3975 3.59454 39.985 3.67688L40.014 3.04238L41.2361 2.82934Z" fill="#EC1796"/>
<path d="M31.0211 14.7258C32.3537 13.9312 38.4651 14.52 40.4592 14.3266C41.3327 14.9042 42.3886 14.6775 43.3824 14.7663C44.4428 14.9937 44.9509 15.3309 45.5781 16.2294C45.6745 18.2715 45.6344 20.3234 45.6467 22.3674C45.6531 23.4985 45.776 24.7107 45.648 25.8327C45.5833 26.4012 45.412 27.1991 45.0046 27.6284C44.0063 28.6799 41.7329 28.425 40.4055 28.4185L36.6942 28.3806C36.1051 28.2629 35.4521 28.3087 34.8508 28.2995C33.7277 28.2963 32.3052 28.4472 31.2448 28.0512C30.6442 27.8264 30.3726 27.435 30.1211 26.8652L30.1353 26.4006C30.4108 23.16 30.2523 19.7372 30.2097 16.483L30.1463 16.2275C30.4153 15.7106 30.7166 15.2205 31.0211 14.7258Z" fill="#F2BE2A"/>
<path d="M33.7759 18.04C34.3992 18.0857 35.0238 18.1648 35.6451 18.2275C35.3956 18.6608 35.2404 18.9163 35.2682 19.426C35.0005 20.3604 35.1751 22.081 35.3115 23.0527C35.1718 23.4069 35.0949 23.6937 35.2378 24.0714C35.3361 24.3315 35.5456 24.4688 35.801 24.5393C36.1391 24.6315 36.6241 24.5053 36.8918 24.2923C37.0999 24.1263 37.2881 23.9277 37.4737 23.7369L37.6178 23.993C37.2486 24.4086 36.9176 24.8536 36.5801 25.2947C35.7046 25.3307 34.6067 25.4973 33.8179 25.0569C33.3142 23.563 33.8412 19.8847 33.7759 18.04Z" fill="#F28E15"/>
<path d="M35.6458 18.2272C36.1372 18.1697 36.4657 18.1358 36.8885 18.4566C37.5235 18.9375 37.9366 19.8328 38.408 20.4745C38.9938 19.8583 40.0567 18.3455 40.8747 18.3168C41.0887 18.3089 41.2529 18.3775 41.4475 18.4566C41.5853 18.6677 41.6137 18.6206 41.5807 18.8441C41.4385 19.7962 40.1893 20.8051 39.5149 21.441C40.197 21.965 41.1986 22.51 41.3247 23.4327C41.2057 23.9757 41.0253 24.2535 40.5953 24.6194C39.599 25.103 38.6976 23.8117 37.6185 23.9927L37.4743 23.7366C37.2888 23.9274 37.1006 24.126 36.8924 24.292C36.6247 24.505 36.1398 24.6312 35.8016 24.539C35.5462 24.4685 35.3367 24.3312 35.2385 24.0711C35.0956 23.6934 35.1725 23.4066 35.3122 23.0524C35.1757 22.0807 35.0012 20.3601 35.2688 19.4257C35.241 18.916 35.3962 18.6605 35.6458 18.2272Z" fill="white"/>
<path d="M37.4766 23.7366L38.4361 22.4185C39.0833 23.3066 39.6562 24.0228 40.5976 24.6194C39.6012 25.103 38.6999 23.8117 37.6207 23.9927L37.4766 23.7366Z" fill="#F3A815"/>
<path d="M35.3122 23.0527C35.1757 22.081 35.0012 20.3605 35.2688 19.426C35.971 20.1703 36.6364 20.7754 37.5228 21.2995C36.8155 21.9301 36.0732 22.4908 35.3122 23.0527Z" fill="#F2BE2A"/>
<path d="M43.3824 14.7663C44.4428 14.9937 44.9509 15.3309 45.5781 16.2294C45.6745 18.2715 45.6344 20.3234 45.6467 22.3674C45.6531 23.4985 45.776 24.7107 45.648 25.8327C45.5833 26.4012 45.412 27.1991 45.0046 27.6284C44.0063 28.6799 41.7329 28.425 40.4055 28.4185L36.6942 28.3806C36.1051 28.2629 35.4521 28.3087 34.8508 28.2995C33.7277 28.2963 32.3052 28.4472 31.2448 28.0512C30.6442 27.8264 30.3726 27.435 30.1211 26.8652L30.1353 26.4006C30.4108 23.16 30.2523 19.7372 30.2097 16.483C30.758 17.156 30.3526 22.3883 30.3927 23.5567C30.4386 24.9381 30.683 25.6406 31.6852 26.5835C35.7728 26.5097 40.0046 27.403 44.0244 26.2725C43.9869 24.3435 44.5274 17.6135 44.0496 16.2954C43.8233 15.6714 42.9517 15.4348 42.4138 15.1663L42.6091 15.0036L42.4034 15.1094C42.728 14.9774 43.0474 14.8683 43.3824 14.7663Z" fill="#F3A815"/>
<path d="M13.8102 0.371071C15.0523 -0.0236206 28.2321 -0.0327682 29.2026 0.491962C29.6532 0.735703 29.9798 1.08596 30.3115 1.47085L30.4363 1.63161C30.7091 3.85208 30.8494 9.93579 30.3393 11.9798C30.5559 12.6738 30.68 13.0515 31.3318 13.4031C31.4262 13.4547 31.5231 13.5011 31.6195 13.5481L31.5768 13.7128L31.6525 13.8605C31.527 14.2127 31.2025 14.3499 30.9024 14.5355L31.0201 14.7257C30.7156 15.2204 30.4143 15.7104 30.1453 16.2273L30.2087 16.4828C30.2513 19.7371 30.4097 23.1599 30.1343 26.4004L30.1201 26.865C30.3716 27.4349 30.6431 27.8263 31.2438 28.0511C32.3042 28.4471 33.7267 28.2961 34.8498 28.2994C35.4511 28.3085 36.1041 28.2628 36.6932 28.3804C36.8561 28.7647 36.9175 28.9117 37.3074 29.0829C37.729 29.2685 38.393 29.4155 38.8508 29.4234C39.3267 29.6468 39.8006 29.8527 40.2261 30.1683C41.0362 30.1735 41.871 30.1402 42.6779 30.1997C43.0775 30.216 43.49 30.2075 43.8825 30.2944C44.1805 30.3728 44.4566 30.4421 44.7392 30.5682C45.6664 31.4158 45.817 32.3541 45.87 33.5754C45.9437 35.2842 46.3136 42.4782 45.3385 43.6237C44.6086 44.4804 42.4283 44.2772 41.4009 44.2811C40.345 45.539 39.4566 46.9544 38.0348 47.8176C37.5027 47.8582 36.9718 47.8921 36.4384 47.9104C30.038 48.1306 23.5677 47.8745 17.1595 47.8823L9.23437 47.8928C7.60629 47.8941 5.90386 47.996 4.29453 47.753C3.27811 47.5987 2.63931 47.3099 1.89187 46.5774C0.486859 45.1992 0.163571 43.9041 0.133182 42.0143C0.044601 36.5363 0.0633568 31.0511 0.0575376 25.5718C0.0543047 22.4476 -0.0937814 19.2398 0.0982517 16.1267C0.138986 15.4641 0.182973 14.5989 0.493976 14.0147C1.30478 12.4889 3.13587 11.0767 4.34626 9.85934C7.12007 7.06906 9.96047 4.32975 12.6839 1.49046C12.9599 0.997746 13.3647 0.695843 13.8102 0.371071Z" fill="#CB7CC5"/>
<path d="M34.8516 28.2988C35.4529 28.3079 36.1059 28.2622 36.6949 28.3798C36.8579 28.7641 36.9193 28.9111 37.3092 29.0823C37.7308 29.2679 38.3948 29.4149 38.8526 29.4228C39.3284 29.6462 39.8024 29.8521 40.2278 30.1677C39.3905 30.1762 38.5687 30.1618 37.7333 30.0991V30.0925L37.9958 30.1246L38.0683 30.0566L38.1303 30.1291L38.2015 30.0494L39.5948 30.0461C38.3198 29.3103 36.79 29.4554 35.4412 28.9771C35.0468 28.8379 34.9977 28.6726 34.8516 28.2988Z" fill="#CA9FD5"/>
<path d="M30.3383 11.9798C30.5549 12.6738 30.679 13.0515 31.3308 13.4031C31.4252 13.4547 31.5222 13.5011 31.6185 13.5481L31.5758 13.7128C29.9432 13.4619 28.1503 13.7396 26.4912 13.7546C23.019 13.7866 19.5392 13.7736 16.0664 13.7109C16.4453 13.5037 20.6248 13.607 21.4375 13.52L21.5972 13.5011C23.2699 13.4854 24.9413 13.4717 26.614 13.4945C27.4177 13.5351 28.2097 13.4933 29.0121 13.4514C29.5313 12.9836 29.9322 12.5542 30.3383 11.9798Z" fill="#B1A6DA"/>
<path d="M13.8073 0.370848C14.1513 0.840687 14.4622 1.29681 14.6304 1.86271C15.2213 3.85773 14.8224 8.40256 14.9705 10.7583C17.5193 12.1293 21.5229 11.6921 24.3432 11.7038C25.0913 12.3063 25.8304 12.9376 26.6121 13.4943C24.9394 13.4715 23.268 13.4852 21.5953 13.5009C19.3859 13.4146 16.8184 13.8838 14.6776 13.3689C13.7452 13.1441 13.312 12.7337 12.8109 11.9254C12.4844 8.51039 12.7799 4.93398 12.6809 1.49023C12.957 0.997522 13.3618 0.695618 13.8073 0.370848Z" fill="#D60C86"/>
<path d="M30.1159 26.8648L30.0215 26.9648C29.9691 27.0197 29.9148 27.0733 29.8631 27.1288C29.1648 27.8705 28.577 28.1345 27.5626 28.2802C26.1569 28.4821 24.6038 28.3077 23.182 28.3162C20.7522 28.3312 18.1226 28.5854 15.7199 28.2992C15.1192 28.228 14.3776 28.1221 13.9023 27.713C13.1232 27.0432 12.8465 25.7128 12.7799 24.7372C12.6713 23.131 12.4217 16.7296 13.3773 15.72C13.8797 15.1881 14.5515 15.0973 15.2414 15.0542C15.2427 17.2687 15.2537 19.4846 15.2207 21.6986C15.2032 22.8794 15.0229 24.253 15.1923 25.4076C15.2498 25.8004 15.3875 26.1983 15.6811 26.4767C15.985 26.7648 16.404 26.8831 16.8061 26.938C17.7003 27.0602 25.8252 26.9968 26.777 26.8687C27.6848 26.7466 28.6482 26.476 29.521 26.195L30.1301 26.4002L30.1159 26.8648Z" fill="#2B8D65"/>
<path d="M15.2461 15.0545C18.3523 15.1159 21.4591 15.08 24.5652 15.0695C25.9612 15.0649 27.555 14.9029 28.9264 15.127C29.2044 15.1721 29.4288 15.2715 29.6337 15.474C29.8355 15.674 30.0036 15.9798 30.1458 16.2274L30.2092 16.483C30.2519 19.7372 30.4103 23.16 30.1348 26.4006L29.5258 26.1954C28.6529 26.4764 27.6895 26.7469 26.7817 26.8691C25.8299 26.9972 17.7051 27.0606 16.8109 26.9384C16.4087 26.8835 15.9897 26.7652 15.6858 26.477C15.3923 26.1986 15.2545 25.8007 15.197 25.408C15.0276 24.2533 15.208 22.8797 15.2254 21.6989C15.2584 19.485 15.2474 17.2691 15.2461 15.0545Z" fill="#4BC196"/>
<path d="M25.3127 22.2235L25.7627 22.4359C26.0058 22.7515 26.1513 22.9658 26.1539 23.3919C26.1565 23.8317 25.9774 24.0525 25.711 24.3701C25.3263 24.1721 24.8743 23.9434 24.7728 23.4716C24.6668 22.9782 25.0288 22.5724 25.3127 22.2235Z" fill="white"/>
<path d="M22.3196 17.5738C22.9358 17.8653 23.4434 18.1554 23.6903 18.8331C23.8585 19.2957 23.8242 19.8224 23.81 20.3066C23.1582 19.4166 22.5847 18.8618 21.6523 18.3057C21.6924 18.2521 21.7248 18.1907 21.7726 18.1437C22.017 17.9052 22.145 17.8973 22.3196 17.5738Z" fill="#3DBB7C"/>
<path d="M25.2299 18.1352C25.5713 18.26 25.9482 18.4659 26.0931 18.8272C26.2942 19.3291 26.0026 19.797 25.7575 20.2119C25.5202 20.1936 25.2008 20.1714 24.9926 20.0485C24.6674 19.8584 24.6557 19.6663 24.582 19.3304C24.6932 18.8037 24.8904 18.5436 25.2299 18.1352Z" fill="white"/>
<path d="M17.6176 18.1455C19.1623 17.4567 20.6642 17.1875 22.3208 17.5737C22.1462 17.8972 22.0182 17.905 21.7738 18.1435C21.7259 18.1906 21.6936 18.252 21.6535 18.3056L21.4266 18.3265C19.9543 18.4533 18.5971 18.1572 17.4915 19.4282C17.1876 19.7772 16.907 20.1529 16.629 20.5234C16.6225 19.5184 17.0622 18.9237 17.6176 18.1455Z" fill="#2B8D65"/>
<path d="M16.6289 20.5231C16.9069 20.1526 17.1875 19.7768 17.4914 19.4279C18.597 18.1569 19.9542 18.4529 21.4265 18.3261L21.6534 18.3052C22.5858 18.8613 23.1593 19.4161 23.811 20.3061C24.0567 21.6875 23.9416 22.6449 23.33 23.9021L23.2194 24.1354C21.9831 24.9039 20.7631 25.5959 19.252 25.2469C18.3449 25.0372 17.5515 24.4687 17.0879 23.6473C16.5571 22.7069 16.4368 21.5765 16.6289 20.5231Z" fill="#2D7C74"/>
<path d="M20.1334 18.944C20.5259 18.9826 20.9403 19.0074 21.3082 19.1629C21.9373 19.4296 22.4889 19.9543 22.7397 20.5999C23.0029 21.2795 22.9538 22.0441 22.6434 22.6982C22.2076 23.615 21.4498 24.0639 20.531 24.3887C19.8657 24.3887 19.3381 24.3259 18.7678 23.9502C18.173 23.5568 17.7495 22.919 17.6227 22.2113C17.4895 21.4677 17.657 20.7103 18.0928 20.0974C18.6113 19.3668 19.287 19.1035 20.1334 18.944Z" fill="white"/>
<path d="M13.8086 0.370774C15.0507 -0.0239162 28.2305 -0.0330648 29.201 0.491665C29.6516 0.735407 29.9781 1.08567 30.3098 1.47056L30.4346 1.63132C30.7075 3.85178 30.8478 9.9355 30.3377 11.9795C29.9316 12.5539 29.5307 12.9833 29.0115 13.4511C28.2091 13.493 27.4171 13.5348 26.6134 13.4943C25.8317 12.9375 25.0926 12.3063 24.3445 11.7038C21.5242 11.692 17.5206 12.1292 14.9718 10.7582C14.8237 8.40249 15.2226 3.85765 14.6317 1.86263C14.4636 1.29674 14.1526 0.840614 13.8086 0.370774Z" fill="#E133A2"/>
<path d="M25.1529 8.21718C25.2033 8.22699 25.2544 8.23483 25.3042 8.24855C25.7464 8.36618 25.8977 8.5315 26.1033 8.91509C26.0859 9.37708 25.9773 9.51627 25.7128 9.86914C25.2744 9.74433 25.0552 9.65152 24.7908 9.26533C24.7714 8.80268 24.9175 8.589 25.1529 8.21718Z" fill="white"/>
<path d="M24.7165 2.69161C24.946 2.70337 25.2725 2.69618 25.4859 2.78766C25.8325 2.93535 25.8862 3.14576 25.9987 3.46726C25.9502 3.94494 25.837 4.17693 25.5674 4.57031C25.3372 4.54025 25.0993 4.51736 24.8833 4.42196C24.6027 4.2978 24.3919 4.00049 24.3402 3.70121C24.2717 3.30652 24.5083 2.99416 24.7165 2.69161Z" fill="white"/>
<path d="M16.8294 8.04492C16.1776 7.13661 16.2365 5.96561 16.2391 4.88217C16.2404 4.27445 16.1621 3.17402 16.5979 2.73228C17.3324 3.13285 17.0072 3.8216 17.2872 4.48682C17.3079 4.53714 17.3382 4.58419 17.3641 4.63255C16.8908 5.81793 16.7925 6.77786 16.8294 8.04492Z" fill="#EC1796"/>
<path d="M17.362 4.63272C18.061 3.80217 18.7975 3.2892 19.9037 3.21274C20.9292 3.14217 22.0995 3.43428 22.887 4.12499C23.5265 4.68566 23.9015 5.49398 23.9539 6.34413C24.0185 7.41581 23.5866 8.47444 22.8657 9.2501C22.1991 9.9676 21.299 10.4289 20.3182 10.459C19.3574 10.4891 18.4315 10.1695 17.7435 9.48664C17.3297 9.07562 17.031 8.59139 16.8273 8.0451C16.7905 6.77803 16.8888 5.8181 17.362 4.63272Z" fill="#D60C86"/>
<path d="M19.5086 4.11898C19.9754 4.09676 20.5043 4.03925 20.9608 4.15492C21.6442 4.32808 22.2915 4.82735 22.6458 5.4403C23.0046 6.06109 23.0958 6.81125 22.8805 7.49804C22.5779 8.46189 21.897 8.96702 21.0313 9.38654C20.5754 9.47999 20.0957 9.49893 19.6424 9.37935C18.8976 9.182 18.2549 8.67363 17.9045 7.979C17.5663 7.30985 17.5107 6.51524 17.7596 5.80754C18.0797 4.89596 18.6777 4.51171 19.5086 4.11898Z" fill="white"/>
<path d="M42.6777 30.2001C43.0773 30.2164 43.4898 30.2079 43.8822 30.2948C44.1803 30.3732 44.4564 30.4425 44.739 30.5686C45.6662 31.4161 45.8168 32.3545 45.8698 33.5758C45.9435 35.2846 46.3134 42.4786 45.3383 43.6241C44.6083 44.4808 42.4281 44.2776 41.4007 44.2815C38.7562 44.1155 33.2829 44.6135 31.1382 43.9999C30.588 43.8424 30.1871 43.5124 29.7539 43.1491C29.8477 42.7537 29.8451 42.4701 29.8179 42.0708L30.0106 41.7337L30.0093 32.0618C30.255 31.7076 30.4664 31.3214 30.7296 30.9803C30.9475 30.698 31.2333 30.5307 31.574 30.4484C32.6622 30.185 33.8532 30.2778 34.966 30.2837C37.4288 30.2961 40.0603 30.5039 42.5018 30.2223C42.5606 30.2157 42.6188 30.2073 42.6777 30.2001Z" fill="#7F53AF"/>
<path d="M43.8815 30.2941C44.1795 30.3725 44.4556 30.4418 44.7382 30.5679C44.5772 30.96 44.4104 31.3252 44.3599 31.752C43.9882 31.3109 43.006 30.9345 42.8359 30.5019C43.1599 30.2862 43.5071 30.3104 43.8815 30.2941Z" fill="#58359A"/>
<path d="M33.6442 35.8574C34.1363 36.2782 34.7027 36.4168 35.2296 36.7618C34.6813 37.2708 34.1046 37.7668 33.6016 38.3223C33.6585 37.5074 33.6378 36.6749 33.6442 35.8574Z" fill="#75349C"/>
<path d="M35.0417 32.3445C36.9122 32.5425 38.7621 32.6942 40.6417 32.77C41.3645 33.3267 41.7383 33.6463 41.9581 34.5506C42.0092 35.1969 42.0816 35.8478 42.0978 36.496L42.0855 37.2625C42.0726 37.963 42.0764 38.6498 41.9342 39.3386C41.9419 39.8966 42.0383 40.6011 41.6555 41.0559C41.3865 41.3767 40.9288 41.5133 40.524 41.4806C39.525 41.3989 38.9186 40.8579 38.2629 40.1659C37.6771 40.752 36.8476 41.789 35.9592 41.8256C35.7542 41.8335 35.4632 41.7525 35.2667 41.6865C36.7111 41.5629 37.2963 40.8036 38.2487 39.7953C38.5965 40.1698 38.9819 40.652 39.4287 40.9043C40.0022 41.2297 40.4723 41.1264 41.0658 40.9461C41.1376 40.6089 41.0523 40.5919 40.8971 40.3004C41.0613 40.0293 41.2954 39.7966 41.5036 39.5588C40.9191 38.5629 40.1082 37.8696 39.2173 37.1671C40.0856 36.3993 40.9165 35.5844 41.5805 34.6265C41.2495 34.269 41.1467 34.0906 40.674 33.9508C39.6479 34.1612 38.9056 35.3975 38.2662 36.1823C37.6642 35.3753 37.0487 34.3023 36.0736 33.9325C35.7186 33.9808 35.6255 33.9861 35.4089 34.3121C35.2279 34.5853 35.2124 34.914 35.3449 35.2074C35.4374 35.4099 35.6268 35.6197 35.762 35.7981C35.535 36.1235 35.374 36.3921 35.2298 36.762C34.7029 36.4169 34.1365 36.2784 33.6444 35.8576C33.5759 35.1603 33.6037 34.4788 33.6308 33.7802C34.0291 33.1313 34.4145 32.7745 35.0417 32.3445Z" fill="#842394"/>
<path d="M42.0846 37.2627C41.5415 37.2098 41.0016 37.1653 40.5703 36.7968L40.5858 36.5818C41.0378 36.3243 41.5977 36.4498 42.0969 36.4962L42.0846 37.2627Z" fill="#75349C"/>
<path d="M38.2704 36.1834C38.9098 35.3986 39.6521 34.1622 40.6782 33.9518C41.1509 34.0917 41.2537 34.2701 41.5847 34.6275C40.9207 35.5855 40.0898 36.4003 39.2215 37.1681C40.1125 37.8706 40.9233 38.5639 41.5078 39.5598C41.2996 39.7977 41.0655 40.0303 40.9013 40.3015C41.0565 40.5929 41.1418 40.6099 41.0701 40.9471C40.4765 41.1275 40.0064 41.2307 39.4329 40.9053C38.9861 40.6531 38.6008 40.1708 38.2529 39.7964C37.3005 40.8047 36.7153 41.564 35.2709 41.6875C34.5829 41.368 33.9622 40.968 33.6008 40.2695C33.2781 39.648 33.412 38.9606 33.606 38.3235C34.109 37.768 34.6858 37.272 35.234 36.763C35.3782 36.3931 35.5392 36.1246 35.7662 35.7991C35.6311 35.6207 35.4416 35.411 35.3491 35.2084C35.2166 34.915 35.2321 34.5863 35.4131 34.3132C35.6297 33.9871 35.7229 33.9819 36.0778 33.9335C37.0529 34.3034 37.6684 35.3764 38.2704 36.1834Z" fill="white"/>
<path d="M35.7662 35.7991C36.2977 36.2585 36.8214 36.6983 37.4027 37.0943C36.5802 37.7811 35.3032 38.6273 35.1946 39.8101C35.1739 40.0342 35.1823 39.9833 35.2754 40.1865C35.7565 40.329 36.0862 40.2133 36.5182 39.9709C37.2785 39.5428 37.8255 38.8025 38.3913 38.1503C38.9331 38.8083 39.687 40.176 40.5541 40.2917C40.6944 40.31 40.7668 40.3041 40.9013 40.3015C41.0565 40.5929 41.1418 40.6099 41.0701 40.9471C40.4765 41.1275 40.0064 41.2307 39.4329 40.9053C38.9861 40.6531 38.6008 40.1708 38.2529 39.7964C37.3005 40.8047 36.7153 41.564 35.2709 41.6875C34.5829 41.368 33.9622 40.968 33.6008 40.2695C33.2781 39.648 33.412 38.9606 33.606 38.3235C34.109 37.768 34.6858 37.272 35.234 36.763C35.3782 36.3931 35.5392 36.1246 35.7662 35.7991Z" fill="#58359A"/>
<path d="M44.739 30.5686C45.6662 31.4161 45.8168 32.3545 45.8698 33.5758C45.9435 35.2846 46.3134 42.4786 45.3383 43.6241C44.6083 44.4808 42.4281 44.2776 41.4007 44.2815C38.7562 44.1155 33.2829 44.6135 31.1382 43.9999C30.588 43.8424 30.1871 43.5124 29.7539 43.1491C29.8477 42.7537 29.8451 42.4701 29.8179 42.0708L30.0106 41.7337C30.1205 41.8624 30.2304 41.9885 30.3507 42.1081C30.6022 42.3564 30.8175 42.4597 31.1602 42.5021C32.507 42.6694 34.0291 42.5158 35.3953 42.4936C37.6117 42.457 39.8386 42.4779 42.0524 42.3845C42.7152 42.3564 43.9223 42.2832 44.3807 41.7814C44.7933 40.3869 44.739 33.1328 44.3607 31.7527C44.4111 31.326 44.578 30.9607 44.739 30.5686Z" fill="#452B90"/>
<path d="M28.5086 44.1397C26.1027 44.2214 16.0452 44.4325 14.3337 43.9875C13.8171 43.8529 13.2694 43.3111 13.0328 42.8361C12.6694 42.1068 12.6197 32.6865 12.9598 31.937C13.1912 31.426 13.832 31.0437 14.3428 30.8875C15.301 30.5948 26.8547 30.6327 28.2467 30.796C28.5991 30.8379 28.8894 30.9731 29.1972 31.143C29.4752 31.441 29.7662 31.7305 30.0061 32.0611L30.0074 41.733L29.8147 42.0702C29.8418 42.4695 29.8444 42.7531 29.7507 43.1484C29.366 43.5444 28.9644 43.8326 28.5086 44.1397Z" fill="#2D2F87"/>
<path d="M18.4556 31.9525C20.3132 31.9479 22.1741 31.959 24.0297 31.895C25.0869 31.8577 26.2876 31.6486 27.3279 31.78C27.6848 31.825 28.043 31.9459 28.279 32.2374C29.0659 33.211 28.6456 39.5431 28.5674 41.0506C27.6188 42.0563 26.7473 42.2582 25.3798 42.2935C22.7185 42.3628 19.5949 41.9818 17.0111 42.3184C16.9665 42.2367 16.9206 42.155 16.8786 42.0713C15.985 40.3005 16.1408 34.0416 16.7764 32.1113C17.3428 32.0904 17.8944 32.025 18.4556 31.9525Z" fill="#452B90"/>
<path d="M25.2283 38.1205L25.7436 38.2309C25.9932 38.5132 26.0973 38.6099 26.1264 39.0079C26.1593 39.4574 25.8904 39.8234 25.6156 40.1396C25.4604 40.073 25.2554 39.9991 25.1151 39.8992C24.8106 39.6822 24.7084 39.5136 24.625 39.1556C24.6948 38.6602 24.8882 38.4714 25.2283 38.1205Z" fill="white"/>
<path d="M24.986 34.4599C25.2246 34.4716 25.5517 34.4938 25.7599 34.616C26.0244 34.7716 26.1809 35.0251 26.1918 35.3316C26.2061 35.7302 25.95 36.0399 25.7237 36.334C25.5026 36.3105 25.1916 36.2954 24.9918 36.1909C24.7222 36.0497 24.5476 35.7982 24.5256 35.493C24.4965 35.0905 24.7636 34.7618 24.986 34.4599Z" fill="white"/>
<path d="M19.8658 33.7389C20.6087 33.6788 21.2715 33.6311 21.9433 34.0133C22.7153 34.4531 23.2002 35.217 23.4323 36.0659C23.7498 37.2238 23.6606 38.5719 23.012 39.6004C22.4366 40.5127 21.6659 40.9106 20.6456 41.1367C20.2201 41.1204 19.7759 41.1165 19.3563 41.0381C18.2164 40.825 17.6034 40.082 16.9691 39.1816C16.7965 37.9661 16.7564 36.8722 17.3183 35.7424C17.8562 34.659 18.764 34.1055 19.8658 33.7389Z" fill="#2D2F87"/>
<path d="M19.5019 35.0801C19.9474 35.0422 20.4188 35.0043 20.8565 35.1193C21.4436 35.2729 21.9822 35.7382 22.2776 36.2655C22.6352 36.9053 22.6792 37.6855 22.4425 38.3749C22.1386 39.259 21.5535 39.7184 20.7498 40.1197C20.3767 40.1804 20.0567 40.2092 19.683 40.1268C19.0655 39.9916 18.523 39.5871 18.1958 39.0434C17.7943 38.3755 17.7199 37.5515 17.9327 36.8072C18.19 35.91 18.717 35.501 19.5019 35.0801Z" fill="white"/>
</svg>
