<svg width="33" height="32" viewBox="0 0 33 32" fill="none" xmlns="http://www.w3.org/2000/svg">
<path d="M16.5003 29.3327C23.8641 29.3327 29.8337 23.3631 29.8337 15.9993C29.8337 8.63555 23.8641 2.66602 16.5003 2.66602C9.13653 2.66602 3.16699 8.63555 3.16699 15.9993C3.16699 23.3631 9.13653 29.3327 16.5003 29.3327Z" stroke="white" stroke-width="2.5"/>
<path d="M17.1314 9.15785C17.1314 8.51839 16.613 8 15.9735 8C15.3341 8 14.8157 8.51839 14.8157 9.15785H17.1314ZM19.1079 18.3738C18.6557 17.9217 17.9227 17.9217 17.4706 18.3738C17.0184 18.826 17.0184 19.559 17.4706 20.0112L19.1079 18.3738ZM19.7862 22.3269C20.2384 22.7791 20.9714 22.7791 21.4236 22.3269C21.8758 21.8747 21.8758 21.1417 21.4236 20.6895L19.7862 22.3269ZM14.8157 9.15785V14.5611H17.1314V9.15785H14.8157ZM17.4706 20.0112L19.7862 22.3269L21.4236 20.6895L19.1079 18.3738L17.4706 20.0112ZM17.1314 16.8768C17.1314 17.5163 16.613 18.0347 15.9735 18.0347V20.3504C17.8919 20.3504 19.4471 18.7951 19.4471 16.8768H17.1314ZM15.9735 18.0347C15.3341 18.0347 14.8157 17.5163 14.8157 16.8768H12.5C12.5 18.7951 14.0552 20.3504 15.9735 20.3504V18.0347ZM14.8157 16.8768C14.8157 16.2374 15.3341 15.719 15.9735 15.719V13.4033C14.0552 13.4033 12.5 14.9585 12.5 16.8768H14.8157ZM15.9735 15.719C16.613 15.719 17.1314 16.2374 17.1314 16.8768H19.4471C19.4471 14.9585 17.8919 13.4033 15.9735 13.4033V15.719Z" fill="white"/>
</svg>
