<svg width="40" height="40" viewBox="0 0 40 40" fill="none" xmlns="http://www.w3.org/2000/svg">
<g clip-path="url(#clip0_323_29231)">
<path d="M20 3.75C11.0234 3.75 3.75 11.0234 3.75 20V23.125C3.75 24.1641 2.91406 25 1.875 25C0.835937 25 0 24.1641 0 23.125V20C0 8.95313 8.95313 0 20 0C31.0469 0 40 8.95313 40 20V31.2578C40 35.0547 36.9219 38.1328 33.1172 38.1328L24.5 38.125C23.8516 39.2422 22.6406 40 21.25 40H18.75C16.6797 40 15 38.3203 15 36.25C15 34.1797 16.6797 32.5 18.75 32.5H21.25C22.6406 32.5 23.8516 33.2578 24.5 34.375L33.125 34.3828C34.8516 34.3828 36.25 32.9844 36.25 31.2578V20C36.25 11.0234 28.9766 3.75 20 3.75ZM11.25 16.25H12.5C13.8828 16.25 15 17.3672 15 18.75V27.5C15 28.8828 13.8828 30 12.5 30H11.25C8.49219 30 6.25 27.7578 6.25 25V21.25C6.25 18.4922 8.49219 16.25 11.25 16.25ZM28.75 16.25C31.5078 16.25 33.75 18.4922 33.75 21.25V25C33.75 27.7578 31.5078 30 28.75 30H27.5C26.1172 30 25 28.8828 25 27.5V18.75C25 17.3672 26.1172 16.25 27.5 16.25H28.75Z" fill="#3A0CA3"/>
</g>
<defs>
<clipPath id="clip0_323_29231">
<rect width="40" height="40" fill="white"/>
</clipPath>
</defs>
</svg>
